# Blender 5.2.0 LTS
# www.blender.org
o boccale
v 0.000000 0.000000 -0.050000
v 0.000000 0.015000 -0.042000
v 0.000000 0.140000 -0.050000
v 0.029389 0.000000 -0.040451
v 0.024687 0.015000 -0.033979
v 0.029389 0.140000 -0.040451
v 0.047553 0.000000 -0.015451
v 0.039944 0.015000 -0.012979
v 0.047553 0.140000 -0.015451
v 0.047553 0.000000 0.015451
v 0.039944 0.015000 0.012979
v 0.047553 0.140000 0.015451
v 0.029389 0.000000 0.040451
v 0.024687 0.015000 0.033979
v 0.029389 0.140000 0.040451
v 0.000000 0.000000 0.050000
v 0.000000 0.015000 0.042000
v 0.000000 0.140000 0.050000
v -0.029389 0.000000 0.040451
v -0.024687 0.015000 0.033979
v -0.029389 0.140000 0.040451
v -0.047553 0.000000 0.015451
v -0.039944 0.015000 0.012979
v -0.047553 0.140000 0.015451
v -0.047553 0.000000 -0.015451
v -0.039944 0.015000 -0.012979
v -0.047553 0.140000 -0.015451
v -0.029389 0.000000 -0.040451
v -0.024687 0.015000 -0.033979
v -0.029389 0.140000 -0.040451
v 0.024687 0.140000 -0.033979
v -0.024687 0.140000 -0.033979
v -0.039944 0.140000 0.012979
v 0.000000 0.140000 0.042000
v 0.039944 0.140000 0.012979
v 0.000000 0.140000 -0.042000
v -0.024687 0.140000 0.033979
v -0.039944 0.140000 -0.012979
v 0.024687 0.140000 0.033979
v 0.039944 0.140000 -0.012979
v 0.058000 0.024000 0.000000
v 0.067000 0.033000 0.000000
v 0.058000 0.042000 0.000000
v 0.049000 0.033000 0.000000
v 0.058000 0.038938 -0.036062
v 0.067000 0.045302 -0.029698
v 0.058000 0.051665 -0.023335
v 0.049000 0.045302 -0.029698
v 0.058000 0.075000 -0.051000
v 0.067000 0.075000 -0.042000
v 0.058000 0.075000 -0.033000
v 0.049000 0.075000 -0.042000
v 0.058000 0.111062 -0.036062
v 0.067000 0.104698 -0.029698
v 0.058000 0.098335 -0.023335
v 0.049000 0.104698 -0.029698
v 0.058000 0.126000 -0.000000
v 0.067000 0.117000 -0.000000
v 0.058000 0.108000 -0.000000
v 0.049000 0.117000 -0.000000
v 0.058000 0.111062 0.036062
v 0.067000 0.104698 0.029698
v 0.058000 0.098335 0.023335
v 0.049000 0.104698 0.029698
v 0.058000 0.075000 0.051000
v 0.067000 0.075000 0.042000
v 0.058000 0.075000 0.033000
v 0.049000 0.075000 0.042000
v 0.058000 0.038938 0.036062
v 0.067000 0.045302 0.029699
v 0.058000 0.051665 0.023335
v 0.049000 0.045302 0.029699
vn 0.3090 -0.0000 -0.9511
vn 0.8090 -0.0000 -0.5878
vn 1.0000 -0.0000 -0.0000
vn 0.8090 -0.0000 0.5878
vn 0.3090 -0.0000 0.9511
vn -0.3090 -0.0000 0.9511
vn -0.8090 -0.0000 0.5878
vn -1.0000 -0.0000 -0.0000
vn -0.0000 1.0000 -0.0000
vn -0.8090 -0.0000 -0.5878
vn -0.3090 -0.0000 -0.9511
vn -0.0000 -1.0000 -0.0000
vn 0.6786 -0.6786 -0.2811
vn 0.6786 0.6786 0.2811
vn -0.6786 0.6786 0.2811
vn -0.6786 -0.6786 -0.2811
vn 0.6786 -0.2811 -0.6786
vn 0.6786 0.2811 0.6786
vn -0.6786 0.2811 0.6786
vn -0.6786 -0.2811 -0.6786
vn 0.6786 0.2811 -0.6786
vn 0.6786 -0.2811 0.6786
vn -0.6786 -0.2811 0.6786
vn -0.6786 0.2811 -0.6786
vn 0.6786 0.6786 -0.2811
vn 0.6786 -0.6786 0.2811
vn -0.6786 -0.6786 0.2811
vn -0.6786 0.6786 -0.2811
vt 0.215598 0.006755
vt 0.265157 0.387137
vt 0.215598 0.387137
vt 0.278667 0.006755
vt 0.346592 0.387137
vt 0.278667 0.387137
vt 0.346592 0.006755
vt 0.430553 0.387137
vt 0.430553 0.006755
vt 0.498478 0.387137
vt 0.511988 0.006755
vt 0.561548 0.387137
vt 0.511988 0.387137
vt 0.561548 0.006755
vt 0.641478 0.387137
vt 0.641478 0.006755
vt 0.721249 0.387137
vt 0.006755 0.006755
vt 0.055896 0.387137
vt 0.006755 0.387137
vt 0.718288 0.646403
vt 0.638437 0.672349
vt 0.705512 0.628819
vt 0.558586 0.426592
vt 0.638437 0.400647
vt 0.571362 0.444177
vt 0.055896 0.006755
vt 0.135667 0.387137
vt 0.135667 0.006755
vt 0.558586 0.711804
vt 0.767638 0.863689
vt 0.638437 0.957560
vt 0.868908 0.346382
vt 0.801766 0.006755
vt 0.868908 0.006755
vt 0.734759 0.346382
vt 0.801766 0.346382
vt 0.454446 0.740274
vt 0.495725 0.400647
vt 0.495725 0.740274
vt 0.387439 0.740274
vt 0.454446 0.400647
vt 0.320297 0.740274
vt 0.387439 0.400647
vt 0.278667 0.740274
vt 0.320297 0.400647
vt 0.265157 0.740274
vt 0.208100 0.400647
vt 0.265157 0.400647
vt 0.208100 0.740274
vt 0.137573 0.400647
vt 0.137573 0.740274
vt 0.080516 0.400647
vt 0.910538 0.346382
vt 0.910538 0.006755
vt 0.297575 0.832635
vt 0.121970 0.960219
vt 0.080516 0.832635
vt 0.805601 0.887257
vt 0.781148 0.789275
vt 0.805601 0.789275
vt 0.486030 0.834475
vt 0.461577 0.897875
vt 0.461577 0.834475
vt 0.437124 0.834475
vt 0.830054 0.869966
vt 0.830054 0.789275
vt 0.993245 0.637197
vt 0.895263 0.653330
vt 0.975954 0.619906
vt 0.895263 0.628876
vt 0.958663 0.602615
vt 0.311085 0.897875
vt 0.360595 0.834475
vt 0.341032 0.915166
vt 0.032867 0.498629
vt 0.043252 0.596612
vt 0.013304 0.579321
vt 0.895263 0.677783
vt 0.814571 0.619906
vt 0.311085 0.771075
vt 0.326455 0.834475
vt 0.013304 0.417938
vt 0.067006 0.498629
vt 0.868017 0.887257
vt 0.892470 0.789275
vt 0.892470 0.869966
vt 0.781148 0.539215
vt 0.831863 0.602615
vt 0.905980 0.835384
vt 0.930433 0.771984
vt 0.930433 0.852675
vt 0.843564 0.789275
vt 0.843564 0.869966
vt 0.868017 0.691292
vt 0.868017 0.789275
vt 0.831863 0.475815
vt 0.805601 0.539215
vt 0.905980 0.708583
vt 0.905980 0.771984
vt 0.895263 0.400647
vt 0.814572 0.458524
vt 0.797281 0.441233
vt 0.895263 0.425100
vt 0.423614 0.771075
vt 0.374104 0.834475
vt 0.393667 0.753784
vt 0.047444 0.708104
vt 0.037059 0.610121
vt 0.067006 0.627412
vt 0.993245 0.441233
vt 0.975954 0.458524
vt 0.895263 0.449553
vt 0.423614 0.897875
vt 0.408244 0.834475
vt 0.067006 0.788795
vt 0.013304 0.708104
vt 0.805601 0.691292
vt 0.781148 0.708583
vt 0.461577 0.771075
vt 0.486030 0.753784
vt 0.437124 0.753784
vt 0.830054 0.708583
vt 0.265157 0.006755
vt 0.498478 0.006755
vt 0.721249 0.006755
vt 0.746966 0.571761
vt 0.746966 0.501234
vt 0.767638 0.494518
vt 0.558586 0.646403
vt 0.509235 0.578478
vt 0.529907 0.571761
vt 0.571362 0.628819
vt 0.767638 0.578478
vt 0.638437 0.650613
vt 0.529907 0.501234
vt 0.718288 0.426592
vt 0.705512 0.444177
vt 0.509235 0.494518
vt 0.638437 0.422383
vt 0.558586 0.931615
vt 0.509235 0.863689
vt 0.509235 0.779729
vt 0.638437 0.685858
vt 0.718288 0.711804
vt 0.767638 0.779729
vt 0.718288 0.931615
vt 0.734759 0.006755
vt 0.278667 0.400647
vt 0.080516 0.740274
vt 0.121970 0.775578
vt 0.189045 0.753784
vt 0.256120 0.775578
vt 0.297575 0.903162
vt 0.256120 0.960219
vt 0.189045 0.982013
vt 0.080516 0.903162
vt 0.781148 0.869966
vt 0.486030 0.915166
vt 0.437124 0.915166
vt 0.797281 0.637197
vt 0.341032 0.753784
vt 0.043252 0.400647
vt 0.892470 0.708583
vt 0.930433 0.691292
vt 0.843564 0.708583
vt 0.958663 0.475815
vt 0.393667 0.915166
vt 0.037059 0.806086
s 0
f 3/1/1 4/2/1 1/3/1
f 6/4/2 7/5/2 4/6/2
f 9/7/3 10/8/3 7/5/3
f 12/9/4 13/10/4 10/8/4
f 15/11/5 16/12/5 13/13/5
f 18/14/6 19/15/6 16/12/6
f 21/16/7 22/17/7 19/15/7
f 24/18/8 25/19/8 22/20/8
f 12/21/9 9/22/9 35/23/9
f 27/24/9 24/25/9 38/26/9
f 27/27/10 28/28/10 25/19/10
f 30/29/11 1/3/11 28/28/11
f 7/30/12 19/31/12 25/32/12
f 2/33/6 31/34/6 36/35/6
f 8/36/7 31/34/7 5/37/7
f 11/38/8 40/39/8 8/40/8
f 14/41/10 35/42/10 11/38/10
f 17/43/11 39/44/11 14/41/11
f 20/45/1 34/46/1 17/43/1
f 20/47/2 33/48/2 37/49/2
f 23/50/3 38/51/3 33/48/3
f 26/52/4 32/53/4 38/51/4
f 29/54/5 36/35/5 32/55/5
f 17/56/9 5/57/9 29/58/9
f 45/59/13 42/60/13 41/61/13
f 42/62/14 47/63/14 43/64/14
f 47/63/15 44/65/15 43/64/15
f 48/66/16 41/61/16 44/67/16
f 45/68/17 50/69/17 46/70/17
f 46/70/18 51/71/18 47/72/18
f 47/73/19 52/74/19 48/75/19
f 52/76/20 45/77/20 48/78/20
f 49/79/21 54/80/21 50/69/21
f 54/80/22 51/71/22 50/69/22
f 55/81/23 52/74/23 51/82/23
f 56/83/24 49/84/24 52/76/24
f 53/85/25 58/86/25 54/87/25
f 58/88/26 55/89/26 54/80/26
f 55/90/27 60/91/27 56/92/27
f 60/93/28 53/85/28 56/94/28
f 61/95/14 58/86/14 57/96/14
f 58/88/13 63/97/13 59/98/13
f 63/99/16 60/91/16 59/100/16
f 60/93/15 61/95/15 57/96/15
f 65/101/18 62/102/18 61/103/18
f 66/104/17 63/97/17 62/102/17
f 63/105/20 68/106/20 64/107/20
f 68/108/19 61/109/19 64/110/19
f 69/111/22 66/104/22 65/101/22
f 70/112/21 67/113/21 66/104/21
f 71/114/24 68/106/24 67/115/24
f 72/116/23 65/117/23 68/108/23
f 69/118/26 42/60/26 70/119/26
f 42/62/25 71/120/25 70/121/25
f 43/64/28 72/122/28 71/120/28
f 44/67/27 69/118/27 72/123/27
f 3/1/1 6/124/1 4/2/1
f 6/4/2 9/7/2 7/5/2
f 9/7/3 12/9/3 10/8/3
f 12/9/4 15/125/4 13/10/4
f 15/11/5 18/14/5 16/12/5
f 18/14/6 21/16/6 19/15/6
f 21/16/7 24/126/7 22/17/7
f 24/18/8 27/27/8 25/19/8
f 39/127/9 34/128/9 18/129/9
f 6/130/9 3/131/9 36/132/9
f 6/130/9 36/132/9 31/133/9
f 39/127/9 18/129/9 15/134/9
f 35/23/9 39/127/9 15/134/9
f 9/22/9 6/130/9 31/133/9
f 9/22/9 31/133/9 40/135/9
f 35/23/9 15/134/9 12/21/9
f 9/22/9 40/135/9 35/23/9
f 32/136/9 36/132/9 3/131/9
f 21/137/9 18/129/9 34/128/9
f 21/137/9 34/128/9 37/138/9
f 32/136/9 3/131/9 30/139/9
f 38/26/9 32/136/9 30/139/9
f 24/25/9 21/137/9 37/138/9
f 24/25/9 37/138/9 33/140/9
f 38/26/9 30/139/9 27/24/9
f 24/25/9 33/140/9 38/26/9
f 27/27/10 30/29/10 28/28/10
f 30/29/11 3/1/11 1/3/11
f 25/32/12 28/141/12 1/142/12
f 1/142/12 4/143/12 7/30/12
f 7/30/12 10/144/12 13/145/12
f 13/145/12 16/146/12 19/31/12
f 19/31/12 22/147/12 25/32/12
f 25/32/12 1/142/12 7/30/12
f 7/30/12 13/145/12 19/31/12
f 2/33/6 5/37/6 31/34/6
f 8/36/7 40/148/7 31/34/7
f 11/38/8 35/42/8 40/39/8
f 14/41/10 39/44/10 35/42/10
f 17/43/11 34/46/11 39/44/11
f 20/45/1 37/149/1 34/46/1
f 20/47/2 23/50/2 33/48/2
f 23/50/3 26/52/3 38/51/3
f 26/52/4 29/150/4 32/53/4
f 29/54/5 2/33/5 36/35/5
f 29/58/9 26/151/9 23/152/9
f 23/152/9 20/153/9 17/56/9
f 17/56/9 14/154/9 11/155/9
f 11/155/9 8/156/9 5/57/9
f 5/57/9 2/157/9 29/58/9
f 29/58/9 23/152/9 17/56/9
f 17/56/9 11/155/9 5/57/9
f 45/59/13 46/158/13 42/60/13
f 42/62/14 46/159/14 47/63/14
f 47/63/15 48/160/15 44/65/15
f 48/66/16 45/59/16 41/61/16
f 45/68/17 49/79/17 50/69/17
f 46/70/18 50/69/18 51/71/18
f 47/73/19 51/82/19 52/74/19
f 52/76/20 49/84/20 45/77/20
f 49/79/21 53/161/21 54/80/21
f 54/80/22 55/89/22 51/71/22
f 55/81/23 56/162/23 52/74/23
f 56/83/24 53/163/24 49/84/24
f 53/85/25 57/96/25 58/86/25
f 58/88/26 59/98/26 55/89/26
f 55/90/27 59/100/27 60/91/27
f 60/93/28 57/96/28 53/85/28
f 61/95/14 62/164/14 58/86/14
f 58/88/13 62/102/13 63/97/13
f 63/99/16 64/165/16 60/91/16
f 60/93/15 64/166/15 61/95/15
f 65/101/18 66/104/18 62/102/18
f 66/104/17 67/113/17 63/97/17
f 63/105/20 67/115/20 68/106/20
f 68/108/19 65/117/19 61/109/19
f 69/111/22 70/112/22 66/104/22
f 70/112/21 71/167/21 67/113/21
f 71/114/24 72/168/24 68/106/24
f 72/116/23 69/169/23 65/117/23
f 69/118/26 41/61/26 42/60/26
f 42/62/25 43/64/25 71/120/25
f 43/64/28 44/65/28 72/122/28
f 44/67/27 41/61/27 69/118/27
