# Blender 5.2.0 LTS
# www.blender.org
o boccale_liquido
v 0.000000 0.000000 -0.040500
v 0.000000 0.006000 -0.040500
v 0.023805 0.000000 -0.032765
v 0.023805 0.006000 -0.032765
v 0.038518 0.000000 -0.012515
v 0.038518 0.006000 -0.012515
v 0.038518 0.000000 0.012515
v 0.038518 0.006000 0.012515
v 0.023805 0.000000 0.032765
v 0.023805 0.006000 0.032765
v 0.000000 0.000000 0.040500
v 0.000000 0.006000 0.040500
v -0.023805 0.000000 0.032765
v -0.023805 0.006000 0.032765
v -0.038518 0.000000 0.012515
v -0.038518 0.006000 0.012515
v -0.038518 0.000000 -0.012515
v -0.038518 0.006000 -0.012515
v -0.023805 0.000000 -0.032765
v -0.023805 0.006000 -0.032765
vn 0.3090 -0.0000 -0.9511
vn 0.8090 -0.0000 -0.5878
vn 1.0000 -0.0000 -0.0000
vn 0.8090 -0.0000 0.5878
vn 0.3090 -0.0000 0.9511
vn -0.3090 -0.0000 0.9511
vn -0.8090 -0.0000 0.5878
vn -1.0000 -0.0000 -0.0000
vn -0.0000 1.0000 -0.0000
vn -0.8090 -0.0000 -0.5878
vn -0.3090 -0.0000 -0.9511
vn -0.0000 -1.0000 -0.0000
vt 0.002947 0.658258
vt 0.041431 0.528375
vt 0.041431 0.658258
vt 0.091703 0.948687
vt 0.130187 0.818803
vt 0.130187 0.948687
vt 0.091703 0.818803
vt 0.130187 0.658258
vt 0.091703 0.658258
vt 0.130187 0.528375
vt 0.047325 0.948687
vt 0.085809 0.818803
vt 0.085809 0.948687
vt 0.047325 0.818803
vt 0.085809 0.658258
vt 0.047325 0.658258
vt 0.085809 0.528375
vt 0.136081 0.688920
vt 0.174565 0.528375
vt 0.174565 0.688920
vt 0.097313 0.052558
vt 0.497053 0.342986
vt 0.250000 0.522481
vt 0.002947 0.948687
vt 0.041431 0.818803
vt 0.041431 0.948687
vt 0.002947 0.818803
vt 0.750000 0.002947
vt 0.902687 0.472870
vt 0.597313 0.472870
vt 0.002947 0.528375
vt 0.091703 0.528375
vt 0.047325 0.528375
vt 0.136081 0.528375
vt 0.097313 0.472870
vt 0.002947 0.342986
vt 0.002947 0.182442
vt 0.250000 0.002947
vt 0.402687 0.052558
vt 0.497053 0.182441
vt 0.402687 0.472870
vt 0.502947 0.342986
vt 0.502947 0.182441
vt 0.597313 0.052558
vt 0.902687 0.052558
vt 0.997053 0.182441
vt 0.997053 0.342986
vt 0.750000 0.522481
s 0
f 2/1/1 3/2/1 1/3/1
f 4/4/2 5/5/2 3/6/2
f 6/7/3 7/8/3 5/5/3
f 8/9/4 9/10/4 7/8/4
f 10/11/5 11/12/5 9/13/5
f 12/14/6 13/15/6 11/12/6
f 14/16/7 15/17/7 13/15/7
f 16/18/8 17/19/8 15/20/8
f 18/21/9 10/22/9 6/23/9
f 18/24/10 19/25/10 17/26/10
f 20/27/11 1/3/11 19/25/11
f 7/28/12 15/29/12 19/30/12
f 2/1/1 4/31/1 3/2/1
f 4/4/2 6/7/2 5/5/2
f 6/7/3 8/9/3 7/8/3
f 8/9/4 10/32/4 9/10/4
f 10/11/5 12/14/5 11/12/5
f 12/14/6 14/16/6 13/15/6
f 14/16/7 16/33/7 15/17/7
f 16/18/8 18/34/8 17/19/8
f 6/23/9 4/35/9 2/36/9
f 2/36/9 20/37/9 18/21/9
f 18/21/9 16/38/9 14/39/9
f 14/39/9 12/40/9 10/22/9
f 10/22/9 8/41/9 6/23/9
f 6/23/9 2/36/9 18/21/9
f 18/21/9 14/39/9 10/22/9
f 18/24/10 20/27/10 19/25/10
f 20/27/11 2/1/11 1/3/11
f 19/30/12 1/42/12 3/43/12
f 3/43/12 5/44/12 7/28/12
f 7/28/12 9/45/12 11/46/12
f 11/46/12 13/47/12 15/29/12
f 15/29/12 17/48/12 19/30/12
f 19/30/12 3/43/12 7/28/12
f 7/28/12 11/46/12 15/29/12
