# Blender 5.2.0 LTS
# www.blender.org
o bottiglia_etichetta
v 0.000000 0.000000 -0.047800
v 0.000000 0.085000 -0.047800
v 0.033800 0.000000 -0.033800
v 0.033800 0.085000 -0.033800
v 0.047800 0.000000 0.000000
v 0.047800 0.085000 0.000000
v 0.033800 0.000000 0.033800
v 0.033800 0.085000 0.033800
v 0.000000 0.000000 0.047800
v 0.000000 0.085000 0.047800
v -0.033800 0.000000 0.033800
v -0.033800 0.085000 0.033800
v -0.047800 0.000000 0.000000
v -0.047800 0.085000 0.000000
v -0.033800 0.000000 -0.033800
v -0.033800 0.085000 -0.033800
vn 0.3827 -0.0000 -0.9239
vn 0.9239 -0.0000 -0.3827
vn 0.9239 -0.0000 0.3827
vn 0.3827 -0.0000 0.9239
vn -0.3827 -0.0000 0.9239
vn -0.9239 -0.0000 0.3827
vn -0.0000 1.0000 -0.0000
vn -0.9239 -0.0000 -0.3827
vn -0.3827 -0.0000 -0.9239
vn -0.0000 -1.0000 -0.0000
vt 0.416415 0.004278
vt 0.534622 0.392676
vt 0.416415 0.392676
vt 0.534622 0.004278
vt 0.701791 0.392676
vt 0.416415 0.401232
vt 0.534622 0.789631
vt 0.416415 0.789631
vt 0.534622 0.401232
vt 0.701791 0.789631
vt 0.710347 0.004278
vt 0.828553 0.392676
vt 0.710347 0.392676
vt 0.828553 0.004278
vt 0.995722 0.392676
vt 0.122484 0.004278
vt 0.407860 0.122484
vt 0.289653 0.407860
vt 0.710347 0.401232
vt 0.828553 0.789631
vt 0.710347 0.789631
vt 0.828553 0.401232
vt 0.995722 0.789631
vt 0.289653 0.416415
vt 0.407860 0.701791
vt 0.122484 0.819998
vt 0.701791 0.004278
vt 0.701791 0.401232
vt 0.995722 0.004278
vt 0.122484 0.407860
vt 0.004278 0.289653
vt 0.004278 0.122484
vt 0.289653 0.004278
vt 0.407860 0.289653
vt 0.995722 0.401232
vt 0.004278 0.701791
vt 0.004278 0.534622
vt 0.122484 0.416415
vt 0.407860 0.534622
vt 0.289653 0.819998
s 0
f 2/1/1 3/2/1 1/3/1
f 4/4/2 5/5/2 3/2/2
f 6/6/3 7/7/3 5/8/3
f 8/9/4 9/10/4 7/7/4
f 10/11/5 11/12/5 9/13/5
f 12/14/6 13/15/6 11/12/6
f 14/16/7 10/17/7 6/18/7
f 14/19/8 15/20/8 13/21/8
f 16/22/9 1/23/9 15/20/9
f 7/24/10 11/25/10 15/26/10
f 2/1/1 4/4/1 3/2/1
f 4/4/2 6/27/2 5/5/2
f 6/6/3 8/9/3 7/7/3
f 8/9/4 10/28/4 9/10/4
f 10/11/5 12/14/5 11/12/5
f 12/14/6 14/29/6 13/15/6
f 6/18/7 4/30/7 2/31/7
f 2/31/7 16/32/7 14/16/7
f 14/16/7 12/33/7 10/17/7
f 10/17/7 8/34/7 6/18/7
f 6/18/7 2/31/7 14/16/7
f 14/19/8 16/22/8 15/20/8
f 16/22/9 2/35/9 1/23/9
f 15/26/10 1/36/10 3/37/10
f 3/37/10 5/38/10 7/24/10
f 7/24/10 9/39/10 11/25/10
f 11/25/10 13/40/10 15/26/10
f 15/26/10 3/37/10 7/24/10
