# Blender 5.2.0 LTS
# www.blender.org
o botte
v 0.000000 0.000000 -0.280000
v 0.000000 0.620000 -0.280000
v 0.164580 0.000000 -0.226525
v 0.164580 0.620000 -0.226525
v 0.266296 0.000000 -0.086525
v 0.266296 0.620000 -0.086525
v 0.266296 0.000000 0.086525
v 0.266296 0.620000 0.086525
v 0.164580 0.000000 0.226525
v 0.164580 0.620000 0.226525
v 0.000000 0.000000 0.280000
v 0.000000 0.620000 0.280000
v -0.164580 0.000000 0.226525
v -0.164580 0.620000 0.226525
v -0.266296 0.000000 0.086525
v -0.266296 0.620000 0.086525
v -0.266296 0.000000 -0.086525
v -0.266296 0.620000 -0.086525
v -0.164580 0.000000 -0.226525
v -0.164580 0.620000 -0.226525
v 0.000000 0.105000 -0.300000
v 0.000000 0.155000 -0.300000
v 0.176336 0.105000 -0.242705
v 0.176336 0.155000 -0.242705
v 0.285317 0.105000 -0.092705
v 0.285317 0.155000 -0.092705
v 0.285317 0.105000 0.092705
v 0.285317 0.155000 0.092705
v 0.176336 0.105000 0.242705
v 0.176336 0.155000 0.242705
v 0.000000 0.105000 0.300000
v 0.000000 0.155000 0.300000
v -0.176336 0.105000 0.242705
v -0.176336 0.155000 0.242705
v -0.285317 0.105000 0.092705
v -0.285317 0.155000 0.092705
v -0.285317 0.105000 -0.092705
v -0.285317 0.155000 -0.092705
v -0.176336 0.105000 -0.242705
v -0.176336 0.155000 -0.242705
v 0.000000 0.465000 -0.300000
v 0.000000 0.515000 -0.300000
v 0.176336 0.465000 -0.242705
v 0.176336 0.515000 -0.242705
v 0.285317 0.465000 -0.092705
v 0.285317 0.515000 -0.092705
v 0.285317 0.465000 0.092705
v 0.285317 0.515000 0.092705
v 0.176336 0.465000 0.242705
v 0.176336 0.515000 0.242705
v 0.000000 0.465000 0.300000
v 0.000000 0.515000 0.300000
v -0.176336 0.465000 0.242705
v -0.176336 0.515000 0.242705
v -0.285317 0.465000 0.092705
v -0.285317 0.515000 0.092705
v -0.285317 0.465000 -0.092705
v -0.285317 0.515000 -0.092705
v -0.176336 0.465000 -0.242705
v -0.176336 0.515000 -0.242705
v 0.000000 0.610000 -0.260000
v 0.000000 0.640000 -0.260000
v 0.152824 0.610000 -0.210344
v 0.152824 0.640000 -0.210344
v 0.247275 0.610000 -0.080344
v 0.247275 0.640000 -0.080344
v 0.247275 0.610000 0.080344
v 0.247275 0.640000 0.080344
v 0.152824 0.610000 0.210344
v 0.152824 0.640000 0.210344
v 0.000000 0.610000 0.260000
v 0.000000 0.640000 0.260000
v -0.152824 0.610000 0.210344
v -0.152824 0.640000 0.210344
v -0.247275 0.610000 0.080344
v -0.247275 0.640000 0.080344
v -0.247275 0.610000 -0.080344
v -0.247275 0.640000 -0.080344
v -0.152824 0.610000 -0.210344
v -0.152824 0.640000 -0.210344
vn 0.3090 -0.0000 -0.9511
vn 0.8090 -0.0000 -0.5878
vn 1.0000 -0.0000 -0.0000
vn 0.8090 -0.0000 0.5878
vn 0.3090 -0.0000 0.9511
vn -0.3090 -0.0000 0.9511
vn -0.8090 -0.0000 0.5878
vn -1.0000 -0.0000 -0.0000
vn -0.0000 1.0000 -0.0000
vn -0.8090 -0.0000 -0.5878
vn -0.3090 -0.0000 -0.9511
vn -0.0000 -1.0000 -0.0000
vt 0.592758 0.539913
vt 0.668168 0.810091
vt 0.592758 0.810091
vt 0.668168 0.539913
vt 0.729176 0.810091
vt 0.429270 0.557344
vt 0.504680 0.827522
vt 0.429270 0.827522
vt 0.006884 0.557344
vt 0.067892 0.827522
vt 0.006884 0.827522
vt 0.067892 0.557344
vt 0.143302 0.827522
vt 0.143302 0.557344
vt 0.204310 0.827522
vt 0.218077 0.557344
vt 0.279085 0.827522
vt 0.218077 0.827522
vt 0.279085 0.557344
vt 0.354495 0.827522
vt 0.531750 0.091195
vt 0.763838 0.091195
vt 0.719514 0.227613
vt 0.354495 0.557344
vt 0.415503 0.827522
vt 0.531750 0.539913
vt 0.531750 0.810091
vt 0.576075 0.305417
vt 0.763838 0.441835
vt 0.647794 0.526146
vt 0.777606 0.393414
vt 0.799394 0.312618
vt 0.799394 0.393414
vt 0.777606 0.312618
vt 0.799394 0.247252
vt 0.823465 0.861078
vt 0.845254 0.780282
vt 0.845254 0.861078
vt 0.813162 0.458780
vt 0.834950 0.393414
vt 0.834950 0.458780
vt 0.813162 0.393414
vt 0.834950 0.312618
vt 0.813162 0.312618
vt 0.834950 0.247252
vt 0.919830 0.458780
vt 0.941618 0.393414
vt 0.941618 0.458780
vt 0.919830 0.393414
vt 0.941618 0.312618
vt 0.054375 0.031851
vt 0.255550 0.178013
vt 0.131217 0.268346
vt 0.919830 0.312618
vt 0.941618 0.247252
vt 0.777606 0.458780
vt 0.799394 0.458780
vt 0.393650 0.006884
vt 0.470492 0.243379
vt 0.316808 0.243379
vt 0.848718 0.393414
vt 0.870506 0.312618
vt 0.870506 0.393414
vt 0.848718 0.312618
vt 0.870506 0.247252
vt 0.859021 0.861078
vt 0.880810 0.780282
vt 0.880810 0.861078
vt 0.884274 0.458780
vt 0.906062 0.393414
vt 0.906062 0.458780
vt 0.884274 0.393414
vt 0.906062 0.312618
vt 0.884274 0.312618
vt 0.906062 0.247252
vt 0.955386 0.458780
vt 0.977174 0.393414
vt 0.977174 0.458780
vt 0.955386 0.393414
vt 0.977174 0.312618
vt 0.054375 0.307081
vt 0.255550 0.453244
vt 0.131217 0.543577
vt 0.955386 0.312618
vt 0.977174 0.247252
vt 0.848718 0.458780
vt 0.870506 0.458780
vt 0.393650 0.282114
vt 0.470492 0.518609
vt 0.316808 0.518609
vt 0.769784 0.906956
vt 0.782857 0.836932
vt 0.782857 0.906956
vt 0.769784 0.836932
vt 0.782857 0.780282
vt 0.531750 0.893882
vt 0.544823 0.823859
vt 0.544823 0.893882
vt 0.796625 0.963606
vt 0.809698 0.906956
vt 0.809698 0.963606
vt 0.796625 0.906956
vt 0.809698 0.836932
vt 0.796625 0.836932
vt 0.809698 0.780282
vt 0.742944 0.963606
vt 0.756017 0.906956
vt 0.756017 0.963606
vt 0.742944 0.906956
vt 0.756017 0.836932
vt 0.784102 0.561552
vt 0.958454 0.688226
vt 0.850699 0.766514
vt 0.742944 0.836932
vt 0.756017 0.780282
vt 0.769784 0.963606
vt 0.782857 0.963606
vt 0.885361 0.006884
vt 0.951957 0.211846
vt 0.818765 0.211846
vt 0.729176 0.539913
vt 0.504680 0.557344
vt 0.204310 0.557344
vt 0.647794 0.250916
vt 0.576075 0.227613
vt 0.531750 0.166605
vt 0.576075 0.030187
vt 0.647794 0.006884
vt 0.719514 0.030187
vt 0.763838 0.166605
vt 0.415503 0.557344
vt 0.576075 0.502843
vt 0.531750 0.441835
vt 0.531750 0.366425
vt 0.647794 0.282114
vt 0.719514 0.305417
vt 0.763838 0.366425
vt 0.719514 0.502843
vt 0.777606 0.247252
vt 0.823465 0.780282
vt 0.813162 0.247252
vt 0.054375 0.243379
vt 0.006884 0.178013
vt 0.006884 0.097217
vt 0.131217 0.006884
vt 0.208059 0.031851
vt 0.255550 0.097217
vt 0.208059 0.243379
vt 0.919830 0.247252
vt 0.269317 0.178013
vt 0.269317 0.097217
vt 0.316808 0.031851
vt 0.470492 0.031851
vt 0.517983 0.097217
vt 0.517983 0.178013
vt 0.393650 0.268346
vt 0.848718 0.247252
vt 0.859021 0.780282
vt 0.884274 0.247252
vt 0.054375 0.518609
vt 0.006884 0.453244
vt 0.006884 0.372447
vt 0.131217 0.282114
vt 0.208059 0.307081
vt 0.255550 0.372447
vt 0.208059 0.518609
vt 0.955386 0.247252
vt 0.269317 0.453244
vt 0.269317 0.372447
vt 0.316808 0.307081
vt 0.470492 0.307081
vt 0.517983 0.372447
vt 0.517983 0.453244
vt 0.393650 0.543577
vt 0.769784 0.780282
vt 0.531750 0.823859
vt 0.796625 0.780282
vt 0.784102 0.744876
vt 0.742944 0.688226
vt 0.742944 0.618202
vt 0.850699 0.539913
vt 0.917295 0.561552
vt 0.958454 0.618202
vt 0.917295 0.744876
vt 0.742944 0.780282
vt 0.777606 0.155196
vt 0.777606 0.085172
vt 0.818765 0.028522
vt 0.951957 0.028522
vt 0.993116 0.085172
vt 0.993116 0.155196
vt 0.885361 0.233485
s 0
f 2/1/1 3/2/1 1/3/1
f 4/4/2 5/5/2 3/2/2
f 6/6/3 7/7/3 5/8/3
f 8/9/4 9/10/4 7/11/4
f 10/12/5 11/13/5 9/10/5
f 12/14/6 13/15/6 11/13/6
f 14/16/7 15/17/7 13/18/7
f 16/19/8 17/20/8 15/17/8
f 18/21/9 10/22/9 6/23/9
f 18/24/10 19/25/10 17/20/10
f 20/26/11 1/3/11 19/27/11
f 7/28/12 15/29/12 19/30/12
f 22/31/1 23/32/1 21/33/1
f 24/34/2 25/35/2 23/32/2
f 26/36/3 27/37/3 25/38/3
f 28/39/4 29/40/4 27/41/4
f 30/42/5 31/43/5 29/40/5
f 32/44/6 33/45/6 31/43/6
f 34/46/7 35/47/7 33/48/7
f 36/49/8 37/50/8 35/47/8
f 38/51/9 30/52/9 26/53/9
f 38/54/10 39/55/10 37/50/10
f 40/56/11 21/33/11 39/57/11
f 27/58/12 35/59/12 39/60/12
f 42/61/1 43/62/1 41/63/1
f 44/64/2 45/65/2 43/62/2
f 46/66/3 47/67/3 45/68/3
f 48/69/4 49/70/4 47/71/4
f 50/72/5 51/73/5 49/70/5
f 52/74/6 53/75/6 51/73/6
f 54/76/7 55/77/7 53/78/7
f 56/79/8 57/80/8 55/77/8
f 58/81/9 50/82/9 46/83/9
f 58/84/10 59/85/10 57/80/10
f 60/86/11 41/63/11 59/87/11
f 47/88/12 55/89/12 59/90/12
f 62/91/1 63/92/1 61/93/1
f 64/94/2 65/95/2 63/92/2
f 66/96/3 67/97/3 65/98/3
f 68/99/4 69/100/4 67/101/4
f 70/102/5 71/103/5 69/100/5
f 72/104/6 73/105/6 71/103/6
f 74/106/7 75/107/7 73/108/7
f 76/109/8 77/110/8 75/107/8
f 78/111/9 70/112/9 66/113/9
f 78/114/10 79/115/10 77/110/10
f 80/116/11 61/93/11 79/117/11
f 67/118/12 75/119/12 79/120/12
f 2/1/1 4/4/1 3/2/1
f 4/4/2 6/121/2 5/5/2
f 6/6/3 8/122/3 7/7/3
f 8/9/4 10/12/4 9/10/4
f 10/12/5 12/14/5 11/13/5
f 12/14/6 14/123/6 13/15/6
f 14/16/7 16/19/7 15/17/7
f 16/19/8 18/24/8 17/20/8
f 6/23/9 4/124/9 2/125/9
f 2/125/9 20/126/9 18/21/9
f 18/21/9 16/127/9 14/128/9
f 14/128/9 12/129/9 10/22/9
f 10/22/9 8/130/9 6/23/9
f 6/23/9 2/125/9 18/21/9
f 18/21/9 14/128/9 10/22/9
f 18/24/10 20/131/10 19/25/10
f 20/26/11 2/1/11 1/3/11
f 19/30/12 1/132/12 3/133/12
f 3/133/12 5/134/12 7/28/12
f 7/28/12 9/135/12 11/136/12
f 11/136/12 13/137/12 15/29/12
f 15/29/12 17/138/12 19/30/12
f 19/30/12 3/133/12 7/28/12
f 7/28/12 11/136/12 15/29/12
f 22/31/1 24/34/1 23/32/1
f 24/34/2 26/139/2 25/35/2
f 26/36/3 28/140/3 27/37/3
f 28/39/4 30/42/4 29/40/4
f 30/42/5 32/44/5 31/43/5
f 32/44/6 34/141/6 33/45/6
f 34/46/7 36/49/7 35/47/7
f 36/49/8 38/54/8 37/50/8
f 26/53/9 24/142/9 22/143/9
f 22/143/9 40/144/9 38/51/9
f 38/51/9 36/145/9 34/146/9
f 34/146/9 32/147/9 30/52/9
f 30/52/9 28/148/9 26/53/9
f 26/53/9 22/143/9 38/51/9
f 38/51/9 34/146/9 30/52/9
f 38/54/10 40/149/10 39/55/10
f 40/56/11 22/31/11 21/33/11
f 39/60/12 21/150/12 23/151/12
f 23/151/12 25/152/12 27/58/12
f 27/58/12 29/153/12 31/154/12
f 31/154/12 33/155/12 35/59/12
f 35/59/12 37/156/12 39/60/12
f 39/60/12 23/151/12 27/58/12
f 27/58/12 31/154/12 35/59/12
f 42/61/1 44/64/1 43/62/1
f 44/64/2 46/157/2 45/65/2
f 46/66/3 48/158/3 47/67/3
f 48/69/4 50/72/4 49/70/4
f 50/72/5 52/74/5 51/73/5
f 52/74/6 54/159/6 53/75/6
f 54/76/7 56/79/7 55/77/7
f 56/79/8 58/84/8 57/80/8
f 46/83/9 44/160/9 42/161/9
f 42/161/9 60/162/9 58/81/9
f 58/81/9 56/163/9 54/164/9
f 54/164/9 52/165/9 50/82/9
f 50/82/9 48/166/9 46/83/9
f 46/83/9 42/161/9 58/81/9
f 58/81/9 54/164/9 50/82/9
f 58/84/10 60/167/10 59/85/10
f 60/86/11 42/61/11 41/63/11
f 59/90/12 41/168/12 43/169/12
f 43/169/12 45/170/12 47/88/12
f 47/88/12 49/171/12 51/172/12
f 51/172/12 53/173/12 55/89/12
f 55/89/12 57/174/12 59/90/12
f 59/90/12 43/169/12 47/88/12
f 47/88/12 51/172/12 55/89/12
f 62/91/1 64/94/1 63/92/1
f 64/94/2 66/175/2 65/95/2
f 66/96/3 68/176/3 67/97/3
f 68/99/4 70/102/4 69/100/4
f 70/102/5 72/104/5 71/103/5
f 72/104/6 74/177/6 73/105/6
f 74/106/7 76/109/7 75/107/7
f 76/109/8 78/114/8 77/110/8
f 66/113/9 64/178/9 62/179/9
f 62/179/9 80/180/9 78/111/9
f 78/111/9 76/181/9 74/182/9
f 74/182/9 72/183/9 70/112/9
f 70/112/9 68/184/9 66/113/9
f 66/113/9 62/179/9 78/111/9
f 78/111/9 74/182/9 70/112/9
f 78/114/10 80/185/10 79/115/10
f 80/116/11 62/91/11 61/93/11
f 79/120/12 61/186/12 63/187/12
f 63/187/12 65/188/12 67/118/12
f 67/118/12 69/189/12 71/190/12
f 71/190/12 73/191/12 75/119/12
f 75/119/12 77/192/12 79/120/12
f 79/120/12 63/187/12 67/118/12
f 67/118/12 71/190/12 75/119/12
