# Blender 5.2.0 LTS
# www.blender.org
o bottiglia
v 0.000000 0.000000 -0.045000
v 0.000000 0.200000 -0.045000
v 0.031820 0.000000 -0.031820
v 0.031820 0.200000 -0.031820
v 0.045000 0.000000 0.000000
v 0.045000 0.200000 0.000000
v 0.031820 0.000000 0.031820
v 0.031820 0.200000 0.031820
v 0.000000 0.000000 0.045000
v 0.000000 0.200000 0.045000
v -0.031820 0.000000 0.031820
v -0.031820 0.200000 0.031820
v -0.045000 0.000000 0.000000
v -0.045000 0.200000 0.000000
v -0.031820 0.000000 -0.031820
v -0.031820 0.200000 -0.031820
v 0.000000 0.200000 -0.045000
v 0.000000 0.270000 -0.018000
v 0.031820 0.200000 -0.031820
v 0.012728 0.270000 -0.012728
v 0.045000 0.200000 0.000000
v 0.018000 0.270000 0.000000
v 0.031820 0.200000 0.031820
v 0.012728 0.270000 0.012728
v 0.000000 0.200000 0.045000
v 0.000000 0.270000 0.018000
v -0.031820 0.200000 0.031820
v -0.012728 0.270000 0.012728
v -0.045000 0.200000 0.000000
v -0.018000 0.270000 0.000000
v -0.031820 0.200000 -0.031820
v -0.012728 0.270000 -0.012728
v 0.000000 0.270000 -0.018000
v 0.000000 0.370000 -0.018000
v 0.012728 0.270000 -0.012728
v 0.012728 0.370000 -0.012728
v 0.018000 0.270000 0.000000
v 0.018000 0.370000 0.000000
v 0.012728 0.270000 0.012728
v 0.012728 0.370000 0.012728
v 0.000000 0.270000 0.018000
v 0.000000 0.370000 0.018000
v -0.012728 0.270000 0.012728
v -0.012728 0.370000 0.012728
v -0.018000 0.270000 0.000000
v -0.018000 0.370000 0.000000
v -0.012728 0.270000 -0.012728
v -0.012728 0.370000 -0.012728
v 0.000000 0.370000 -0.022000
v 0.000000 0.400000 -0.022000
v 0.015556 0.370000 -0.015556
v 0.015556 0.400000 -0.015556
v 0.022000 0.370000 0.000000
v 0.022000 0.400000 0.000000
v 0.015556 0.370000 0.015556
v 0.015556 0.400000 0.015556
v 0.000000 0.370000 0.022000
v 0.000000 0.400000 0.022000
v -0.015556 0.370000 0.015556
v -0.015556 0.400000 0.015556
v -0.022000 0.370000 0.000000
v -0.022000 0.400000 0.000000
v -0.015556 0.370000 -0.015556
v -0.015556 0.400000 -0.015556
vn 0.3827 -0.0000 -0.9239
vn 0.9239 -0.0000 -0.3827
vn 0.9239 -0.0000 0.3827
vn 0.3827 -0.0000 0.9239
vn -0.3827 -0.0000 0.9239
vn -0.9239 -0.0000 0.3827
vn -0.0000 1.0000 -0.0000
vn -0.9239 -0.0000 -0.3827
vn -0.3827 -0.0000 -0.9239
vn -0.0000 -1.0000 -0.0000
vn 0.3605 0.3357 -0.8703
vn 0.8703 0.3357 -0.3605
vn 0.8703 0.3357 0.3605
vn 0.3605 0.3357 0.8703
vn -0.3605 0.3357 0.8703
vn -0.8703 0.3357 0.3605
vn -0.8703 0.3357 -0.3605
vn -0.3605 0.3357 -0.8703
vt 0.007148 0.012285
vt 0.092778 0.507746
vt 0.007148 0.507746
vt 0.092778 0.012285
vt 0.153329 0.502608
vt 0.167624 0.012285
vt 0.253255 0.507746
vt 0.167624 0.507746
vt 0.253255 0.012285
vt 0.313805 0.502608
vt 0.328100 0.012285
vt 0.413731 0.507746
vt 0.328100 0.507746
vt 0.413731 0.012285
vt 0.474281 0.502608
vt 0.067698 0.522041
vt 0.213879 0.582591
vt 0.153329 0.728772
vt 0.488576 0.012285
vt 0.574207 0.507746
vt 0.488576 0.507746
vt 0.574207 0.012285
vt 0.634757 0.502608
vt 0.634757 0.522041
vt 0.695307 0.668222
vt 0.549126 0.728772
vt 0.674742 0.009203
vt 0.734683 0.187876
vt 0.649053 0.187876
vt 0.733214 0.007148
vt 0.795234 0.182738
vt 0.674742 0.204226
vt 0.734683 0.382900
vt 0.649053 0.382900
vt 0.733214 0.202171
vt 0.795234 0.377762
vt 0.735292 0.524096
vt 0.795234 0.702769
vt 0.709603 0.702769
vt 0.793764 0.522041
vt 0.855784 0.697632
vt 0.310625 0.743067
vt 0.369098 0.767287
vt 0.344877 0.825760
vt 0.735292 0.719119
vt 0.795234 0.897793
vt 0.709603 0.897793
vt 0.793764 0.717064
vt 0.855784 0.892655
vt 0.413731 0.522041
vt 0.474281 0.668222
vt 0.328100 0.728772
vt 0.809529 0.009203
vt 0.843781 0.256933
vt 0.809529 0.256933
vt 0.843781 0.009203
vt 0.868001 0.254878
vt 0.870079 0.524096
vt 0.904331 0.771826
vt 0.870079 0.771826
vt 0.904331 0.524096
vt 0.928551 0.769771
vt 0.882297 0.009203
vt 0.916549 0.256933
vt 0.882297 0.256933
vt 0.916549 0.009203
vt 0.940769 0.254878
vt 0.407613 0.743067
vt 0.466085 0.767287
vt 0.441865 0.825760
vt 0.007148 0.745122
vt 0.041400 0.992852
vt 0.007148 0.992852
vt 0.041400 0.745122
vt 0.065620 0.990797
vt 0.538853 0.743067
vt 0.563073 0.801540
vt 0.504601 0.825760
vt 0.766928 0.468661
vt 0.841247 0.426797
vt 0.841247 0.468661
vt 0.766928 0.426797
vt 0.838735 0.397195
vt 0.577368 0.743067
vt 0.619232 0.817386
vt 0.577368 0.817386
vt 0.195279 0.844136
vt 0.272110 0.814533
vt 0.269598 0.844136
vt 0.197791 0.814533
vt 0.272110 0.772669
vt 0.197791 0.772669
vt 0.269598 0.743067
vt 0.678655 0.397195
vt 0.750121 0.426797
vt 0.720519 0.498263
vt 0.633528 0.743067
vt 0.675392 0.817386
vt 0.633528 0.817386
vt 0.764416 0.498263
vt 0.838735 0.498263
vt 0.151382 0.743067
vt 0.180984 0.814533
vt 0.109518 0.844136
vt 0.153329 0.007148
vt 0.313805 0.007148
vt 0.474281 0.007148
vt 0.067698 0.728772
vt 0.007148 0.668222
vt 0.007148 0.582591
vt 0.153329 0.522041
vt 0.213879 0.668222
vt 0.634757 0.007148
vt 0.488576 0.668222
vt 0.488576 0.582591
vt 0.549126 0.522041
vt 0.695307 0.582591
vt 0.634757 0.728772
vt 0.708994 0.009203
vt 0.708994 0.204226
vt 0.769544 0.524096
vt 0.310625 0.825760
vt 0.286405 0.801540
vt 0.286405 0.767287
vt 0.344877 0.743067
vt 0.369098 0.801540
vt 0.769544 0.719119
vt 0.267550 0.668222
vt 0.267550 0.582591
vt 0.328100 0.522041
vt 0.474281 0.582591
vt 0.413731 0.728772
vt 0.868001 0.007148
vt 0.928551 0.522041
vt 0.940769 0.007148
vt 0.407613 0.825760
vt 0.383393 0.801540
vt 0.383393 0.767287
vt 0.441865 0.743067
vt 0.466085 0.801540
vt 0.065620 0.743067
vt 0.480381 0.801540
vt 0.480381 0.767287
vt 0.504601 0.743067
vt 0.563073 0.767287
vt 0.538853 0.825760
vt 0.764416 0.397195
vt 0.619232 0.743067
vt 0.195279 0.743067
vt 0.678655 0.498263
vt 0.649053 0.468661
vt 0.649053 0.426797
vt 0.720519 0.397195
vt 0.750121 0.468661
vt 0.675392 0.743067
vt 0.079915 0.814533
vt 0.079915 0.772669
vt 0.109518 0.743067
vt 0.180984 0.772669
vt 0.151382 0.844136
s 0
f 2/1/1 3/2/1 1/3/1
f 4/4/2 5/5/2 3/2/2
f 6/6/3 7/7/3 5/8/3
f 8/9/4 9/10/4 7/7/4
f 10/11/5 11/12/5 9/13/5
f 12/14/6 13/15/6 11/12/6
f 14/16/7 10/17/7 6/18/7
f 14/19/8 15/20/8 13/21/8
f 16/22/9 1/23/9 15/20/9
f 7/24/10 11/25/10 15/26/10
f 18/27/11 19/28/11 17/29/11
f 19/28/12 22/30/12 21/31/12
f 22/32/13 23/33/13 21/34/13
f 23/33/14 26/35/14 25/36/14
f 26/37/15 27/38/15 25/39/15
f 27/38/16 30/40/16 29/41/16
f 30/42/7 26/43/7 22/44/7
f 30/45/17 31/46/17 29/47/17
f 31/46/18 18/48/18 17/49/18
f 23/50/10 27/51/10 31/52/10
f 34/53/1 35/54/1 33/55/1
f 36/56/2 37/57/2 35/54/2
f 38/58/3 39/59/3 37/60/3
f 40/61/4 41/62/4 39/59/4
f 42/63/5 43/64/5 41/65/5
f 44/66/6 45/67/6 43/64/6
f 46/68/7 42/69/7 38/70/7
f 46/71/8 47/72/8 45/73/8
f 48/74/9 33/75/9 47/72/9
f 39/76/10 43/77/10 47/78/10
f 50/79/1 51/80/1 49/81/1
f 52/82/2 53/83/2 51/80/2
f 54/84/3 55/85/3 53/86/3
f 56/87/4 57/88/4 55/89/4
f 58/90/5 59/91/5 57/88/5
f 60/92/6 61/93/6 59/91/6
f 62/94/7 58/95/7 54/96/7
f 62/97/8 63/98/8 61/99/8
f 64/100/9 49/81/9 63/101/9
f 55/102/10 59/103/10 63/104/10
f 2/1/1 4/4/1 3/2/1
f 4/4/2 6/105/2 5/5/2
f 6/6/3 8/9/3 7/7/3
f 8/9/4 10/106/4 9/10/4
f 10/11/5 12/14/5 11/12/5
f 12/14/6 14/107/6 13/15/6
f 6/18/7 4/108/7 2/109/7
f 2/109/7 16/110/7 14/16/7
f 14/16/7 12/111/7 10/17/7
f 10/17/7 8/112/7 6/18/7
f 6/18/7 2/109/7 14/16/7
f 14/19/8 16/22/8 15/20/8
f 16/22/9 2/113/9 1/23/9
f 15/26/10 1/114/10 3/115/10
f 3/115/10 5/116/10 7/24/10
f 7/24/10 9/117/10 11/25/10
f 11/25/10 13/118/10 15/26/10
f 15/26/10 3/115/10 7/24/10
f 18/27/11 20/119/11 19/28/11
f 19/28/12 20/119/12 22/30/12
f 22/32/13 24/120/13 23/33/13
f 23/33/14 24/120/14 26/35/14
f 26/37/15 28/121/15 27/38/15
f 27/38/16 28/121/16 30/40/16
f 22/44/7 20/122/7 18/123/7
f 18/123/7 32/124/7 30/42/7
f 30/42/7 28/125/7 26/43/7
f 26/43/7 24/126/7 22/44/7
f 22/44/7 18/123/7 30/42/7
f 30/45/17 32/127/17 31/46/17
f 31/46/18 32/127/18 18/48/18
f 31/52/10 17/128/10 19/129/10
f 19/129/10 21/130/10 23/50/10
f 23/50/10 25/131/10 27/51/10
f 27/51/10 29/132/10 31/52/10
f 31/52/10 19/129/10 23/50/10
f 34/53/1 36/56/1 35/54/1
f 36/56/2 38/133/2 37/57/2
f 38/58/3 40/61/3 39/59/3
f 40/61/4 42/134/4 41/62/4
f 42/63/5 44/66/5 43/64/5
f 44/66/6 46/135/6 45/67/6
f 38/70/7 36/136/7 34/137/7
f 34/137/7 48/138/7 46/68/7
f 46/68/7 44/139/7 42/69/7
f 42/69/7 40/140/7 38/70/7
f 38/70/7 34/137/7 46/68/7
f 46/71/8 48/74/8 47/72/8
f 48/74/9 34/141/9 33/75/9
f 47/78/10 33/142/10 35/143/10
f 35/143/10 37/144/10 39/76/10
f 39/76/10 41/145/10 43/77/10
f 43/77/10 45/146/10 47/78/10
f 47/78/10 35/143/10 39/76/10
f 50/79/1 52/82/1 51/80/1
f 52/82/2 54/147/2 53/83/2
f 54/84/3 56/148/3 55/85/3
f 56/87/4 58/90/4 57/88/4
f 58/90/5 60/92/5 59/91/5
f 60/92/6 62/149/6 61/93/6
f 54/96/7 52/150/7 50/151/7
f 50/151/7 64/152/7 62/94/7
f 62/94/7 60/153/7 58/95/7
f 58/95/7 56/154/7 54/96/7
f 54/96/7 50/151/7 62/94/7
f 62/97/8 64/155/8 63/98/8
f 64/100/9 50/79/9 49/81/9
f 63/104/10 49/156/10 51/157/10
f 51/157/10 53/158/10 55/102/10
f 55/102/10 57/159/10 59/103/10
f 59/103/10 61/160/10 63/104/10
f 63/104/10 51/157/10 55/102/10
