# Blender 5.2.0 LTS
# www.blender.org
o brocca
v 0.000000 0.000000 -0.090000
v 0.000000 0.200000 -0.090000
v 0.063640 0.000000 -0.063640
v 0.063640 0.200000 -0.063640
v 0.090000 0.000000 0.000000
v 0.090000 0.200000 0.000000
v 0.063640 0.000000 0.063640
v 0.063640 0.200000 0.063640
v 0.000000 0.000000 0.090000
v 0.000000 0.200000 0.090000
v -0.063640 0.000000 0.063640
v -0.063640 0.200000 0.063640
v -0.090000 0.000000 0.000000
v -0.090000 0.200000 0.000000
v -0.063640 0.000000 -0.063640
v -0.063640 0.200000 -0.063640
v 0.000000 0.200000 -0.055000
v 0.000000 0.270000 -0.055000
v 0.038891 0.200000 -0.038891
v 0.038891 0.270000 -0.038891
v 0.055000 0.200000 0.000000
v 0.055000 0.270000 0.000000
v 0.038891 0.200000 0.038891
v 0.038891 0.270000 0.038891
v 0.000000 0.200000 0.055000
v 0.000000 0.270000 0.055000
v -0.038891 0.200000 0.038891
v -0.038891 0.270000 0.038891
v -0.055000 0.200000 0.000000
v -0.055000 0.270000 0.000000
v -0.038891 0.200000 -0.038891
v -0.038891 0.270000 -0.038891
v 0.000000 0.267500 -0.065000
v 0.000000 0.282500 -0.065000
v 0.045962 0.267500 -0.045962
v 0.045962 0.282500 -0.045962
v 0.065000 0.267500 0.000000
v 0.065000 0.282500 0.000000
v 0.045962 0.267500 0.045962
v 0.045962 0.282500 0.045962
v 0.000000 0.267500 0.065000
v 0.000000 0.282500 0.065000
v -0.045962 0.267500 0.045962
v -0.045962 0.282500 0.045962
v -0.065000 0.267500 0.000000
v -0.065000 0.282500 0.000000
v -0.045962 0.267500 -0.045962
v -0.045962 0.282500 -0.045962
v 0.105000 0.073000 0.000000
v 0.117000 0.085000 0.000000
v 0.105000 0.097000 0.000000
v 0.093000 0.085000 0.000000
v 0.105000 0.092624 -0.047376
v 0.117000 0.101109 -0.038891
v 0.105000 0.109594 -0.030406
v 0.093000 0.101109 -0.038891
v 0.105000 0.140000 -0.067000
v 0.117000 0.140000 -0.055000
v 0.105000 0.140000 -0.043000
v 0.093000 0.140000 -0.055000
v 0.105000 0.187376 -0.047376
v 0.117000 0.178891 -0.038891
v 0.105000 0.170406 -0.030406
v 0.093000 0.178891 -0.038891
v 0.105000 0.207000 -0.000000
v 0.117000 0.195000 -0.000000
v 0.105000 0.183000 -0.000000
v 0.093000 0.195000 -0.000000
v 0.105000 0.187376 0.047376
v 0.117000 0.178891 0.038891
v 0.105000 0.170406 0.030406
v 0.093000 0.178891 0.038891
v 0.105000 0.140000 0.067000
v 0.117000 0.140000 0.055000
v 0.105000 0.140000 0.043000
v 0.093000 0.140000 0.055000
v 0.105000 0.092624 0.047376
v 0.117000 0.101109 0.038891
v 0.105000 0.109594 0.030406
v 0.093000 0.101109 0.038891
vn 0.3827 -0.0000 -0.9239
vn 0.9239 -0.0000 -0.3827
vn 0.9239 -0.0000 0.3827
vn 0.3827 -0.0000 0.9239
vn -0.3827 -0.0000 0.9239
vn -0.9239 -0.0000 0.3827
vn -0.0000 1.0000 -0.0000
vn -0.9239 -0.0000 -0.3827
vn -0.3827 -0.0000 -0.9239
vn -0.0000 -1.0000 -0.0000
vn 0.6786 -0.6786 -0.2811
vn 0.6786 0.6786 0.2811
vn -0.6786 0.6786 0.2811
vn -0.6786 -0.6786 -0.2811
vn 0.6786 -0.2811 -0.6786
vn 0.6786 0.2811 0.6786
vn -0.6786 0.2811 0.6786
vn -0.6786 -0.2811 -0.6786
vn 0.6786 0.2811 -0.6786
vn 0.6786 -0.2811 0.6786
vn -0.6786 -0.2811 0.6786
vn -0.6786 0.2811 -0.6786
vn 0.6786 0.6786 -0.2811
vn 0.6786 -0.6786 0.2811
vn -0.6786 -0.6786 0.2811
vn -0.6786 0.6786 -0.2811
vt 0.290559 0.344482
vt 0.398098 0.664482
vt 0.290559 0.664482
vt 0.398098 0.344482
vt 0.491202 0.664482
vt 0.507524 0.344482
vt 0.615062 0.664482
vt 0.507524 0.664482
vt 0.615062 0.344482
vt 0.708167 0.664482
vt 0.507524 0.008161
vt 0.615062 0.328160
vt 0.507524 0.328160
vt 0.615062 0.008161
vt 0.708167 0.328160
vt 0.086093 0.008161
vt 0.274238 0.086093
vt 0.196306 0.274238
vt 0.290559 0.008161
vt 0.398098 0.328160
vt 0.290559 0.328160
vt 0.398098 0.008161
vt 0.491202 0.328160
vt 0.196306 0.290559
vt 0.274238 0.478704
vt 0.086093 0.556636
vt 0.008161 0.904061
vt 0.120161 0.838343
vt 0.120161 0.904061
vt 0.008161 0.838343
vt 0.120161 0.781446
vt 0.136482 0.904061
vt 0.248482 0.838343
vt 0.248482 0.904061
vt 0.136482 0.838343
vt 0.248482 0.781446
vt 0.839518 0.130776
vt 0.951518 0.065058
vt 0.951518 0.130776
vt 0.839518 0.065058
vt 0.951518 0.008161
vt 0.546673 0.680803
vt 0.661650 0.728428
vt 0.614025 0.843406
vt 0.839518 0.361497
vt 0.951518 0.295779
vt 0.951518 0.361497
vt 0.839518 0.295779
vt 0.951518 0.238882
vt 0.792949 0.680803
vt 0.840574 0.795781
vt 0.725597 0.843406
vt 0.923148 0.614512
vt 0.947148 0.536846
vt 0.947148 0.614512
vt 0.923148 0.536846
vt 0.947148 0.469604
vt 0.967839 0.314300
vt 0.991839 0.236633
vt 0.991839 0.314300
vt 0.967839 0.236633
vt 0.991839 0.169391
vt 0.963470 0.614512
vt 0.987470 0.536846
vt 0.987470 0.614512
vt 0.963470 0.536846
vt 0.987470 0.469604
vt 0.064445 0.572958
vt 0.200327 0.629242
vt 0.144043 0.765125
vt 0.967839 0.153070
vt 0.991839 0.075403
vt 0.991839 0.153070
vt 0.967839 0.075403
vt 0.991839 0.008161
vt 0.426442 0.680803
vt 0.482726 0.816686
vt 0.346844 0.872970
vt 0.518248 0.935529
vt 0.499048 0.859728
vt 0.518248 0.859728
vt 0.844894 0.619829
vt 0.906827 0.626403
vt 0.895774 0.645603
vt 0.894239 0.195746
vt 0.875039 0.147098
vt 0.894239 0.147098
vt 0.775369 0.177586
vt 0.735542 0.222561
vt 0.724489 0.203361
vt 0.232647 0.648760
vt 0.274238 0.710985
vt 0.250723 0.724561
vt 0.850571 0.557603
vt 0.867048 0.606252
vt 0.926409 0.743029
vt 0.938323 0.805254
vt 0.914808 0.791677
vt 0.796444 0.115361
vt 0.797523 0.191162
vt 0.274238 0.586534
vt 0.259400 0.648760
vt 0.844894 0.495378
vt 0.823818 0.557603
vt 0.914808 0.694380
vt 0.953161 0.743029
vt 0.775369 0.053135
vt 0.823196 0.115361
vt 0.534569 0.859727
vt 0.553769 0.921953
vt 0.534569 0.935529
vt 0.906827 0.488803
vt 0.867048 0.508954
vt 0.839518 0.377819
vt 0.858718 0.440044
vt 0.839518 0.426468
vt 0.724489 0.027361
vt 0.797523 0.039559
vt 0.797523 0.270280
vt 0.724489 0.258082
vt 0.735542 0.238882
vt 0.875039 0.377819
vt 0.894239 0.440044
vt 0.875039 0.440044
vt 0.767718 0.508954
vt 0.796444 0.469603
vt 0.807497 0.488803
vt 0.570091 0.935529
vt 0.589291 0.859728
vt 0.589291 0.935529
vt 0.823196 0.346082
vt 0.775369 0.283857
vt 0.953161 0.883801
vt 0.914808 0.835152
vt 0.938323 0.821576
vt 0.724489 0.557603
vt 0.745564 0.495378
vt 0.883648 0.756605
vt 0.874971 0.680803
vt 0.898486 0.694380
vt 0.797523 0.421884
vt 0.796444 0.346082
vt 0.938323 0.946026
vt 0.926409 0.883801
vt 0.751241 0.557603
vt 0.745564 0.619829
vt 0.898486 0.818830
vt 0.856896 0.756605
vt 0.735542 0.453282
vt 0.775369 0.408307
vt 0.858718 0.209323
vt 0.839518 0.160674
vt 0.858718 0.147098
vt 0.767718 0.606252
vt 0.796444 0.645603
vt 0.876096 0.924530
vt 0.856896 0.848728
vt 0.876096 0.862305
vt 0.491202 0.344482
vt 0.708167 0.344482
vt 0.708167 0.008161
vt 0.086093 0.274238
vt 0.008161 0.196306
vt 0.008161 0.086093
vt 0.196306 0.008161
vt 0.274238 0.196306
vt 0.491202 0.008161
vt 0.008161 0.478704
vt 0.008161 0.368492
vt 0.086093 0.290559
vt 0.274238 0.368492
vt 0.196306 0.556636
vt 0.008161 0.781446
vt 0.136482 0.781446
vt 0.839518 0.008161
vt 0.546673 0.843406
vt 0.499048 0.795781
vt 0.499048 0.728428
vt 0.614025 0.680803
vt 0.661650 0.795781
vt 0.839518 0.238882
vt 0.677972 0.795781
vt 0.677972 0.728428
vt 0.725597 0.680803
vt 0.840574 0.728428
vt 0.792949 0.843406
vt 0.923148 0.469604
vt 0.967839 0.169391
vt 0.963470 0.469604
vt 0.064445 0.765125
vt 0.008161 0.708840
vt 0.008161 0.629242
vt 0.144043 0.572958
vt 0.200327 0.708840
vt 0.967839 0.008161
vt 0.290559 0.816686
vt 0.290559 0.737088
vt 0.346844 0.680803
vt 0.482726 0.737088
vt 0.426442 0.872970
vt 0.499048 0.921953
vt 0.875039 0.209323
vt 0.250723 0.572958
vt 0.938323 0.680803
vt 0.553769 0.859727
vt 0.895774 0.469604
vt 0.858718 0.377819
vt 0.735542 0.008161
vt 0.894239 0.391395
vt 0.570091 0.873304
vt 0.914808 0.932450
vt 0.874971 0.832407
vt 0.724489 0.434082
vt 0.839518 0.209323
vt 0.807497 0.626403
vt 0.856896 0.924530
s 0
f 2/1/1 3/2/1 1/3/1
f 4/4/2 5/5/2 3/2/2
f 6/6/3 7/7/3 5/8/3
f 8/9/4 9/10/4 7/7/4
f 10/11/5 11/12/5 9/13/5
f 12/14/6 13/15/6 11/12/6
f 14/16/7 10/17/7 6/18/7
f 14/19/8 15/20/8 13/21/8
f 16/22/9 1/23/9 15/20/9
f 7/24/10 11/25/10 15/26/10
f 18/27/1 19/28/1 17/29/1
f 20/30/2 21/31/2 19/28/2
f 22/32/3 23/33/3 21/34/3
f 24/35/4 25/36/4 23/33/4
f 26/37/5 27/38/5 25/39/5
f 28/40/6 29/41/6 27/38/6
f 30/42/7 26/43/7 22/44/7
f 30/45/8 31/46/8 29/47/8
f 32/48/9 17/49/9 31/46/9
f 23/50/10 27/51/10 31/52/10
f 34/53/1 35/54/1 33/55/1
f 36/56/2 37/57/2 35/54/2
f 38/58/3 39/59/3 37/60/3
f 40/61/4 41/62/4 39/59/4
f 42/63/5 43/64/5 41/65/5
f 44/66/6 45/67/6 43/64/6
f 46/68/7 42/69/7 38/70/7
f 46/71/8 47/72/8 45/73/8
f 48/74/9 33/75/9 47/72/9
f 39/76/10 43/77/10 47/78/10
f 53/79/11 50/80/11 49/81/11
f 54/82/12 51/83/12 50/84/12
f 55/85/13 52/86/13 51/87/13
f 56/88/14 49/89/14 52/90/14
f 57/91/15 54/92/15 53/93/15
f 54/82/16 59/94/16 55/95/16
f 59/96/17 56/97/17 55/98/17
f 60/99/18 53/100/18 56/88/18
f 57/91/19 62/101/19 58/102/19
f 62/103/20 59/94/20 58/104/20
f 63/105/21 60/106/21 59/96/21
f 64/107/22 57/108/22 60/99/22
f 65/109/23 62/110/23 61/111/23
f 62/103/24 67/112/24 63/113/24
f 67/114/25 64/115/25 63/116/25
f 68/117/26 61/118/26 64/107/26
f 69/119/12 66/120/12 65/121/12
f 70/122/11 67/123/11 66/124/11
f 71/125/14 68/126/14 67/127/14
f 68/128/13 69/129/13 65/130/13
f 73/131/16 70/132/16 69/119/16
f 74/133/15 71/134/15 70/135/15
f 71/125/18 76/136/18 72/137/18
f 76/138/17 69/139/17 72/140/17
f 77/141/20 74/142/20 73/131/20
f 78/143/19 75/144/19 74/133/19
f 75/145/22 80/146/22 76/136/22
f 80/147/21 73/148/21 76/138/21
f 49/149/24 78/150/24 77/141/24
f 50/151/23 79/152/23 78/153/23
f 79/154/26 52/155/26 80/146/26
f 52/156/25 77/157/25 80/158/25
f 2/1/1 4/4/1 3/2/1
f 4/4/2 6/159/2 5/5/2
f 6/6/3 8/9/3 7/7/3
f 8/9/4 10/160/4 9/10/4
f 10/11/5 12/14/5 11/12/5
f 12/14/6 14/161/6 13/15/6
f 6/18/7 4/162/7 2/163/7
f 2/163/7 16/164/7 14/16/7
f 14/16/7 12/165/7 10/17/7
f 10/17/7 8/166/7 6/18/7
f 6/18/7 2/163/7 14/16/7
f 14/19/8 16/22/8 15/20/8
f 16/22/9 2/167/9 1/23/9
f 15/26/10 1/168/10 3/169/10
f 3/169/10 5/170/10 7/24/10
f 7/24/10 9/171/10 11/25/10
f 11/25/10 13/172/10 15/26/10
f 15/26/10 3/169/10 7/24/10
f 18/27/1 20/30/1 19/28/1
f 20/30/2 22/173/2 21/31/2
f 22/32/3 24/35/3 23/33/3
f 24/35/4 26/174/4 25/36/4
f 26/37/5 28/40/5 27/38/5
f 28/40/6 30/175/6 29/41/6
f 22/44/7 20/176/7 18/177/7
f 18/177/7 32/178/7 30/42/7
f 30/42/7 28/179/7 26/43/7
f 26/43/7 24/180/7 22/44/7
f 22/44/7 18/177/7 30/42/7
f 30/45/8 32/48/8 31/46/8
f 32/48/9 18/181/9 17/49/9
f 31/52/10 17/182/10 19/183/10
f 19/183/10 21/184/10 23/50/10
f 23/50/10 25/185/10 27/51/10
f 27/51/10 29/186/10 31/52/10
f 31/52/10 19/183/10 23/50/10
f 34/53/1 36/56/1 35/54/1
f 36/56/2 38/187/2 37/57/2
f 38/58/3 40/61/3 39/59/3
f 40/61/4 42/188/4 41/62/4
f 42/63/5 44/66/5 43/64/5
f 44/66/6 46/189/6 45/67/6
f 38/70/7 36/190/7 34/191/7
f 34/191/7 48/192/7 46/68/7
f 46/68/7 44/193/7 42/69/7
f 42/69/7 40/194/7 38/70/7
f 38/70/7 34/191/7 46/68/7
f 46/71/8 48/74/8 47/72/8
f 48/74/9 34/195/9 33/75/9
f 47/78/10 33/196/10 35/197/10
f 35/197/10 37/198/10 39/76/10
f 39/76/10 41/199/10 43/77/10
f 43/77/10 45/200/10 47/78/10
f 47/78/10 35/197/10 39/76/10
f 53/79/11 54/201/11 50/80/11
f 54/82/12 55/95/12 51/83/12
f 55/85/13 56/202/13 52/86/13
f 56/88/14 53/100/14 49/89/14
f 57/91/15 58/102/15 54/92/15
f 54/82/16 58/104/16 59/94/16
f 59/96/17 60/106/17 56/97/17
f 60/99/18 57/108/18 53/100/18
f 57/91/19 61/203/19 62/101/19
f 62/103/20 63/113/20 59/94/20
f 63/105/21 64/204/21 60/106/21
f 64/107/22 61/118/22 57/108/22
f 65/109/23 66/205/23 62/110/23
f 62/103/24 66/206/24 67/112/24
f 67/114/25 68/207/25 64/115/25
f 68/117/26 65/208/26 61/118/26
f 69/119/12 70/132/12 66/120/12
f 70/122/11 71/209/11 67/123/11
f 71/125/14 72/137/14 68/126/14
f 68/128/13 72/210/13 69/129/13
f 73/131/16 74/142/16 70/132/16
f 74/133/15 75/144/15 71/134/15
f 71/125/18 75/145/18 76/136/18
f 76/138/17 73/148/17 69/139/17
f 77/141/20 78/150/20 74/142/20
f 78/143/19 79/211/19 75/144/19
f 75/145/22 79/154/22 80/146/22
f 80/147/21 77/212/21 73/148/21
f 49/149/24 50/213/24 78/150/24
f 50/151/23 51/214/23 79/152/23
f 79/154/26 51/215/26 52/155/26
f 52/156/25 49/216/25 77/157/25
