# Blender 5.2.0 LTS
# www.blender.org
o calderone_liquido
v 0.000000 0.000000 -0.300000
v 0.000000 0.010000 -0.300000
v 0.150000 0.000000 -0.259808
v 0.150000 0.010000 -0.259808
v 0.259808 0.000000 -0.150000
v 0.259808 0.010000 -0.150000
v 0.300000 0.000000 0.000000
v 0.300000 0.010000 0.000000
v 0.259808 0.000000 0.150000
v 0.259808 0.010000 0.150000
v 0.150000 0.000000 0.259808
v 0.150000 0.010000 0.259808
v 0.000000 0.000000 0.300000
v 0.000000 0.010000 0.300000
v -0.150000 0.000000 0.259808
v -0.150000 0.010000 0.259808
v -0.259808 0.000000 0.150000
v -0.259808 0.010000 0.150000
v -0.300000 0.000000 0.000000
v -0.300000 0.010000 0.000000
v -0.259808 0.000000 -0.150000
v -0.259808 0.010000 -0.150000
v -0.150000 0.000000 -0.259808
v -0.150000 0.010000 -0.259808
vn 0.2588 -0.0000 -0.9659
vn 0.7071 -0.0000 -0.7071
vn 0.9659 -0.0000 -0.2588
vn 0.9659 -0.0000 0.2588
vn 0.7071 -0.0000 0.7071
vn 0.2588 -0.0000 0.9659
vn -0.2588 -0.0000 0.9659
vn -0.7071 -0.0000 0.7071
vn -0.9659 -0.0000 0.2588
vn -0.9659 -0.0000 -0.2588
vn -0.0000 1.0000 -0.0000
vn -0.7071 -0.0000 -0.7071
vn -0.2588 -0.0000 -0.9659
vn -0.0000 -1.0000 -0.0000
vt 0.502344 0.617281
vt 0.510890 0.502344
vt 0.510890 0.617281
vt 0.515578 0.364938
vt 0.524124 0.250000
vt 0.524124 0.364938
vt 0.515578 0.250000
vt 0.524124 0.117281
vt 0.515578 0.117281
vt 0.524124 0.002344
vt 0.502344 0.497656
vt 0.510890 0.431297
vt 0.510890 0.497656
vt 0.502344 0.431297
vt 0.510890 0.316359
vt 0.502344 0.316359
vt 0.510890 0.183641
vt 0.502344 0.183641
vt 0.510890 0.068703
vt 0.502344 0.068703
vt 0.510890 0.002344
vt 0.502344 0.931297
vt 0.510890 0.864937
vt 0.510890 0.931297
vt 0.068703 0.068703
vt 0.497656 0.183641
vt 0.183641 0.497656
vt 0.502344 0.864937
vt 0.510890 0.750000
vt 0.502344 0.750000
vt 0.183641 0.502344
vt 0.497656 0.816359
vt 0.068703 0.931297
vt 0.502344 0.502344
vt 0.515578 0.002344
vt 0.502344 0.002344
vt 0.068703 0.431297
vt 0.002344 0.316359
vt 0.002344 0.183641
vt 0.183641 0.002344
vt 0.316359 0.002344
vt 0.431297 0.068703
vt 0.497656 0.316359
vt 0.431297 0.431297
vt 0.316359 0.497656
vt 0.002344 0.816359
vt 0.002344 0.683641
vt 0.068703 0.568703
vt 0.316359 0.502344
vt 0.431297 0.568703
vt 0.497656 0.683641
vt 0.431297 0.931297
vt 0.316359 0.997656
vt 0.183641 0.997656
s 0
f 2/1/1 3/2/1 1/3/1
f 4/4/2 5/5/2 3/6/2
f 6/7/3 7/8/3 5/5/3
f 8/9/4 9/10/4 7/8/4
f 10/11/5 11/12/5 9/13/5
f 12/14/6 13/15/6 11/12/6
f 14/16/7 15/17/7 13/15/7
f 16/18/8 17/19/8 15/17/8
f 18/20/9 19/21/9 17/19/9
f 20/22/10 21/23/10 19/24/10
f 22/25/11 14/26/11 6/27/11
f 22/28/12 23/29/12 21/23/12
f 24/30/13 1/3/13 23/29/13
f 7/31/14 15/32/14 23/33/14
f 2/1/1 4/34/1 3/2/1
f 4/4/2 6/7/2 5/5/2
f 6/7/3 8/9/3 7/8/3
f 8/9/4 10/35/4 9/10/4
f 10/11/5 12/14/5 11/12/5
f 12/14/6 14/16/6 13/15/6
f 14/16/7 16/18/7 15/17/7
f 16/18/8 18/20/8 17/19/8
f 18/20/9 20/36/9 19/21/9
f 20/22/10 22/28/10 21/23/10
f 6/27/11 4/37/11 2/38/11
f 2/38/11 24/39/11 22/25/11
f 22/25/11 20/40/11 18/41/11
f 18/41/11 16/42/11 14/26/11
f 14/26/11 12/43/11 10/44/11
f 10/44/11 8/45/11 6/27/11
f 6/27/11 2/38/11 22/25/11
f 22/25/11 18/41/11 14/26/11
f 14/26/11 10/44/11 6/27/11
f 22/28/12 24/30/12 23/29/12
f 24/30/13 2/1/13 1/3/13
f 23/33/14 1/46/14 3/47/14
f 3/47/14 5/48/14 7/31/14
f 7/31/14 9/49/14 11/50/14
f 11/50/14 13/51/14 15/32/14
f 15/32/14 17/52/14 19/53/14
f 19/53/14 21/54/14 23/33/14
f 23/33/14 3/47/14 7/31/14
f 7/31/14 11/50/14 15/32/14
f 15/32/14 19/53/14 23/33/14
