# Blender 5.2.0 LTS
# www.blender.org
o calderone
v 0.000000 0.130000 -0.260000
v 0.000000 0.470000 -0.340000
v 0.130000 0.130000 -0.225167
v 0.170000 0.470000 -0.294449
v 0.225167 0.130000 -0.130000
v 0.294449 0.470000 -0.170000
v 0.260000 0.130000 0.000000
v 0.340000 0.470000 0.000000
v 0.225167 0.130000 0.130000
v 0.294449 0.470000 0.170000
v 0.130000 0.130000 0.225167
v 0.170000 0.470000 0.294449
v 0.000000 0.130000 0.260000
v 0.000000 0.470000 0.340000
v -0.130000 0.130000 0.225167
v -0.170000 0.470000 0.294449
v -0.225167 0.130000 0.130000
v -0.294449 0.470000 0.170000
v -0.260000 0.130000 0.000000
v -0.340000 0.470000 0.000000
v -0.225167 0.130000 -0.130000
v -0.294449 0.470000 -0.170000
v -0.130000 0.130000 -0.225167
v -0.170000 0.470000 -0.294449
v 0.370000 0.470000 0.000000
v 0.352725 0.493776 0.000000
v 0.324775 0.484695 0.000000
v 0.324775 0.455305 0.000000
v 0.352725 0.446224 0.000000
v 0.320429 0.470000 -0.185000
v 0.305469 0.493776 -0.176363
v 0.281263 0.484695 -0.162387
v 0.281263 0.455305 -0.162387
v 0.305469 0.446224 -0.176363
v 0.185000 0.470000 -0.320429
v 0.176363 0.493776 -0.305469
v 0.162387 0.484695 -0.281263
v 0.162387 0.455305 -0.281263
v 0.176363 0.446224 -0.305469
v 0.000000 0.470000 -0.370000
v 0.000000 0.493776 -0.352725
v 0.000000 0.484695 -0.324775
v 0.000000 0.455305 -0.324775
v 0.000000 0.446224 -0.352725
v -0.185000 0.470000 -0.320429
v -0.176363 0.493776 -0.305469
v -0.162387 0.484695 -0.281263
v -0.162387 0.455305 -0.281263
v -0.176363 0.446224 -0.305469
v -0.320429 0.470000 -0.185000
v -0.305469 0.493776 -0.176363
v -0.281263 0.484695 -0.162387
v -0.281263 0.455305 -0.162387
v -0.305469 0.446224 -0.176363
v -0.370000 0.470000 -0.000000
v -0.352725 0.493776 -0.000000
v -0.324775 0.484695 -0.000000
v -0.324775 0.455305 -0.000000
v -0.352725 0.446224 -0.000000
v -0.320429 0.470000 0.185000
v -0.305469 0.493776 0.176363
v -0.281263 0.484695 0.162387
v -0.281263 0.455305 0.162387
v -0.305469 0.446224 0.176363
v -0.185000 0.470000 0.320429
v -0.176363 0.493776 0.305469
v -0.162387 0.484695 0.281263
v -0.162387 0.455305 0.281263
v -0.176363 0.446224 0.305469
v 0.000000 0.470000 0.370000
v 0.000000 0.493776 0.352725
v 0.000000 0.484695 0.324775
v 0.000000 0.455305 0.324775
v 0.000000 0.446224 0.352725
v 0.185000 0.470000 0.320429
v 0.176363 0.493776 0.305469
v 0.162387 0.484695 0.281263
v 0.162387 0.455305 0.281263
v 0.176363 0.446224 0.305469
v 0.320429 0.470000 0.185000
v 0.305469 0.493776 0.176363
v 0.281263 0.484695 0.162387
v 0.281263 0.455305 0.162387
v 0.305469 0.446224 0.176363
v 0.180000 0.000000 -0.028000
v 0.180000 0.140000 -0.028000
v 0.206630 0.000000 -0.008652
v 0.206630 0.140000 -0.008652
v 0.196458 0.000000 0.022652
v 0.196458 0.140000 0.022652
v 0.163542 0.000000 0.022652
v 0.163542 0.140000 0.022652
v 0.153370 0.000000 -0.008652
v 0.153370 0.140000 -0.008652
v -0.090000 0.000000 -0.183885
v -0.090000 0.140000 -0.183885
v -0.063370 0.000000 -0.164537
v -0.063370 0.140000 -0.164537
v -0.073542 0.000000 -0.133232
v -0.073542 0.140000 -0.133232
v -0.106458 0.000000 -0.133232
v -0.106458 0.140000 -0.133232
v -0.116630 0.000000 -0.164537
v -0.116630 0.140000 -0.164537
v -0.090000 0.000000 0.127885
v -0.090000 0.140000 0.127885
v -0.063370 0.000000 0.147232
v -0.063370 0.140000 0.147232
v -0.073542 0.000000 0.178537
v -0.073542 0.140000 0.178537
v -0.106458 0.000000 0.178537
v -0.106458 0.140000 0.178537
v -0.116630 0.000000 0.147232
v -0.116630 0.140000 0.147232
vn 0.2524 -0.2216 -0.9419
vn 0.6895 -0.2216 -0.6895
vn 0.9419 -0.2216 -0.2524
vn 0.9419 -0.2216 0.2524
vn 0.6895 -0.2216 0.6895
vn 0.2524 -0.2216 0.9419
vn -0.2524 -0.2216 0.9419
vn -0.6895 -0.2216 0.6895
vn -0.9419 -0.2216 0.2524
vn -0.9419 -0.2216 -0.2524
vn -0.0000 1.0000 -0.0000
vn -0.6895 -0.2216 -0.6895
vn -0.2524 -0.2216 -0.9419
vn -0.0000 -1.0000 -0.0000
vn 0.7907 0.5744 -0.2119
vn -0.3080 0.9478 0.0825
vn -0.9659 -0.0000 0.2588
vn -0.3080 -0.9478 0.0825
vn 0.7907 -0.5744 -0.2119
vn 0.5788 0.5744 -0.5788
vn -0.2254 0.9478 0.2254
vn -0.7071 -0.0000 0.7071
vn -0.2254 -0.9478 0.2254
vn 0.5788 -0.5744 -0.5788
vn 0.2119 0.5744 -0.7907
vn -0.0825 0.9478 0.3080
vn -0.2588 -0.0000 0.9659
vn -0.0825 -0.9478 0.3080
vn 0.2119 -0.5744 -0.7907
vn -0.2119 0.5744 -0.7907
vn 0.0825 0.9478 0.3080
vn 0.2588 -0.0000 0.9659
vn 0.0825 -0.9478 0.3080
vn -0.2119 -0.5744 -0.7907
vn -0.5788 0.5744 -0.5788
vn 0.2254 0.9478 0.2254
vn 0.7071 -0.0000 0.7071
vn 0.2254 -0.9478 0.2254
vn -0.5788 -0.5744 -0.5788
vn -0.7907 0.5744 -0.2119
vn 0.3080 0.9478 0.0825
vn 0.9659 -0.0000 0.2588
vn 0.3080 -0.9478 0.0825
vn -0.7907 -0.5744 -0.2119
vn -0.7907 0.5744 0.2119
vn 0.3080 0.9478 -0.0825
vn 0.9659 -0.0000 -0.2588
vn 0.3080 -0.9478 -0.0825
vn -0.7907 -0.5744 0.2119
vn -0.5788 0.5744 0.5788
vn 0.2254 0.9478 -0.2254
vn 0.7071 -0.0000 -0.7071
vn 0.2254 -0.9478 -0.2254
vn -0.5788 -0.5744 0.5788
vn -0.2119 0.5744 0.7907
vn 0.0825 0.9478 -0.3080
vn 0.2588 -0.0000 -0.9659
vn 0.0825 -0.9478 -0.3080
vn -0.2119 -0.5744 0.7907
vn 0.2119 0.5744 0.7907
vn -0.0825 0.9478 -0.3080
vn -0.2588 -0.0000 -0.9659
vn -0.0825 -0.9478 -0.3080
vn 0.2119 -0.5744 0.7907
vn 0.5788 0.5744 0.5788
vn -0.2254 0.9478 -0.2254
vn -0.7071 -0.0000 -0.7071
vn -0.2254 -0.9478 -0.2254
vn 0.5788 -0.5744 0.5788
vn 0.7907 0.5744 0.2119
vn -0.3080 0.9478 -0.0825
vn -0.9659 -0.0000 -0.2588
vn -0.3080 -0.9478 -0.0825
vn 0.7907 -0.5744 0.2119
vn 0.5878 -0.0000 -0.8090
vn 0.9511 -0.0000 0.3090
vn -0.0000 -0.0000 1.0000
vn -0.9511 -0.0000 0.3090
vn -0.5878 -0.0000 -0.8090
vt 0.689751 0.635370
vt 0.875913 0.542494
vt 0.877148 0.612411
vt 0.688136 0.543940
vt 0.877148 0.470835
vt 0.689751 0.450233
vt 0.880523 0.416635
vt 0.688136 0.716256
vt 0.780733 0.902502
vt 0.711967 0.904046
vt 0.778061 0.714236
vt 0.853063 0.904046
vt 0.775602 0.269073
vt 0.960123 0.175337
vt 0.962587 0.237668
vt 0.772379 0.187563
vt 0.960123 0.102012
vt 0.772379 0.091677
vt 0.962587 0.037341
vt 0.587843 0.667361
vt 0.404616 0.761730
vt 0.400130 0.698197
vt 0.593709 0.750444
vt 0.404616 0.835093
vt 0.448098 0.055075
vt 0.758166 0.138157
vt 0.531180 0.365142
vt 0.593709 0.846379
vt 0.400130 0.898626
vt 0.694164 0.700022
vt 0.880523 0.661851
vt 0.500345 0.379356
vt 0.673922 0.552933
vt 0.436811 0.616467
vt 0.325890 0.351232
vt 0.377074 0.262579
vt 0.385917 0.265815
vt 0.319849 0.344009
vt 0.362765 0.257344
vt 0.894736 0.742530
vt 0.916239 0.821892
vt 0.900340 0.821892
vt 0.021824 0.540029
vt 0.056870 0.449893
vt 0.067643 0.460667
vt 0.926856 0.387325
vt 0.908815 0.456487
vt 0.913617 0.379356
vt 0.907057 0.558463
vt 0.896412 0.460777
vt 0.229577 0.385917
vt 0.310076 0.332321
vt 0.657026 0.836813
vt 0.669932 0.917631
vt 0.653948 0.917596
vt 0.007107 0.635611
vt 0.007107 0.536085
vt 0.920602 0.558069
vt 0.922278 0.460855
vt 0.908815 0.657959
vt 0.894736 0.557992
vt 0.130444 0.377074
vt 0.226957 0.370908
vt 0.657026 0.745221
vt 0.673010 0.836848
vt 0.067643 0.711030
vt 0.021824 0.631668
vt 0.922278 0.652921
vt 0.041791 0.325890
vt 0.127209 0.385917
vt 0.049015 0.319849
vt 0.135680 0.362765
vt 0.653948 0.667361
vt 0.673010 0.745255
vt 0.147005 0.756849
vt 0.056870 0.721803
vt 0.926856 0.719993
vt 0.627983 0.862175
vt 0.633649 0.945930
vt 0.621600 0.952588
vt 0.007107 0.229577
vt 0.060703 0.310076
vt 0.051180 0.871678
vt 0.065218 0.962150
vt 0.049251 0.962027
vt 0.242588 0.771566
vt 0.143062 0.771566
vt 0.614008 0.859738
vt 0.607922 0.945930
vt 0.639734 0.760212
vt 0.639734 0.859738
vt 0.015950 0.130444
vt 0.022116 0.226957
vt 0.049251 0.785780
vt 0.067147 0.871801
vt 0.238644 0.756849
vt 0.328780 0.721803
vt 0.614008 0.760212
vt 0.621600 0.667362
vt 0.627983 0.757775
vt 0.073174 0.049015
vt 0.030258 0.135680
vt 0.945285 0.917254
vt 0.957056 0.985005
vt 0.941070 0.984957
vt 0.363826 0.631668
vt 0.318006 0.711030
vt 0.607922 0.674020
vt 0.953390 0.471389
vt 0.944413 0.385771
vt 0.956897 0.379356
vt 0.163447 0.007107
vt 0.082948 0.060703
vt 0.946828 0.827743
vt 0.961271 0.917302
vt 0.363826 0.540029
vt 0.378543 0.635611
vt 0.966932 0.473562
vt 0.970275 0.385826
vt 0.953390 0.575735
vt 0.941070 0.473506
vt 0.262579 0.015950
vt 0.166067 0.022116
vt 0.945285 0.740408
vt 0.962814 0.827791
vt 0.318006 0.460667
vt 0.378543 0.536085
vt 0.966932 0.573037
vt 0.956897 0.664437
vt 0.941070 0.572981
vt 0.344009 0.073174
vt 0.257344 0.030258
vt 0.941070 0.678650
vt 0.961271 0.740456
vt 0.238644 0.414847
vt 0.328780 0.449893
vt 0.019258 0.888710
vt 0.009202 0.789603
vt 0.021456 0.785780
vt 0.370908 0.166067
vt 0.332321 0.082948
vt 0.900340 0.913531
vt 0.910636 0.992893
vt 0.894736 0.992893
vt 0.147005 0.414847
vt 0.242588 0.400130
vt 0.032942 0.887926
vt 0.035037 0.789801
vt 0.009202 0.981018
vt 0.007107 0.887727
vt 0.385917 0.163447
vt 0.916239 0.913531
vt 0.143062 0.400130
vt 0.021456 0.986570
vt 0.124566 0.785780
vt 0.142478 0.862000
vt 0.124566 0.861932
vt 0.315103 0.786215
vt 0.332222 0.861843
vt 0.315103 0.862278
vt 0.283716 0.786129
vt 0.300889 0.861921
vt 0.283716 0.862270
vt 0.290377 0.890999
vt 0.262766 0.899971
vt 0.262766 0.882028
vt 0.815585 0.284482
vt 0.830633 0.359027
vt 0.815585 0.360222
vt 0.830633 0.283287
vt 0.844576 0.360408
vt 0.141630 0.905245
vt 0.124566 0.881759
vt 0.141630 0.876214
vt 0.188817 0.785780
vt 0.206728 0.862000
vt 0.188817 0.861932
vt 0.858790 0.283722
vt 0.875910 0.359349
vt 0.858790 0.359784
vt 0.220942 0.786129
vt 0.238115 0.861921
vt 0.220942 0.862270
vt 0.194001 0.890730
vt 0.166390 0.899701
vt 0.166390 0.881759
vt 0.081361 0.786975
vt 0.096409 0.861521
vt 0.081361 0.862716
vt 0.096409 0.785780
vt 0.110352 0.862901
vt 0.332167 0.905523
vt 0.315103 0.882036
vt 0.332167 0.876491
vt 0.156691 0.785780
vt 0.174603 0.862000
vt 0.156691 0.861932
vt 0.346436 0.786215
vt 0.363556 0.861843
vt 0.346436 0.862278
vt 0.252329 0.786129
vt 0.269502 0.861921
vt 0.252329 0.862270
vt 0.248552 0.890999
vt 0.220942 0.899971
vt 0.220942 0.882028
vt 0.772379 0.284482
vt 0.787427 0.359027
vt 0.772379 0.360222
vt 0.787427 0.283287
vt 0.801371 0.360408
vt 0.373991 0.905523
vt 0.356927 0.882036
vt 0.373991 0.876491
vt 0.694164 0.379356
vt 0.872646 0.716256
vt 0.775602 0.007107
vt 0.448098 0.317175
vt 0.400130 0.234092
vt 0.400130 0.138157
vt 0.531180 0.007107
vt 0.627116 0.007107
vt 0.710198 0.055075
vt 0.758166 0.234092
vt 0.710198 0.317175
vt 0.627116 0.365142
vt 0.587843 0.929462
vt 0.400130 0.552933
vt 0.400130 0.479571
vt 0.436811 0.416037
vt 0.573707 0.379356
vt 0.637241 0.416037
vt 0.673922 0.479571
vt 0.637241 0.616467
vt 0.573707 0.653148
vt 0.500345 0.653148
vt 0.910636 0.742530
vt 0.896412 0.652843
vt 0.669932 0.667396
vt 0.913617 0.728316
vt 0.065218 0.785903
vt 0.633649 0.674020
vt 0.944413 0.657541
vt 0.957056 0.678698
vt 0.970275 0.657597
vt 0.035037 0.981217
vt 0.142478 0.785848
vt 0.332222 0.785780
vt 0.300889 0.785780
vt 0.279830 0.876484
vt 0.279830 0.905515
vt 0.844576 0.284667
vt 0.152177 0.890730
vt 0.124566 0.899701
vt 0.206728 0.785848
vt 0.875910 0.283287
vt 0.238115 0.785780
vt 0.183455 0.876214
vt 0.183455 0.905245
vt 0.110352 0.787161
vt 0.342713 0.891007
vt 0.315103 0.899978
vt 0.174603 0.785848
vt 0.363556 0.785780
vt 0.269502 0.785780
vt 0.238006 0.876484
vt 0.238006 0.905515
vt 0.801371 0.284667
vt 0.384538 0.891007
vt 0.356927 0.899978
s 0
f 2/1/1 3/2/1 1/3/1
f 4/4/2 5/5/2 3/2/2
f 6/6/3 7/7/3 5/5/3
f 8/8/4 9/9/4 7/10/4
f 10/11/5 11/12/5 9/9/5
f 12/13/6 13/14/6 11/15/6
f 14/16/7 15/17/7 13/14/7
f 16/18/8 17/19/8 15/17/8
f 18/20/9 19/21/9 17/22/9
f 20/23/10 21/24/10 19/21/10
f 22/25/11 14/26/11 6/27/11
f 22/28/12 23/29/12 21/24/12
f 24/30/13 1/3/13 23/31/13
f 7/32/14 15/33/14 23/34/14
f 30/35/15 26/36/15 25/37/15
f 31/38/16 27/39/16 26/36/16
f 32/40/17 28/41/17 27/42/17
f 33/43/18 29/44/18 28/45/18
f 29/46/19 30/47/19 25/48/19
f 35/49/20 31/50/20 30/47/20
f 36/51/21 32/52/21 31/38/21
f 37/53/22 33/54/22 32/55/22
f 33/43/23 39/56/23 34/57/23
f 39/58/24 30/47/24 34/59/24
f 40/60/25 36/61/25 35/49/25
f 41/62/26 37/63/26 36/51/26
f 42/64/27 38/65/27 37/53/27
f 43/66/28 39/56/28 38/67/28
f 44/68/29 35/49/29 39/58/29
f 45/69/30 41/62/30 40/70/30
f 46/71/31 42/72/31 41/62/31
f 47/73/32 43/74/32 42/64/32
f 48/75/33 44/76/33 43/66/33
f 49/77/34 40/60/34 44/68/34
f 50/78/35 46/79/35 45/80/35
f 51/81/36 47/82/36 46/71/36
f 52/83/37 48/84/37 47/85/37
f 48/75/38 54/86/38 49/87/38
f 54/88/39 45/80/39 49/89/39
f 50/78/40 56/90/40 51/91/40
f 56/92/41 52/93/41 51/81/41
f 57/94/42 53/95/42 52/83/42
f 53/96/43 59/97/43 54/86/43
f 59/98/44 50/78/44 54/88/44
f 60/99/45 56/90/45 55/100/45
f 61/101/46 57/102/46 56/92/46
f 62/103/47 58/104/47 57/105/47
f 63/106/48 59/97/48 58/107/48
f 64/108/49 55/100/49 59/98/49
f 65/109/50 61/110/50 60/111/50
f 66/112/51 62/113/51 61/101/51
f 67/114/52 63/115/52 62/103/52
f 68/116/53 64/117/53 63/106/53
f 69/118/54 60/111/54 64/119/54
f 70/120/55 66/121/55 65/109/55
f 71/122/56 67/123/56 66/112/56
f 72/124/57 68/125/57 67/114/57
f 73/126/58 69/127/58 68/116/58
f 74/128/59 65/109/59 69/118/59
f 75/129/60 71/130/60 70/120/60
f 76/131/61 72/132/61 71/122/61
f 77/133/62 73/134/62 72/124/62
f 78/135/63 74/136/63 73/126/63
f 74/128/64 75/129/64 70/120/64
f 80/137/65 76/138/65 75/139/65
f 76/131/66 82/140/66 77/141/66
f 82/142/67 78/143/67 77/144/67
f 83/145/68 79/146/68 78/135/68
f 84/147/69 75/139/69 79/148/69
f 80/137/70 26/149/70 81/150/70
f 81/151/71 27/39/71 82/140/71
f 27/42/72 83/152/72 82/142/72
f 28/45/73 84/153/73 83/145/73
f 84/147/74 25/154/74 80/137/74
f 86/155/75 87/156/75 85/157/75
f 88/158/76 89/159/76 87/160/76
f 90/161/77 91/162/77 89/163/77
f 86/164/11 92/165/11 90/166/11
f 92/167/78 93/168/78 91/169/78
f 94/170/79 85/171/79 93/168/79
f 87/172/14 91/173/14 93/174/14
f 96/175/75 97/176/75 95/177/75
f 98/178/76 99/179/76 97/180/76
f 100/181/77 101/182/77 99/183/77
f 96/184/11 102/185/11 100/186/11
f 102/187/78 103/188/78 101/189/78
f 104/190/79 95/191/79 103/188/79
f 97/192/14 101/193/14 103/194/14
f 106/195/75 107/196/75 105/197/75
f 108/198/76 109/199/76 107/200/76
f 110/201/77 111/202/77 109/203/77
f 106/204/11 112/205/11 110/206/11
f 112/207/78 113/208/78 111/209/78
f 114/210/79 105/211/79 113/208/79
f 107/212/14 111/213/14 113/214/14
f 2/1/1 4/4/1 3/2/1
f 4/4/2 6/6/2 5/5/2
f 6/6/3 8/215/3 7/7/3
f 8/8/4 10/11/4 9/9/4
f 10/11/5 12/216/5 11/12/5
f 12/13/6 14/16/6 13/14/6
f 14/16/7 16/18/7 15/17/7
f 16/18/8 18/217/8 17/19/8
f 18/20/9 20/23/9 19/21/9
f 20/23/10 22/28/10 21/24/10
f 6/27/11 4/218/11 2/219/11
f 2/219/11 24/220/11 22/25/11
f 22/25/11 20/221/11 18/222/11
f 18/222/11 16/223/11 14/26/11
f 14/26/11 12/224/11 10/225/11
f 10/225/11 8/226/11 6/27/11
f 6/27/11 2/219/11 22/25/11
f 22/25/11 18/222/11 14/26/11
f 14/26/11 10/225/11 6/27/11
f 22/28/12 24/227/12 23/29/12
f 24/30/13 2/1/13 1/3/13
f 23/34/14 1/228/14 3/229/14
f 3/229/14 5/230/14 7/32/14
f 7/32/14 9/231/14 11/232/14
f 11/232/14 13/233/14 15/33/14
f 15/33/14 17/234/14 19/235/14
f 19/235/14 21/236/14 23/34/14
f 23/34/14 3/229/14 7/32/14
f 7/32/14 11/232/14 15/33/14
f 15/33/14 19/235/14 23/34/14
f 30/35/15 31/38/15 26/36/15
f 31/38/16 32/52/16 27/39/16
f 32/40/17 33/237/17 28/41/17
f 33/43/18 34/57/18 29/44/18
f 29/46/19 34/59/19 30/47/19
f 35/49/20 36/61/20 31/50/20
f 36/51/21 37/63/21 32/52/21
f 37/53/22 38/65/22 33/54/22
f 33/43/23 38/67/23 39/56/23
f 39/58/24 35/49/24 30/47/24
f 40/60/25 41/238/25 36/61/25
f 41/62/26 42/72/26 37/63/26
f 42/64/27 43/74/27 38/65/27
f 43/66/28 44/76/28 39/56/28
f 44/68/29 40/60/29 35/49/29
f 45/69/30 46/71/30 41/62/30
f 46/71/31 47/82/31 42/72/31
f 47/73/32 48/239/32 43/74/32
f 48/75/33 49/87/33 44/76/33
f 49/77/34 45/240/34 40/60/34
f 50/78/35 51/91/35 46/79/35
f 51/81/36 52/93/36 47/82/36
f 52/83/37 53/95/37 48/84/37
f 48/75/38 53/96/38 54/86/38
f 54/88/39 50/78/39 45/80/39
f 50/78/40 55/100/40 56/90/40
f 56/92/41 57/102/41 52/93/41
f 57/94/42 58/241/42 53/95/42
f 53/96/43 58/107/43 59/97/43
f 59/98/44 55/100/44 50/78/44
f 60/99/45 61/242/45 56/90/45
f 61/101/46 62/113/46 57/102/46
f 62/103/47 63/115/47 58/104/47
f 63/106/48 64/117/48 59/97/48
f 64/108/49 60/99/49 55/100/49
f 65/109/50 66/121/50 61/110/50
f 66/112/51 67/123/51 62/113/51
f 67/114/52 68/125/52 63/115/52
f 68/116/53 69/127/53 64/117/53
f 69/118/54 65/109/54 60/111/54
f 70/120/55 71/130/55 66/121/55
f 71/122/56 72/132/56 67/123/56
f 72/124/57 73/134/57 68/125/57
f 73/126/58 74/136/58 69/127/58
f 74/128/59 70/120/59 65/109/59
f 75/129/60 76/243/60 71/130/60
f 76/131/61 77/141/61 72/132/61
f 77/133/62 78/244/62 73/134/62
f 78/135/63 79/146/63 74/136/63
f 74/128/64 79/245/64 75/129/64
f 80/137/65 81/150/65 76/138/65
f 76/131/66 81/151/66 82/140/66
f 82/142/67 83/152/67 78/143/67
f 83/145/68 84/153/68 79/146/68
f 84/147/69 80/137/69 75/139/69
f 80/137/70 25/154/70 26/149/70
f 81/151/71 26/36/71 27/39/71
f 27/42/72 28/41/72 83/152/72
f 28/45/73 29/44/73 84/153/73
f 84/147/74 29/246/74 25/154/74
f 86/155/75 88/247/75 87/156/75
f 88/158/76 90/248/76 89/159/76
f 90/161/77 92/249/77 91/162/77
f 90/166/11 88/250/11 86/164/11
f 86/164/11 94/251/11 92/165/11
f 92/167/78 94/170/78 93/168/78
f 94/170/79 86/252/79 85/171/79
f 93/174/14 85/253/14 87/172/14
f 87/172/14 89/254/14 91/173/14
f 96/175/75 98/255/75 97/176/75
f 98/178/76 100/256/76 99/179/76
f 100/181/77 102/257/77 101/182/77
f 100/186/11 98/258/11 96/184/11
f 96/184/11 104/259/11 102/185/11
f 102/187/78 104/190/78 103/188/78
f 104/190/79 96/260/79 95/191/79
f 103/194/14 95/261/14 97/192/14
f 97/192/14 99/262/14 101/193/14
f 106/195/75 108/263/75 107/196/75
f 108/198/76 110/264/76 109/199/76
f 110/201/77 112/265/77 111/202/77
f 110/206/11 108/266/11 106/204/11
f 106/204/11 114/267/11 112/205/11
f 112/207/78 114/210/78 113/208/78
f 114/210/79 106/268/79 105/211/79
f 113/214/14 105/269/14 107/212/14
f 107/212/14 109/270/14 111/213/14
