# Blender 5.2.0 LTS
# www.blender.org
o distillatore_legno
v -0.560000 0.400000 0.400000
v -0.560000 0.500000 0.400000
v -0.560000 0.400000 -0.400000
v -0.560000 0.500000 -0.400000
v 0.240000 0.400000 0.400000
v 0.240000 0.500000 0.400000
v 0.240000 0.400000 -0.400000
v 0.240000 0.500000 -0.400000
v 0.250000 0.395000 -0.310000
v 0.250000 1.345000 -0.310000
v 0.250000 0.395000 -0.410000
v 0.250000 1.345000 -0.410000
v 0.350000 0.395000 -0.310000
v 0.350000 1.345000 -0.310000
v 0.350000 0.395000 -0.410000
v 0.350000 1.345000 -0.410000
v 0.250000 0.395000 0.410000
v 0.250000 1.345000 0.410000
v 0.250000 0.395000 0.310000
v 0.250000 1.345000 0.310000
v 0.350000 0.395000 0.410000
v 0.350000 1.345000 0.410000
v 0.350000 0.395000 0.310000
v 0.350000 1.345000 0.310000
v -0.930000 0.195000 0.170000
v -0.930000 0.285000 0.170000
v -0.930000 0.195000 -0.170000
v -0.930000 0.285000 -0.170000
v -0.310000 0.195000 0.170000
v -0.310000 0.285000 0.170000
v -0.310000 0.195000 -0.170000
v -0.310000 0.285000 -0.170000
v -0.895000 0.000000 0.035000
v -0.895000 0.240000 0.035000
v -0.895000 0.000000 -0.035000
v -0.895000 0.240000 -0.035000
v -0.825000 0.000000 0.035000
v -0.825000 0.240000 0.035000
v -0.825000 0.000000 -0.035000
v -0.825000 0.240000 -0.035000
v -0.160000 0.500000 -0.340000
v -0.160000 1.160000 -0.340000
v 0.010000 0.500000 -0.294449
v 0.010000 1.160000 -0.294449
v 0.134449 0.500000 -0.170000
v 0.134449 1.160000 -0.170000
v 0.180000 0.500000 0.000000
v 0.180000 1.160000 0.000000
v 0.134449 0.500000 0.170000
v 0.134449 1.160000 0.170000
v 0.010000 0.500000 0.294449
v 0.010000 1.160000 0.294449
v -0.160000 0.500000 0.340000
v -0.160000 1.160000 0.340000
v -0.330000 0.500000 0.294449
v -0.330000 1.160000 0.294449
v -0.454449 0.500000 0.170000
v -0.454449 1.160000 0.170000
v -0.500000 0.500000 0.000000
v -0.500000 1.160000 0.000000
v -0.454449 0.500000 -0.170000
v -0.454449 1.160000 -0.170000
v -0.330000 0.500000 -0.294449
v -0.330000 1.160000 -0.294449
v -0.160000 1.155000 -0.310000
v -0.160000 1.205000 -0.310000
v -0.005000 1.155000 -0.268468
v -0.005000 1.205000 -0.268468
v 0.108468 1.155000 -0.155000
v 0.108468 1.205000 -0.155000
v 0.150000 1.155000 0.000000
v 0.150000 1.205000 0.000000
v 0.108468 1.155000 0.155000
v 0.108468 1.205000 0.155000
v -0.005000 1.155000 0.268468
v -0.005000 1.205000 0.268468
v -0.160000 1.155000 0.310000
v -0.160000 1.205000 0.310000
v -0.315000 1.155000 0.268468
v -0.315000 1.205000 0.268468
v -0.428468 1.155000 0.155000
v -0.428468 1.205000 0.155000
v -0.470000 1.155000 0.000000
v -0.470000 1.205000 0.000000
v -0.428468 1.155000 -0.155000
v -0.428468 1.205000 -0.155000
v -0.315000 1.155000 -0.268468
v -0.315000 1.205000 -0.268468
v -0.160000 1.210000 -0.110000
v -0.160000 1.430000 -0.240000
v -0.105000 1.210000 -0.095263
v -0.040000 1.430000 -0.207846
v -0.064737 1.210000 -0.055000
v 0.047846 1.430000 -0.120000
v -0.050000 1.210000 0.000000
v 0.080000 1.430000 0.000000
v -0.064737 1.210000 0.055000
v 0.047846 1.430000 0.120000
v -0.105000 1.210000 0.095263
v -0.040000 1.430000 0.207846
v -0.160000 1.210000 0.110000
v -0.160000 1.430000 0.240000
v -0.215000 1.210000 0.095263
v -0.280000 1.430000 0.207846
v -0.255263 1.210000 0.055000
v -0.367846 1.430000 0.120000
v -0.270000 1.210000 0.000000
v -0.400000 1.430000 0.000000
v -0.255263 1.210000 -0.055000
v -0.367846 1.430000 -0.120000
v -0.215000 1.210000 -0.095263
v -0.280000 1.430000 -0.207846
vn -1.0000 -0.0000 -0.0000
vn -0.0000 -0.0000 -1.0000
vn 1.0000 -0.0000 -0.0000
vn -0.0000 -0.0000 1.0000
vn -0.0000 -1.0000 -0.0000
vn -0.0000 1.0000 -0.0000
vn 0.2588 -0.0000 -0.9659
vn 0.7071 -0.0000 -0.7071
vn 0.9659 -0.0000 -0.2588
vn 0.9659 -0.0000 0.2588
vn 0.7071 -0.0000 0.7071
vn 0.2588 -0.0000 0.9659
vn -0.2588 -0.0000 0.9659
vn -0.7071 -0.0000 0.7071
vn -0.9659 -0.0000 0.2588
vn -0.9659 -0.0000 -0.2588
vn -0.7071 -0.0000 -0.7071
vn -0.2588 -0.0000 -0.9659
vn 0.2248 -0.4957 -0.8389
vn 0.6141 -0.4957 -0.6141
vn 0.8389 -0.4957 -0.2248
vn 0.8389 -0.4957 0.2248
vn 0.6141 -0.4957 0.6141
vn 0.2248 -0.4957 0.8389
vn -0.2248 -0.4957 0.8389
vn -0.6141 -0.4957 0.6141
vn -0.8389 -0.4957 0.2248
vn -0.8389 -0.4957 -0.2248
vn -0.6141 -0.4957 -0.6141
vn -0.2248 -0.4957 -0.8389
vt 0.787525 0.990839
vt 0.817682 0.748520
vt 0.817682 0.990839
vt 0.913219 0.365037
vt 0.943375 0.122718
vt 0.943375 0.365037
vt 0.933359 0.686028
vt 0.963516 0.443709
vt 0.963516 0.686028
vt 0.933359 0.946669
vt 0.963516 0.704350
vt 0.963516 0.946669
vt 0.009161 0.251480
vt 0.251480 0.009161
vt 0.251480 0.251480
vt 0.009161 0.512120
vt 0.251480 0.269801
vt 0.251480 0.512120
vt 0.767385 0.122718
vt 0.797675 0.409207
vt 0.767385 0.409207
vt 0.168163 0.530442
vt 0.198453 0.816931
vt 0.168163 0.816931
vt 0.216774 0.530442
vt 0.247064 0.816931
vt 0.216774 0.816931
vt 0.787525 0.443709
vt 0.817815 0.730199
vt 0.787525 0.730199
vt 0.339615 0.840411
vt 0.309325 0.810121
vt 0.339615 0.810121
vt 0.357937 0.840411
vt 0.388227 0.810121
vt 0.388227 0.840411
vt 0.815996 0.122718
vt 0.846286 0.409207
vt 0.815996 0.409207
vt 0.836137 0.443709
vt 0.866427 0.730199
vt 0.836137 0.730199
vt 0.864607 0.122718
vt 0.894897 0.409207
vt 0.864607 0.409207
vt 0.884748 0.443709
vt 0.915038 0.730199
vt 0.884748 0.730199
vt 0.406548 0.840411
vt 0.436838 0.810121
vt 0.436838 0.840411
vt 0.198453 0.865542
vt 0.168163 0.835253
vt 0.198453 0.835253
vt 0.097932 0.855605
vt 0.125073 0.752619
vt 0.125073 0.855605
vt 0.836004 0.936318
vt 0.863145 0.748520
vt 0.863145 0.936318
vt 0.466499 0.905173
vt 0.493640 0.802188
vt 0.493640 0.905173
vt 0.881466 0.936317
vt 0.908607 0.748520
vt 0.908607 0.936317
vt 0.769204 0.631507
vt 0.666218 0.443709
vt 0.769204 0.443709
vt 0.769204 0.837625
vt 0.666218 0.649828
vt 0.769204 0.649828
vt 0.583462 0.802188
vt 0.604665 0.874564
vt 0.583462 0.874564
vt 0.686795 0.100178
vt 0.707998 0.172554
vt 0.686795 0.172554
vt 0.269801 0.810121
vt 0.291004 0.882498
vt 0.269801 0.882498
vt 0.726319 0.100178
vt 0.747522 0.172554
vt 0.726319 0.172554
vt 0.646460 0.845590
vt 0.625258 0.824387
vt 0.646460 0.824387
vt 0.237977 0.856456
vt 0.216774 0.835253
vt 0.237977 0.835253
vt 0.576264 0.208880
vt 0.627756 0.409207
vt 0.576264 0.407915
vt 0.269801 0.448531
vt 0.307496 0.644036
vt 0.269801 0.647566
vt 0.307496 0.445001
vt 0.358989 0.642744
vt 0.358989 0.443709
vt 0.410482 0.644036
vt 0.410482 0.445001
vt 0.448177 0.647566
vt 0.009161 0.531733
vt 0.060654 0.729476
vt 0.009161 0.730768
vt 0.060654 0.530442
vt 0.112146 0.730768
vt 0.112146 0.531733
vt 0.149842 0.734298
vt 0.646078 0.210172
vt 0.697571 0.407915
vt 0.646078 0.409207
vt 0.697571 0.208880
vt 0.749063 0.409207
vt 0.296456 0.035815
vt 0.468754 0.081983
vt 0.342623 0.208114
vt 0.487075 0.213702
vt 0.524771 0.409207
vt 0.487075 0.412737
vt 0.524771 0.210172
vt 0.342623 0.425388
vt 0.296456 0.253090
vt 0.468754 0.299257
vt 0.511961 0.849093
vt 0.529390 0.802566
vt 0.527035 0.849471
vt 0.640336 0.643429
vt 0.628476 0.677798
vt 0.625257 0.643429
vt 0.643554 0.677798
vt 0.629654 0.724747
vt 0.644732 0.724747
vt 0.628476 0.771697
vt 0.643554 0.771697
vt 0.625258 0.806066
vt 0.562785 0.802188
vt 0.550067 0.849471
vt 0.547712 0.802566
vt 0.565140 0.849093
vt 0.550067 0.896435
vt 0.565140 0.896057
vt 0.547712 0.930874
vt 0.873333 0.009161
vt 0.859433 0.056110
vt 0.858255 0.009161
vt 0.874511 0.056110
vt 0.858255 0.103059
vt 0.466499 0.510106
vt 0.623594 0.468012
vt 0.581501 0.625107
vt 0.514317 0.930496
vt 0.527035 0.896435
vt 0.529390 0.930874
vt 0.511961 0.896057
vt 0.511378 0.033463
vt 0.668474 0.075557
vt 0.553472 0.190559
vt 0.757245 0.045509
vt 0.686795 0.062168
vt 0.687213 0.045509
vt 0.337990 0.665887
vt 0.270943 0.712184
vt 0.269801 0.699988
vt 0.340481 0.692496
vt 0.271361 0.728844
vt 0.341393 0.728844
vt 0.270943 0.745503
vt 0.340481 0.765191
vt 0.269801 0.757698
vt 0.078699 0.752619
vt 0.009579 0.788967
vt 0.009161 0.772308
vt 0.079611 0.788967
vt 0.009161 0.805627
vt 0.359715 0.699988
vt 0.430395 0.692496
vt 0.360856 0.712184
vt 0.361274 0.728843
vt 0.431307 0.728843
vt 0.360856 0.745503
vt 0.485314 0.765051
vt 0.517902 0.643429
vt 0.606936 0.732463
vt 0.430395 0.765191
vt 0.359715 0.757698
vt 0.686795 0.028849
vt 0.799127 0.009161
vt 0.839934 0.049968
vt 0.784190 0.064904
vt 0.787525 0.748520
vt 0.913219 0.122718
vt 0.933359 0.443709
vt 0.933359 0.704350
vt 0.009161 0.009161
vt 0.009161 0.269801
vt 0.797675 0.122718
vt 0.198453 0.530442
vt 0.247064 0.530442
vt 0.817815 0.443709
vt 0.309325 0.840411
vt 0.357937 0.810121
vt 0.846286 0.122718
vt 0.866427 0.443709
vt 0.894897 0.122718
vt 0.915038 0.443709
vt 0.406548 0.810121
vt 0.168163 0.865542
vt 0.097932 0.752619
vt 0.836004 0.748520
vt 0.466499 0.802188
vt 0.881466 0.748520
vt 0.666218 0.631506
vt 0.666218 0.837625
vt 0.604665 0.802188
vt 0.707998 0.100178
vt 0.291004 0.810121
vt 0.747522 0.100178
vt 0.625258 0.845590
vt 0.216774 0.856456
vt 0.627756 0.210172
vt 0.448177 0.448531
vt 0.149842 0.535263
vt 0.749063 0.210172
vt 0.296456 0.181459
vt 0.269801 0.135292
vt 0.269801 0.081983
vt 0.342623 0.009161
vt 0.395932 0.009161
vt 0.442099 0.035815
vt 0.468754 0.135292
vt 0.442099 0.181459
vt 0.395932 0.208114
vt 0.468754 0.352566
vt 0.442099 0.398733
vt 0.395932 0.425388
vt 0.296456 0.398733
vt 0.269801 0.352566
vt 0.269801 0.299257
vt 0.342623 0.226435
vt 0.395932 0.226435
vt 0.442099 0.253090
vt 0.514317 0.802188
vt 0.640336 0.806066
vt 0.562785 0.930496
vt 0.873333 0.103059
vt 0.532895 0.625107
vt 0.490802 0.600805
vt 0.466499 0.558711
vt 0.490802 0.468012
vt 0.532895 0.443709
vt 0.581501 0.443709
vt 0.647897 0.510106
vt 0.647897 0.558711
vt 0.623594 0.600805
vt 0.511378 0.166256
vt 0.487075 0.124163
vt 0.487075 0.075557
vt 0.553472 0.009161
vt 0.602077 0.009161
vt 0.644171 0.033463
vt 0.668474 0.124163
vt 0.644171 0.166256
vt 0.602077 0.190559
vt 0.756333 0.081856
vt 0.337990 0.791800
vt 0.078699 0.825315
vt 0.427903 0.665887
vt 0.588121 0.765051
vt 0.555533 0.783866
vt 0.517902 0.783866
vt 0.466499 0.732463
vt 0.466499 0.694833
vt 0.485314 0.662244
vt 0.555533 0.643429
vt 0.588121 0.662244
vt 0.606936 0.694833
vt 0.427903 0.791800
vt 0.756333 0.009161
vt 0.775567 0.049968
vt 0.775567 0.032721
vt 0.784190 0.017784
vt 0.816374 0.009161
vt 0.831310 0.017784
vt 0.839934 0.032721
vt 0.831310 0.064904
vt 0.816374 0.073528
vt 0.799127 0.073528
s 0
f 2/1/1 3/2/1 1/3/1
f 4/4/2 7/5/2 3/6/2
f 8/7/3 5/8/3 7/9/3
f 6/10/4 1/11/4 5/12/4
f 7/13/5 1/14/5 3/15/5
f 4/16/6 6/17/6 8/18/6
f 10/19/1 11/20/1 9/21/1
f 12/22/2 15/23/2 11/24/2
f 16/25/3 13/26/3 15/27/3
f 14/28/4 9/29/4 13/30/4
f 15/31/5 9/32/5 11/33/5
f 12/34/6 14/35/6 16/36/6
f 18/37/1 19/38/1 17/39/1
f 20/40/2 23/41/2 19/42/2
f 24/43/3 21/44/3 23/45/3
f 22/46/4 17/47/4 21/48/4
f 23/49/5 17/50/5 19/51/5
f 20/52/6 22/53/6 24/54/6
f 26/55/1 27/56/1 25/57/1
f 28/58/2 31/59/2 27/60/2
f 32/61/3 29/62/3 31/63/3
f 30/64/4 25/65/4 29/66/4
f 31/67/5 25/68/5 27/69/5
f 28/70/6 30/71/6 32/72/6
f 34/73/1 35/74/1 33/75/1
f 36/76/2 39/77/2 35/78/2
f 40/79/3 37/80/3 39/81/3
f 38/82/4 33/83/4 37/84/4
f 39/85/5 33/86/5 35/87/5
f 36/88/6 38/89/6 40/90/6
f 42/91/7 43/92/7 41/93/7
f 44/94/8 45/95/8 43/96/8
f 46/97/9 47/98/9 45/95/9
f 48/99/10 49/100/10 47/98/10
f 50/101/11 51/102/11 49/100/11
f 52/103/12 53/104/12 51/105/12
f 54/106/13 55/107/13 53/104/13
f 56/108/14 57/109/14 55/107/14
f 58/110/15 59/111/15 57/112/15
f 60/113/16 61/114/16 59/111/16
f 62/115/6 54/116/6 46/117/6
f 62/118/17 63/119/17 61/120/17
f 64/121/18 41/93/18 63/119/18
f 47/122/5 55/123/5 63/124/5
f 66/125/7 67/126/7 65/127/7
f 68/128/8 69/129/8 67/130/8
f 70/131/9 71/132/9 69/129/9
f 72/133/10 73/134/10 71/132/10
f 74/135/11 75/136/11 73/134/11
f 76/137/12 77/138/12 75/139/12
f 78/140/13 79/141/13 77/138/13
f 80/142/14 81/143/14 79/141/14
f 82/144/15 83/145/15 81/146/15
f 84/147/16 85/148/16 83/145/16
f 86/149/6 78/150/6 70/151/6
f 86/152/17 87/153/17 85/154/17
f 88/155/18 65/127/18 87/153/18
f 71/156/5 79/157/5 87/158/5
f 90/159/19 91/160/19 89/161/19
f 92/162/20 93/163/20 91/164/20
f 94/165/21 95/166/21 93/163/21
f 96/167/22 97/168/22 95/166/22
f 98/169/23 99/170/23 97/168/23
f 100/171/24 101/172/24 99/173/24
f 102/174/25 103/175/25 101/172/25
f 103/176/26 106/177/26 105/178/26
f 106/177/27 107/179/27 105/178/27
f 108/180/28 109/181/28 107/179/28
f 110/182/6 102/183/6 94/184/6
f 110/185/29 111/186/29 109/181/29
f 111/187/30 90/159/30 89/161/30
f 95/188/5 103/189/5 111/190/5
f 2/1/1 4/191/1 3/2/1
f 4/4/2 8/192/2 7/5/2
f 8/7/3 6/193/3 5/8/3
f 6/10/4 2/194/4 1/11/4
f 7/13/5 5/195/5 1/14/5
f 4/16/6 2/196/6 6/17/6
f 10/19/1 12/197/1 11/20/1
f 12/22/2 16/198/2 15/23/2
f 16/25/3 14/199/3 13/26/3
f 14/28/4 10/200/4 9/29/4
f 15/31/5 13/201/5 9/32/5
f 12/34/6 10/202/6 14/35/6
f 18/37/1 20/203/1 19/38/1
f 20/40/2 24/204/2 23/41/2
f 24/43/3 22/205/3 21/44/3
f 22/46/4 18/206/4 17/47/4
f 23/49/5 21/207/5 17/50/5
f 20/52/6 18/208/6 22/53/6
f 26/55/1 28/209/1 27/56/1
f 28/58/2 32/210/2 31/59/2
f 32/61/3 30/211/3 29/62/3
f 30/64/4 26/212/4 25/65/4
f 31/67/5 29/213/5 25/68/5
f 28/70/6 26/214/6 30/71/6
f 34/73/1 36/215/1 35/74/1
f 36/76/2 40/216/2 39/77/2
f 40/79/3 38/217/3 37/80/3
f 38/82/4 34/218/4 33/83/4
f 39/85/5 37/219/5 33/86/5
f 36/88/6 34/220/6 38/89/6
f 42/91/7 44/221/7 43/92/7
f 44/94/8 46/97/8 45/95/8
f 46/97/9 48/99/9 47/98/9
f 48/99/10 50/101/10 49/100/10
f 50/101/11 52/222/11 51/102/11
f 52/103/12 54/106/12 53/104/12
f 54/106/13 56/108/13 55/107/13
f 56/108/14 58/223/14 57/109/14
f 58/110/15 60/113/15 59/111/15
f 60/113/16 62/224/16 61/114/16
f 46/117/6 44/225/6 42/226/6
f 42/226/6 64/227/6 62/115/6
f 62/115/6 60/228/6 58/229/6
f 58/229/6 56/230/6 54/116/6
f 54/116/6 52/231/6 50/232/6
f 50/232/6 48/233/6 46/117/6
f 46/117/6 42/226/6 62/115/6
f 62/115/6 58/229/6 54/116/6
f 54/116/6 50/232/6 46/117/6
f 62/118/17 64/121/17 63/119/17
f 64/121/18 42/91/18 41/93/18
f 63/124/5 41/234/5 43/235/5
f 43/235/5 45/236/5 47/122/5
f 47/122/5 49/237/5 51/238/5
f 51/238/5 53/239/5 55/123/5
f 55/123/5 57/240/5 59/241/5
f 59/241/5 61/242/5 63/124/5
f 63/124/5 43/235/5 47/122/5
f 47/122/5 51/238/5 55/123/5
f 55/123/5 59/241/5 63/124/5
f 66/125/7 68/243/7 67/126/7
f 68/128/8 70/131/8 69/129/8
f 70/131/9 72/133/9 71/132/9
f 72/133/10 74/135/10 73/134/10
f 74/135/11 76/244/11 75/136/11
f 76/137/12 78/140/12 77/138/12
f 78/140/13 80/142/13 79/141/13
f 80/142/14 82/245/14 81/143/14
f 82/144/15 84/147/15 83/145/15
f 84/147/16 86/246/16 85/148/16
f 70/151/6 68/247/6 66/248/6
f 66/248/6 88/249/6 86/149/6
f 86/149/6 84/250/6 82/251/6
f 82/251/6 80/252/6 78/150/6
f 78/150/6 76/253/6 74/254/6
f 74/254/6 72/255/6 70/151/6
f 70/151/6 66/248/6 86/149/6
f 86/149/6 82/251/6 78/150/6
f 78/150/6 74/254/6 70/151/6
f 86/152/17 88/155/17 87/153/17
f 88/155/18 66/125/18 65/127/18
f 87/158/5 65/256/5 67/257/5
f 67/257/5 69/258/5 71/156/5
f 71/156/5 73/259/5 75/260/5
f 75/260/5 77/261/5 79/157/5
f 79/157/5 81/262/5 83/263/5
f 83/263/5 85/264/5 87/158/5
f 87/158/5 67/257/5 71/156/5
f 71/156/5 75/260/5 79/157/5
f 79/157/5 83/263/5 87/158/5
f 90/159/19 92/265/19 91/160/19
f 92/162/20 94/165/20 93/163/20
f 94/165/21 96/167/21 95/166/21
f 96/167/22 98/169/22 97/168/22
f 98/169/23 100/266/23 99/170/23
f 100/171/24 102/174/24 101/172/24
f 102/174/25 104/267/25 103/175/25
f 103/176/26 104/268/26 106/177/26
f 106/177/27 108/180/27 107/179/27
f 108/180/28 110/185/28 109/181/28
f 94/184/6 92/269/6 90/270/6
f 90/270/6 112/271/6 110/182/6
f 110/182/6 108/272/6 106/273/6
f 106/273/6 104/274/6 102/183/6
f 102/183/6 100/275/6 98/276/6
f 98/276/6 96/277/6 94/184/6
f 94/184/6 90/270/6 110/182/6
f 110/182/6 106/273/6 102/183/6
f 102/183/6 98/276/6 94/184/6
f 110/185/29 112/278/29 111/186/29
f 111/187/30 112/279/30 90/159/30
f 111/190/5 89/280/5 91/281/5
f 91/281/5 93/282/5 95/188/5
f 95/188/5 97/283/5 99/284/5
f 99/284/5 101/285/5 103/189/5
f 103/189/5 105/286/5 107/287/5
f 107/287/5 109/288/5 111/190/5
f 111/190/5 91/281/5 95/188/5
f 95/188/5 99/284/5 103/189/5
f 103/189/5 107/287/5 111/190/5
