# Blender 5.2.0 LTS
# www.blender.org
o distillatore_ingranaggio
v 0.205000 0.000000 0.000000
v 0.170000 0.000000 0.035000
v 0.135000 0.000000 0.000000
v 0.170000 -0.000000 -0.035000
v 0.177535 0.102500 -0.000000
v 0.147224 0.085000 0.035000
v 0.116913 0.067500 -0.000000
v 0.147224 0.085000 -0.035000
v 0.102500 0.177535 -0.000000
v 0.085000 0.147224 0.035000
v 0.067500 0.116913 -0.000000
v 0.085000 0.147224 -0.035000
v 0.000000 0.205000 -0.000000
v 0.000000 0.170000 0.035000
v 0.000000 0.135000 -0.000000
v 0.000000 0.170000 -0.035000
v -0.102500 0.177535 -0.000000
v -0.085000 0.147224 0.035000
v -0.067500 0.116913 -0.000000
v -0.085000 0.147224 -0.035000
v -0.177535 0.102500 -0.000000
v -0.147224 0.085000 0.035000
v -0.116913 0.067500 -0.000000
v -0.147224 0.085000 -0.035000
v -0.205000 0.000000 -0.000000
v -0.170000 0.000000 0.035000
v -0.135000 0.000000 -0.000000
v -0.170000 0.000000 -0.035000
v -0.177535 -0.102500 0.000000
v -0.147224 -0.085000 0.035000
v -0.116913 -0.067500 0.000000
v -0.147224 -0.085000 -0.035000
v -0.102500 -0.177535 0.000000
v -0.085000 -0.147224 0.035000
v -0.067500 -0.116913 0.000000
v -0.085000 -0.147224 -0.035000
v 0.000000 -0.205000 0.000000
v 0.000000 -0.170000 0.035000
v 0.000000 -0.135000 0.000000
v 0.000000 -0.170000 -0.035000
v 0.102500 -0.177535 0.000000
v 0.085000 -0.147224 0.035000
v 0.067500 -0.116913 0.000000
v 0.085000 -0.147224 -0.035000
v 0.177535 -0.102500 0.000000
v 0.147224 -0.085000 0.035000
v 0.116913 -0.067500 0.000000
v 0.147224 -0.085000 -0.035000
v 0.172500 -0.027500 0.025000
v 0.172500 0.027500 0.025000
v 0.172500 -0.027500 -0.025000
v 0.172500 0.027500 -0.025000
v 0.227500 -0.027500 0.025000
v 0.227500 0.027500 0.025000
v 0.227500 -0.027500 -0.025000
v 0.227500 0.027500 -0.025000
v 0.155720 0.079145 0.025000
v 0.123391 0.123641 0.025000
v 0.155720 0.079145 -0.025000
v 0.123391 0.123641 -0.025000
v 0.200215 0.111473 0.025000
v 0.167887 0.155969 0.025000
v 0.200215 0.111473 -0.025000
v 0.167887 0.155969 -0.025000
v 0.079459 0.155559 0.025000
v 0.027151 0.172555 0.025000
v 0.079459 0.155559 -0.025000
v 0.027151 0.172555 -0.025000
v 0.096455 0.207867 0.025000
v 0.044147 0.224863 0.025000
v 0.096455 0.207867 -0.025000
v 0.044147 0.224863 -0.025000
v -0.027151 0.172555 0.025000
v -0.079459 0.155559 0.025000
v -0.027151 0.172555 -0.025000
v -0.079459 0.155559 -0.025000
v -0.044147 0.224863 0.025000
v -0.096455 0.207867 0.025000
v -0.044147 0.224863 -0.025000
v -0.096455 0.207867 -0.025000
v -0.123391 0.123641 0.025000
v -0.155720 0.079145 0.025000
v -0.123391 0.123641 -0.025000
v -0.155720 0.079145 -0.025000
v -0.167887 0.155969 0.025000
v -0.200215 0.111473 0.025000
v -0.167887 0.155969 -0.025000
v -0.200215 0.111473 -0.025000
v -0.172500 0.027500 0.025000
v -0.172500 -0.027500 0.025000
v -0.172500 0.027500 -0.025000
v -0.172500 -0.027500 -0.025000
v -0.227500 0.027500 0.025000
v -0.227500 -0.027500 0.025000
v -0.227500 0.027500 -0.025000
v -0.227500 -0.027500 -0.025000
v -0.155720 -0.079145 0.025000
v -0.123391 -0.123641 0.025000
v -0.155720 -0.079145 -0.025000
v -0.123391 -0.123641 -0.025000
v -0.200215 -0.111473 0.025000
v -0.167887 -0.155969 0.025000
v -0.200215 -0.111473 -0.025000
v -0.167887 -0.155969 -0.025000
v -0.079459 -0.155559 0.025000
v -0.027151 -0.172555 0.025000
v -0.079459 -0.155559 -0.025000
v -0.027151 -0.172555 -0.025000
v -0.096455 -0.207867 0.025000
v -0.044147 -0.224863 0.025000
v -0.096455 -0.207867 -0.025000
v -0.044147 -0.224863 -0.025000
v 0.027151 -0.172555 0.025000
v 0.079459 -0.155559 0.025000
v 0.027151 -0.172555 -0.025000
v 0.079459 -0.155559 -0.025000
v 0.044147 -0.224863 0.025000
v 0.096455 -0.207867 0.025000
v 0.044147 -0.224863 -0.025000
v 0.096455 -0.207867 -0.025000
v 0.123391 -0.123641 0.025000
v 0.155720 -0.079145 0.025000
v 0.123391 -0.123641 -0.025000
v 0.155720 -0.079145 -0.025000
v 0.167887 -0.155969 0.025000
v 0.200215 -0.111473 0.025000
v 0.167887 -0.155969 -0.025000
v 0.200215 -0.111473 -0.025000
v 0.000000 0.050000 -0.045000
v 0.000000 0.050000 0.045000
v 0.035355 0.035355 -0.045000
v 0.035355 0.035355 0.045000
v 0.050000 -0.000000 -0.045000
v 0.050000 0.000000 0.045000
v 0.035355 -0.035355 -0.045000
v 0.035355 -0.035355 0.045000
v 0.000000 -0.050000 -0.045000
v 0.000000 -0.050000 0.045000
v -0.035355 -0.035355 -0.045000
v -0.035355 -0.035355 0.045000
v -0.050000 -0.000000 -0.045000
v -0.050000 0.000000 0.045000
v -0.035355 0.035355 -0.045000
v -0.035355 0.035355 0.045000
vn 0.6947 0.1862 0.6947
vn -0.6947 -0.1862 0.6947
vn -0.6947 -0.1862 -0.6947
vn 0.6947 0.1862 -0.6947
vn 0.5086 0.5086 0.6947
vn -0.5086 -0.5086 0.6947
vn -0.5086 -0.5086 -0.6947
vn 0.5086 0.5086 -0.6947
vn 0.1862 0.6947 0.6947
vn -0.1862 -0.6947 0.6947
vn -0.1862 -0.6947 -0.6947
vn 0.1862 0.6947 -0.6947
vn -0.1862 0.6947 0.6947
vn 0.1862 -0.6947 0.6947
vn 0.1862 -0.6947 -0.6947
vn -0.1862 0.6947 -0.6947
vn -0.5086 0.5086 0.6947
vn 0.5086 -0.5086 0.6947
vn 0.5086 -0.5086 -0.6947
vn -0.5086 0.5086 -0.6947
vn -0.6947 0.1862 0.6947
vn 0.6947 -0.1862 0.6947
vn 0.6947 -0.1862 -0.6947
vn -0.6947 0.1862 -0.6947
vn -1.0000 -0.0000 -0.0000
vn -0.0000 -0.0000 -1.0000
vn 1.0000 -0.0000 -0.0000
vn -0.0000 -0.0000 1.0000
vn -0.0000 -1.0000 -0.0000
vn -0.0000 1.0000 -0.0000
vn -0.8090 -0.5878 -0.0000
vn 0.8090 0.5878 -0.0000
vn 0.5878 -0.8090 -0.0000
vn -0.5878 0.8090 -0.0000
vn -0.3090 -0.9511 -0.0000
vn 0.3090 0.9511 -0.0000
vn 0.9511 -0.3090 -0.0000
vn -0.9511 0.3090 -0.0000
vn 0.3090 -0.9511 -0.0000
vn -0.3090 0.9511 -0.0000
vn 0.9511 0.3090 -0.0000
vn -0.9511 -0.3090 -0.0000
vn 0.8090 -0.5878 -0.0000
vn -0.8090 0.5878 -0.0000
vn 0.5878 0.8090 -0.0000
vn -0.5878 -0.8090 -0.0000
vn 0.3827 0.9239 -0.0000
vn 0.9239 0.3827 -0.0000
vn 0.9239 -0.3827 -0.0000
vn 0.3827 -0.9239 -0.0000
vn -0.3827 -0.9239 -0.0000
vn -0.9239 -0.3827 -0.0000
vn -0.9239 0.3827 -0.0000
vn -0.3827 0.9239 -0.0000
vt 0.458384 0.418660
vt 0.527539 0.338530
vt 0.553027 0.364018
vt 0.010806 0.454660
vt 0.046851 0.542198
vt 0.010806 0.542198
vt 0.046851 0.472683
vt 0.082896 0.542198
vt 0.070307 0.134389
vt 0.116367 0.039091
vt 0.134389 0.070307
vt 0.349100 0.418660
vt 0.449055 0.383843
vt 0.358429 0.383843
vt 0.439726 0.349027
vt 0.101523 0.152412
vt 0.046851 0.221927
vt 0.039091 0.116367
vt 0.712739 0.440273
vt 0.676694 0.545833
vt 0.676694 0.458295
vt 0.198211 0.542198
vt 0.234256 0.611714
vt 0.198211 0.629736
vt 0.234256 0.542198
vt 0.270301 0.629736
vt 0.070307 0.309465
vt 0.010806 0.221927
vt 0.712739 0.651393
vt 0.712739 0.545833
vt 0.384753 0.631342
vt 0.449050 0.692064
vt 0.420823 0.714480
vt 0.234256 0.472683
vt 0.270301 0.542198
vt 0.134389 0.373547
vt 0.039091 0.327487
vt 0.361559 0.528069
vt 0.349100 0.636641
vt 0.395085 0.541307
vt 0.420407 0.626043
vt 0.221927 0.360958
vt 0.152412 0.342331
vt 0.221927 0.397003
vt 0.116367 0.404763
vt 0.449050 0.468500
vt 0.104509 0.542198
vt 0.140554 0.611714
vt 0.104509 0.629736
vt 0.176599 0.542198
vt 0.176599 0.629736
vt 0.309465 0.373547
vt 0.221927 0.433048
vt 0.665326 0.349884
vt 0.629281 0.244324
vt 0.665326 0.244324
vt 0.104509 0.454660
vt 0.140554 0.542198
vt 0.176599 0.454660
vt 0.701371 0.331862
vt 0.701371 0.244324
vt 0.458384 0.010806
vt 0.358429 0.045623
vt 0.349100 0.010806
vt 0.449055 0.045623
vt 0.367758 0.080440
vt 0.489289 0.527811
vt 0.501879 0.615348
vt 0.470663 0.597326
vt 0.525334 0.527811
vt 0.533095 0.633371
vt 0.553027 0.065448
vt 0.582992 0.527811
vt 0.619037 0.597326
vt 0.582992 0.615348
vt 0.470663 0.458295
vt 0.770397 0.545833
vt 0.734352 0.440273
vt 0.770397 0.458295
vt 0.607669 0.160091
vt 0.527539 0.090936
vt 0.582992 0.440273
vt 0.619037 0.527811
vt 0.619037 0.458295
vt 0.655082 0.527811
vt 0.734352 0.651393
vt 0.734352 0.545833
vt 0.607669 0.269375
vt 0.572852 0.169420
vt 0.538035 0.250717
vt 0.538035 0.178749
vt 0.291442 0.101523
vt 0.221927 0.046851
vt 0.309465 0.070307
vt 0.327487 0.039091
vt 0.572852 0.260046
vt 0.046851 0.611714
vt 0.010806 0.629736
vt 0.082896 0.629736
vt 0.221927 0.010806
vt 0.884697 0.807903
vt 0.833204 0.751261
vt 0.884697 0.751261
vt 0.802683 0.127565
vt 0.746040 0.184207
vt 0.746040 0.127565
vt 0.676694 0.829515
vt 0.728187 0.886157
vt 0.676694 0.886157
vt 0.733337 0.751261
vt 0.676694 0.807903
vt 0.676694 0.751261
vt 0.400593 0.870990
vt 0.349100 0.814347
vt 0.400593 0.814347
vt 0.875788 0.067448
vt 0.824295 0.010806
vt 0.875788 0.010806
vt 0.943225 0.167315
vt 0.897400 0.218808
vt 0.897400 0.167315
vt 0.857881 0.300966
vt 0.801239 0.244324
vt 0.857881 0.244324
vt 0.906309 0.724499
vt 0.952133 0.673006
vt 0.952133 0.724499
vt 0.639634 0.693603
vt 0.582992 0.636961
vt 0.639634 0.636961
vt 0.906309 0.802753
vt 0.952133 0.751261
vt 0.952133 0.802753
vt 0.229603 0.970878
vt 0.275428 0.919385
vt 0.275428 0.970878
vt 0.921757 0.494143
vt 0.870264 0.440273
vt 0.921757 0.440273
vt 0.802683 0.067448
vt 0.746040 0.010806
vt 0.802682 0.010806
vt 0.792009 0.650652
vt 0.843502 0.596782
vt 0.843502 0.650652
vt 0.754949 0.729648
vt 0.811591 0.673006
vt 0.811591 0.729648
vt 0.870264 0.515755
vt 0.921757 0.569625
vt 0.870264 0.569625
vt 0.824295 0.167315
vt 0.875788 0.221185
vt 0.824295 0.221185
vt 0.062299 0.897773
vt 0.010806 0.843903
vt 0.062299 0.843903
vt 0.582992 0.793470
vt 0.639634 0.850112
vt 0.582992 0.850112
vt 0.897400 0.086289
vt 0.948893 0.140158
vt 0.897400 0.140158
vt 0.754949 0.807903
vt 0.811591 0.751261
vt 0.811591 0.807903
vt 0.582992 0.871725
vt 0.634485 0.925595
vt 0.582992 0.925595
vt 0.089061 0.843903
vt 0.140554 0.897773
vt 0.089061 0.897773
vt 0.952133 0.829515
vt 0.906309 0.881008
vt 0.906309 0.829515
vt 0.676694 0.673006
vt 0.733337 0.729648
vt 0.676694 0.729648
vt 0.906309 0.954113
vt 0.952133 0.902621
vt 0.952133 0.954113
vt 0.801239 0.322579
vt 0.857881 0.379221
vt 0.801239 0.379221
vt 0.470663 0.974513
vt 0.516487 0.923020
vt 0.516487 0.974513
vt 0.676694 0.959263
vt 0.722519 0.907770
vt 0.722519 0.959263
vt 0.806442 0.886157
vt 0.754949 0.829515
vt 0.806442 0.829515
vt 0.067448 0.765648
vt 0.010806 0.822290
vt 0.010806 0.765648
vt 0.833204 0.829515
vt 0.884697 0.886157
vt 0.833204 0.886157
vt 0.161883 0.765648
vt 0.105241 0.822290
vt 0.105241 0.765648
vt 0.875788 0.145703
vt 0.824295 0.089061
vt 0.875788 0.089061
vt 0.884697 0.729648
vt 0.833204 0.673006
vt 0.884697 0.673006
vt 0.789956 0.907770
vt 0.744131 0.959263
vt 0.744131 0.907770
vt 0.256317 0.822290
vt 0.199675 0.765648
vt 0.256317 0.765648
vt 0.811568 0.959263
vt 0.857393 0.907770
vt 0.857393 0.959263
vt 0.470663 0.769283
vt 0.527305 0.825925
vt 0.470663 0.825925
vt 0.010806 0.970878
vt 0.056631 0.919385
vt 0.056631 0.970878
vt 0.984044 0.648275
vt 0.938220 0.596782
vt 0.984044 0.596782
vt 0.251168 0.897773
vt 0.199675 0.843903
vt 0.251168 0.843903
vt 0.582992 0.771858
vt 0.639634 0.715216
vt 0.639634 0.771858
vt 0.879493 0.244324
vt 0.930986 0.298194
vt 0.879493 0.298194
vt 0.779626 0.244324
vt 0.722984 0.300966
vt 0.722984 0.244324
vt 0.272780 0.843903
vt 0.324273 0.897773
vt 0.272780 0.897773
vt 0.879493 0.322579
vt 0.930986 0.376449
vt 0.879493 0.376449
vt 0.400593 0.946472
vt 0.349100 0.892602
vt 0.400593 0.892602
vt 0.722984 0.379221
vt 0.779626 0.322579
vt 0.779626 0.379221
vt 0.470663 0.847538
vt 0.522156 0.901408
vt 0.470663 0.901408
vt 0.405742 0.736093
vt 0.349100 0.792735
vt 0.349100 0.736093
vt 0.865115 0.596782
vt 0.916608 0.650652
vt 0.865115 0.650652
vt 0.897400 0.010806
vt 0.948893 0.064676
vt 0.897400 0.064676
vt 0.323754 0.765648
vt 0.277930 0.817141
vt 0.277930 0.765648
vt 0.848651 0.496915
vt 0.792009 0.440273
vt 0.848651 0.440273
vt 0.089061 0.970878
vt 0.134885 0.919385
vt 0.134885 0.970878
vt 0.792009 0.518527
vt 0.848652 0.575170
vt 0.792009 0.575170
vt 0.943369 0.491766
vt 0.989194 0.440273
vt 0.989194 0.491766
vt 0.162166 0.970878
vt 0.207991 0.919385
vt 0.207991 0.970878
vt 0.047217 0.651349
vt 0.083628 0.744036
vt 0.047217 0.744036
vt 0.105241 0.651349
vt 0.141652 0.744036
vt 0.105241 0.744036
vt 0.141652 0.651349
vt 0.178063 0.744036
vt 0.199675 0.651349
vt 0.236086 0.744036
vt 0.199675 0.744036
vt 0.236086 0.651349
vt 0.272497 0.744036
vt 0.470663 0.654983
vt 0.507074 0.747671
vt 0.470663 0.747671
vt 0.657149 0.010806
vt 0.724428 0.038674
vt 0.696560 0.105953
vt 0.507074 0.654983
vt 0.543485 0.747671
vt 0.010806 0.651349
vt 0.010806 0.744036
vt 0.696560 0.127565
vt 0.724428 0.194844
vt 0.657149 0.222712
vt 0.082896 0.454660
vt 0.367758 0.349027
vt 0.082896 0.221927
vt 0.676694 0.633371
vt 0.270301 0.454660
vt 0.428611 0.554544
vt 0.426635 0.440273
vt 0.327487 0.404763
vt 0.629281 0.331862
vt 0.140554 0.472683
vt 0.439726 0.080440
vt 0.561379 0.527811
vt 0.501879 0.440273
vt 0.655082 0.440273
vt 0.770397 0.633371
vt 0.221927 0.082896
vt 0.833204 0.807903
vt 0.802683 0.184207
vt 0.728187 0.829515
vt 0.733337 0.807903
vt 0.349100 0.870990
vt 0.824295 0.067448
vt 0.943225 0.218808
vt 0.801239 0.300966
vt 0.906309 0.673006
vt 0.582992 0.693603
vt 0.906309 0.751261
vt 0.229603 0.919385
vt 0.870264 0.494143
vt 0.746040 0.067448
vt 0.792009 0.596782
vt 0.754949 0.673006
vt 0.921757 0.515755
vt 0.875788 0.167315
vt 0.010806 0.897773
vt 0.639634 0.793470
vt 0.948893 0.086289
vt 0.754949 0.751261
vt 0.634485 0.871725
vt 0.140554 0.843903
vt 0.952133 0.881008
vt 0.733337 0.673006
vt 0.906309 0.902621
vt 0.857881 0.322579
vt 0.470663 0.923020
vt 0.676694 0.907770
vt 0.754949 0.886157
vt 0.067448 0.822290
vt 0.884697 0.829515
vt 0.161883 0.822290
vt 0.824295 0.145703
vt 0.833204 0.729648
vt 0.789956 0.959263
vt 0.199675 0.822290
vt 0.811568 0.907770
vt 0.527305 0.769283
vt 0.010806 0.919385
vt 0.938220 0.648275
vt 0.199675 0.897773
vt 0.582992 0.715216
vt 0.930986 0.244324
vt 0.779626 0.300966
vt 0.324273 0.843903
vt 0.930986 0.322579
vt 0.349100 0.946472
vt 0.722984 0.322579
vt 0.522156 0.847538
vt 0.405742 0.792735
vt 0.916608 0.596782
vt 0.948893 0.010806
vt 0.323754 0.817141
vt 0.792009 0.496915
vt 0.089061 0.919385
vt 0.848652 0.518527
vt 0.943369 0.440273
vt 0.162166 0.919385
vt 0.083628 0.651349
vt 0.178063 0.651349
vt 0.272497 0.651349
vt 0.657149 0.105953
vt 0.629281 0.078085
vt 0.629281 0.038674
vt 0.696560 0.010806
vt 0.724428 0.078085
vt 0.543485 0.654983
vt 0.629281 0.194844
vt 0.629281 0.155433
vt 0.657149 0.127565
vt 0.724428 0.155433
vt 0.696560 0.222712
s 0
f 5/1/1 2/2/1 1/3/1
f 6/4/2 3/5/2 2/6/2
f 7/7/3 4/8/3 3/5/3
f 8/9/4 1/10/4 4/11/4
f 9/12/5 6/13/5 5/1/5
f 10/14/6 7/15/6 6/13/6
f 7/16/7 12/17/7 8/9/7
f 12/17/8 5/18/8 8/9/8
f 9/19/9 14/20/9 10/21/9
f 14/22/10 11/23/10 10/24/10
f 15/25/11 12/26/11 11/23/11
f 16/27/12 9/28/12 12/17/12
f 17/29/13 14/20/13 13/30/13
f 18/31/14 15/32/14 14/33/14
f 19/34/15 16/35/15 15/25/15
f 20/36/16 13/37/16 16/27/16
f 21/38/17 18/31/17 17/39/17
f 22/40/18 19/41/18 18/31/18
f 23/42/19 20/36/19 19/43/19
f 24/44/20 17/45/20 20/36/20
f 21/38/21 26/46/21 22/40/21
f 26/47/22 23/48/22 22/49/22
f 23/48/23 28/50/23 24/51/23
f 28/52/24 21/53/24 24/44/24
f 29/54/2 26/55/2 25/56/2
f 30/57/1 27/58/1 26/47/1
f 27/58/4 32/59/4 28/50/4
f 32/60/3 25/56/3 28/61/3
f 33/62/6 30/63/6 29/64/6
f 34/65/5 31/66/5 30/63/5
f 35/67/8 32/68/8 31/69/8
f 36/70/7 29/71/7 32/68/7
f 37/72/10 34/65/10 33/62/10
f 38/73/9 35/74/9 34/75/9
f 39/76/12 36/70/12 35/67/12
f 40/77/11 33/78/11 36/79/11
f 41/80/14 38/81/14 37/72/14
f 42/82/13 39/83/13 38/73/13
f 43/84/16 40/85/16 39/83/16
f 40/77/15 41/86/15 37/87/15
f 45/88/18 42/89/18 41/80/18
f 42/89/17 47/90/17 43/91/17
f 43/92/20 48/93/20 44/94/20
f 48/93/19 41/95/19 44/94/19
f 1/3/22 46/96/22 45/88/22
f 2/6/21 47/97/21 46/98/21
f 3/5/24 48/99/24 47/97/24
f 4/11/23 45/100/23 48/93/23
f 50/101/25 51/102/25 49/103/25
f 52/104/26 55/105/26 51/106/26
f 56/107/27 53/108/27 55/109/27
f 54/110/28 49/111/28 53/112/28
f 55/113/29 49/114/29 51/115/29
f 52/116/30 54/117/30 56/118/30
f 58/119/31 59/120/31 57/121/31
f 60/122/26 63/123/26 59/124/26
f 64/125/32 61/126/32 63/127/32
f 62/128/28 57/129/28 61/130/28
f 63/131/33 57/132/33 59/133/33
f 60/134/34 62/135/34 64/136/34
f 66/137/35 67/138/35 65/139/35
f 68/140/26 71/141/26 67/142/26
f 71/143/36 70/144/36 69/145/36
f 70/146/28 65/147/28 69/148/28
f 71/149/37 65/150/37 67/151/37
f 68/152/38 70/153/38 72/154/38
f 74/155/39 75/156/39 73/157/39
f 75/158/26 80/159/26 79/160/26
f 80/161/40 77/162/40 79/163/40
f 78/164/28 73/165/28 77/166/28
f 79/167/41 73/168/41 75/169/41
f 76/170/42 78/171/42 80/172/42
f 82/173/43 83/174/43 81/175/43
f 84/176/26 87/177/26 83/178/26
f 88/179/44 85/180/44 87/181/44
f 86/182/28 81/183/28 85/184/28
f 87/185/45 81/186/45 83/187/45
f 84/188/46 86/189/46 88/190/46
f 90/191/27 91/192/27 89/193/27
f 92/194/26 95/195/26 91/196/26
f 96/197/25 93/198/25 95/199/25
f 94/200/28 89/201/28 93/202/28
f 95/203/30 89/204/30 91/205/30
f 92/206/29 94/207/29 96/208/29
f 98/209/32 99/210/32 97/211/32
f 99/212/26 104/213/26 103/214/26
f 104/215/31 101/216/31 103/217/31
f 101/218/28 98/219/28 97/220/28
f 103/221/34 97/222/34 99/223/34
f 104/224/33 98/225/33 102/226/33
f 106/227/36 107/228/36 105/229/36
f 108/230/26 111/231/26 107/232/26
f 112/233/35 109/234/35 111/235/35
f 110/236/28 105/237/28 109/238/28
f 111/239/38 105/240/38 107/241/38
f 108/242/37 110/243/37 112/244/37
f 114/245/40 115/246/40 113/247/40
f 116/248/26 119/249/26 115/250/26
f 120/251/39 117/252/39 119/253/39
f 118/254/28 113/255/28 117/256/28
f 119/257/42 113/258/42 115/259/42
f 116/260/41 118/261/41 120/262/41
f 122/263/44 123/264/44 121/265/44
f 123/266/26 128/267/26 127/268/26
f 128/269/43 125/270/43 127/271/43
f 125/272/28 122/273/28 121/274/28
f 127/275/46 121/276/46 123/277/46
f 124/278/45 126/279/45 128/280/45
f 130/281/47 131/282/47 129/283/47
f 132/284/48 133/285/48 131/286/48
f 134/287/49 135/288/49 133/285/49
f 136/289/50 137/290/50 135/291/50
f 138/292/51 139/293/51 137/290/51
f 140/294/52 141/295/52 139/296/52
f 142/297/28 138/298/28 134/299/28
f 142/300/53 143/301/53 141/295/53
f 144/302/54 129/283/54 143/303/54
f 135/304/26 139/305/26 143/306/26
f 5/1/1 6/13/1 2/2/1
f 6/4/2 7/7/2 3/5/2
f 7/7/3 8/307/3 4/8/3
f 8/9/4 5/18/4 1/10/4
f 9/12/5 10/14/5 6/13/5
f 10/14/6 11/308/6 7/15/6
f 7/16/7 11/309/7 12/17/7
f 12/17/8 9/28/8 5/18/8
f 9/19/9 13/30/9 14/20/9
f 14/22/10 15/25/10 11/23/10
f 15/25/11 16/35/11 12/26/11
f 16/27/12 13/37/12 9/28/12
f 17/29/13 18/310/13 14/20/13
f 18/31/14 19/41/14 15/32/14
f 19/34/15 20/311/15 16/35/15
f 20/36/16 17/45/16 13/37/16
f 21/38/17 22/40/17 18/31/17
f 22/40/18 23/312/18 19/41/18
f 23/42/19 24/44/19 20/36/19
f 24/44/20 21/53/20 17/45/20
f 21/38/21 25/313/21 26/46/21
f 26/47/22 27/58/22 23/48/22
f 23/48/23 27/58/23 28/50/23
f 28/52/24 25/314/24 21/53/24
f 29/54/2 30/315/2 26/55/2
f 30/57/1 31/316/1 27/58/1
f 27/58/4 31/316/4 32/59/4
f 32/60/3 29/54/3 25/56/3
f 33/62/6 34/65/6 30/63/6
f 34/65/5 35/317/5 31/66/5
f 35/67/8 36/70/8 32/68/8
f 36/70/7 33/318/7 29/71/7
f 37/72/10 38/81/10 34/65/10
f 38/73/9 39/83/9 35/74/9
f 39/76/12 40/319/12 36/70/12
f 40/77/11 37/87/11 33/78/11
f 41/80/14 42/89/14 38/81/14
f 42/82/13 43/84/13 39/83/13
f 43/84/16 44/320/16 40/85/16
f 40/77/15 44/321/15 41/86/15
f 45/88/18 46/96/18 42/89/18
f 42/89/17 46/96/17 47/90/17
f 43/92/20 47/322/20 48/93/20
f 48/93/19 45/100/19 41/95/19
f 1/3/22 2/2/22 46/96/22
f 2/6/21 3/5/21 47/97/21
f 3/5/24 4/8/24 48/99/24
f 4/11/23 1/10/23 45/100/23
f 50/101/25 52/323/25 51/102/25
f 52/104/26 56/324/26 55/105/26
f 56/107/27 54/325/27 53/108/27
f 54/110/28 50/326/28 49/111/28
f 55/113/29 53/327/29 49/114/29
f 52/116/30 50/328/30 54/117/30
f 58/119/31 60/329/31 59/120/31
f 60/122/26 64/330/26 63/123/26
f 64/125/32 62/331/32 61/126/32
f 62/128/28 58/332/28 57/129/28
f 63/131/33 61/333/33 57/132/33
f 60/134/34 58/334/34 62/135/34
f 66/137/35 68/335/35 67/138/35
f 68/140/26 72/336/26 71/141/26
f 71/143/36 72/337/36 70/144/36
f 70/146/28 66/338/28 65/147/28
f 71/149/37 69/339/37 65/150/37
f 68/152/38 66/340/38 70/153/38
f 74/155/39 76/341/39 75/156/39
f 75/158/26 76/342/26 80/159/26
f 80/161/40 78/343/40 77/162/40
f 78/164/28 74/344/28 73/165/28
f 79/167/41 77/345/41 73/168/41
f 76/170/42 74/346/42 78/171/42
f 82/173/43 84/347/43 83/174/43
f 84/176/26 88/348/26 87/177/26
f 88/179/44 86/349/44 85/180/44
f 86/182/28 82/350/28 81/183/28
f 87/185/45 85/351/45 81/186/45
f 84/188/46 82/352/46 86/189/46
f 90/191/27 92/353/27 91/192/27
f 92/194/26 96/354/26 95/195/26
f 96/197/25 94/355/25 93/198/25
f 94/200/28 90/356/28 89/201/28
f 95/203/30 93/357/30 89/204/30
f 92/206/29 90/358/29 94/207/29
f 98/209/32 100/359/32 99/210/32
f 99/212/26 100/360/26 104/213/26
f 104/215/31 102/361/31 101/216/31
f 101/218/28 102/362/28 98/219/28
f 103/221/34 101/363/34 97/222/34
f 104/224/33 100/364/33 98/225/33
f 106/227/36 108/365/36 107/228/36
f 108/230/26 112/366/26 111/231/26
f 112/233/35 110/367/35 109/234/35
f 110/236/28 106/368/28 105/237/28
f 111/239/38 109/369/38 105/240/38
f 108/242/37 106/370/37 110/243/37
f 114/245/40 116/371/40 115/246/40
f 116/248/26 120/372/26 119/249/26
f 120/251/39 118/373/39 117/252/39
f 118/254/28 114/374/28 113/255/28
f 119/257/42 117/375/42 113/258/42
f 116/260/41 114/376/41 118/261/41
f 122/263/44 124/377/44 123/264/44
f 123/266/26 124/378/26 128/267/26
f 128/269/43 126/379/43 125/270/43
f 125/272/28 126/380/28 122/273/28
f 127/275/46 125/381/46 121/276/46
f 124/278/45 122/382/45 126/279/45
f 130/281/47 132/383/47 131/282/47
f 132/284/48 134/287/48 133/285/48
f 134/287/49 136/384/49 135/288/49
f 136/289/50 138/292/50 137/290/50
f 138/292/51 140/385/51 139/293/51
f 140/294/52 142/300/52 141/295/52
f 134/299/28 132/386/28 130/387/28
f 130/387/28 144/388/28 142/297/28
f 142/297/28 140/389/28 138/298/28
f 138/298/28 136/390/28 134/299/28
f 134/299/28 130/387/28 142/297/28
f 142/300/53 144/391/53 143/301/53
f 144/302/54 130/281/54 129/283/54
f 143/306/26 129/392/26 131/393/26
f 131/393/26 133/394/26 135/304/26
f 135/304/26 137/395/26 139/305/26
f 139/305/26 141/396/26 143/306/26
f 143/306/26 131/393/26 135/304/26
