# Blender 5.2.0 LTS
# www.blender.org
o distillatore_pietra
v -0.575000 0.000000 0.425000
v -0.575000 0.400000 0.425000
v -0.575000 0.000000 -0.425000
v -0.575000 0.400000 -0.425000
v 0.575000 0.000000 0.425000
v 0.575000 0.400000 0.425000
v 0.575000 0.000000 -0.425000
v 0.575000 0.400000 -0.425000
vn -1.0000 -0.0000 -0.0000
vn -0.0000 -0.0000 -1.0000
vn 1.0000 -0.0000 -0.0000
vn -0.0000 -0.0000 1.0000
vn -0.0000 -1.0000 -0.0000
vn -0.0000 1.0000 -0.0000
vt 0.361730 0.867723
vt 0.532962 0.503853
vt 0.532962 0.867723
vt 0.003853 0.996147
vt 0.175086 0.503853
vt 0.175086 0.996147
vt 0.540668 0.867723
vt 0.711901 0.503853
vt 0.711901 0.867723
vt 0.182791 0.996147
vt 0.354024 0.503853
vt 0.354024 0.996147
vt 0.367723 0.496147
vt 0.003853 0.003853
vt 0.367723 0.003853
vt 0.739298 0.496147
vt 0.375428 0.003853
vt 0.739298 0.003853
vt 0.361730 0.503853
vt 0.003853 0.503853
vt 0.540668 0.503853
vt 0.182791 0.503853
vt 0.003853 0.496147
vt 0.375428 0.496147
s 0
f 2/1/1 3/2/1 1/3/1
f 4/4/2 7/5/2 3/6/2
f 8/7/3 5/8/3 7/9/3
f 6/10/4 1/11/4 5/12/4
f 7/13/5 1/14/5 3/15/5
f 4/16/6 6/17/6 8/18/6
f 2/1/1 4/19/1 3/2/1
f 4/4/2 8/20/2 7/5/2
f 8/7/3 6/21/3 5/8/3
f 6/10/4 2/22/4 1/11/4
f 7/13/5 5/23/5 1/14/5
f 4/16/6 2/24/6 6/17/6
