# Blender 5.2.0 LTS
# www.blender.org
o distillatore_rame
v 0.207000 0.600000 0.000000
v 0.191798 0.620923 0.000000
v 0.167202 0.612931 0.000000
v 0.167202 0.587069 0.000000
v 0.191798 0.579077 0.000000
v 0.157831 0.600000 -0.183500
v 0.144666 0.620923 -0.175899
v 0.123365 0.612931 -0.163601
v 0.123365 0.587069 -0.163601
v 0.144666 0.579077 -0.175899
v 0.023500 0.600000 -0.317831
v 0.015899 0.620923 -0.304666
v 0.003601 0.612931 -0.283365
v 0.003601 0.587069 -0.283365
v 0.015899 0.579077 -0.304666
v -0.160000 0.600000 -0.367000
v -0.160000 0.620923 -0.351798
v -0.160000 0.612931 -0.327202
v -0.160000 0.587069 -0.327202
v -0.160000 0.579077 -0.351798
v -0.343500 0.600000 -0.317831
v -0.335899 0.620923 -0.304666
v -0.323601 0.612931 -0.283365
v -0.323601 0.587069 -0.283365
v -0.335899 0.579077 -0.304666
v -0.477831 0.600000 -0.183500
v -0.464666 0.620923 -0.175899
v -0.443365 0.612931 -0.163601
v -0.443365 0.587069 -0.163601
v -0.464666 0.579077 -0.175899
v -0.527000 0.600000 -0.000000
v -0.511798 0.620923 -0.000000
v -0.487202 0.612931 -0.000000
v -0.487202 0.587069 -0.000000
v -0.511798 0.579077 -0.000000
v -0.477831 0.600000 0.183500
v -0.464666 0.620923 0.175899
v -0.443365 0.612931 0.163601
v -0.443365 0.587069 0.163601
v -0.464666 0.579077 0.175899
v -0.343500 0.600000 0.317831
v -0.335899 0.620923 0.304666
v -0.323601 0.612931 0.283365
v -0.323601 0.587069 0.283365
v -0.335899 0.579077 0.304666
v -0.160000 0.600000 0.367000
v -0.160000 0.620923 0.351798
v -0.160000 0.612931 0.327202
v -0.160000 0.587069 0.327202
v -0.160000 0.579077 0.351798
v 0.023500 0.600000 0.317831
v 0.015899 0.620923 0.304666
v 0.003601 0.612931 0.283365
v 0.003601 0.587069 0.283365
v 0.015899 0.579077 0.304666
v 0.157831 0.600000 0.183500
v 0.144666 0.620923 0.175899
v 0.123365 0.612931 0.163601
v 0.123365 0.587069 0.163601
v 0.144666 0.579077 0.175899
v 0.207000 0.830000 0.000000
v 0.191798 0.850923 0.000000
v 0.167202 0.842931 0.000000
v 0.167202 0.817069 0.000000
v 0.191798 0.809077 0.000000
v 0.157831 0.830000 -0.183500
v 0.144666 0.850923 -0.175899
v 0.123365 0.842931 -0.163601
v 0.123365 0.817069 -0.163601
v 0.144666 0.809077 -0.175899
v 0.023500 0.830000 -0.317831
v 0.015899 0.850923 -0.304666
v 0.003601 0.842931 -0.283365
v 0.003601 0.817069 -0.283365
v 0.015899 0.809077 -0.304666
v -0.160000 0.830000 -0.367000
v -0.160000 0.850923 -0.351798
v -0.160000 0.842931 -0.327202
v -0.160000 0.817069 -0.327202
v -0.160000 0.809077 -0.351798
v -0.343500 0.830000 -0.317831
v -0.335899 0.850923 -0.304666
v -0.323601 0.842931 -0.283365
v -0.323601 0.817069 -0.283365
v -0.335899 0.809077 -0.304666
v -0.477831 0.830000 -0.183500
v -0.464666 0.850923 -0.175899
v -0.443365 0.842931 -0.163601
v -0.443365 0.817069 -0.163601
v -0.464666 0.809077 -0.175899
v -0.527000 0.830000 -0.000000
v -0.511798 0.850923 -0.000000
v -0.487202 0.842931 -0.000000
v -0.487202 0.817069 -0.000000
v -0.511798 0.809077 -0.000000
v -0.477831 0.830000 0.183500
v -0.464666 0.850923 0.175899
v -0.443365 0.842931 0.163601
v -0.443365 0.817069 0.163601
v -0.464666 0.809077 0.175899
v -0.343500 0.830000 0.317831
v -0.335899 0.850923 0.304666
v -0.323601 0.842931 0.283365
v -0.323601 0.817069 0.283365
v -0.335899 0.809077 0.304666
v -0.160000 0.830000 0.367000
v -0.160000 0.850923 0.351798
v -0.160000 0.842931 0.327202
v -0.160000 0.817069 0.327202
v -0.160000 0.809077 0.351798
v 0.023500 0.830000 0.317831
v 0.015899 0.850923 0.304666
v 0.003601 0.842931 0.283365
v 0.003601 0.817069 0.283365
v 0.015899 0.809077 0.304666
v 0.157831 0.830000 0.183500
v 0.144666 0.850923 0.175899
v 0.123365 0.842931 0.163601
v 0.123365 0.817069 0.163601
v 0.144666 0.809077 0.175899
v 0.207000 1.060000 0.000000
v 0.191798 1.080923 0.000000
v 0.167202 1.072931 0.000000
v 0.167202 1.047069 0.000000
v 0.191798 1.039077 0.000000
v 0.157831 1.060000 -0.183500
v 0.144666 1.080923 -0.175899
v 0.123365 1.072931 -0.163601
v 0.123365 1.047069 -0.163601
v 0.144666 1.039077 -0.175899
v 0.023500 1.060000 -0.317831
v 0.015899 1.080923 -0.304666
v 0.003601 1.072931 -0.283365
v 0.003601 1.047069 -0.283365
v 0.015899 1.039077 -0.304666
v -0.160000 1.060000 -0.367000
v -0.160000 1.080923 -0.351798
v -0.160000 1.072931 -0.327202
v -0.160000 1.047069 -0.327202
v -0.160000 1.039077 -0.351798
v -0.343500 1.060000 -0.317831
v -0.335899 1.080923 -0.304666
v -0.323601 1.072931 -0.283365
v -0.323601 1.047069 -0.283365
v -0.335899 1.039077 -0.304666
v -0.477831 1.060000 -0.183500
v -0.464666 1.080923 -0.175899
v -0.443365 1.072931 -0.163601
v -0.443365 1.047069 -0.163601
v -0.464666 1.039077 -0.175899
v -0.527000 1.060000 -0.000000
v -0.511798 1.080923 -0.000000
v -0.487202 1.072931 -0.000000
v -0.487202 1.047069 -0.000000
v -0.511798 1.039077 -0.000000
v -0.477831 1.060000 0.183500
v -0.464666 1.080923 0.175899
v -0.443365 1.072931 0.163601
v -0.443365 1.047069 0.163601
v -0.464666 1.039077 0.175899
v -0.343500 1.060000 0.317831
v -0.335899 1.080923 0.304666
v -0.323601 1.072931 0.283365
v -0.323601 1.047069 0.283365
v -0.335899 1.039077 0.304666
v -0.160000 1.060000 0.367000
v -0.160000 1.080923 0.351798
v -0.160000 1.072931 0.327202
v -0.160000 1.047069 0.327202
v -0.160000 1.039077 0.351798
v 0.023500 1.060000 0.317831
v 0.015899 1.080923 0.304666
v 0.003601 1.072931 0.283365
v 0.003601 1.047069 0.283365
v 0.015899 1.039077 0.304666
v 0.157831 1.060000 0.183500
v 0.144666 1.080923 0.175899
v 0.123365 1.072931 0.163601
v 0.123365 1.047069 0.163601
v 0.144666 1.039077 0.175899
v 0.060000 1.220000 -0.050000
v 0.060000 1.420000 -0.050000
v 0.095355 1.220000 -0.035355
v 0.095355 1.420000 -0.035355
v 0.110000 1.220000 0.000000
v 0.110000 1.420000 0.000000
v 0.095355 1.220000 0.035355
v 0.095355 1.420000 0.035355
v 0.060000 1.220000 0.050000
v 0.060000 1.420000 0.050000
v 0.024645 1.220000 0.035355
v 0.024645 1.420000 0.035355
v 0.010000 1.220000 0.000000
v 0.010000 1.420000 0.000000
v 0.024645 1.220000 -0.035355
v 0.024645 1.420000 -0.035355
v 0.070000 1.420000 -0.050000
v 0.410000 1.420000 -0.050000
v 0.070000 1.384645 -0.035355
v 0.410000 1.384645 -0.035355
v 0.070000 1.370000 0.000000
v 0.410000 1.370000 0.000000
v 0.070000 1.384645 0.035355
v 0.410000 1.384645 0.035355
v 0.070000 1.420000 0.050000
v 0.410000 1.420000 0.050000
v 0.070000 1.455355 0.035355
v 0.410000 1.455355 0.035355
v 0.070000 1.470000 0.000000
v 0.410000 1.470000 0.000000
v 0.070000 1.455355 -0.035355
v 0.410000 1.455355 -0.035355
v 0.410000 1.130000 -0.050000
v 0.410000 1.430000 -0.050000
v 0.445355 1.130000 -0.035355
v 0.445355 1.430000 -0.035355
v 0.460000 1.130000 0.000000
v 0.460000 1.430000 0.000000
v 0.445355 1.130000 0.035355
v 0.445355 1.430000 0.035355
v 0.410000 1.130000 0.050000
v 0.410000 1.430000 0.050000
v 0.374645 1.130000 0.035355
v 0.374645 1.430000 0.035355
v 0.360000 1.130000 0.000000
v 0.360000 1.430000 0.000000
v 0.374645 1.130000 -0.035355
v 0.374645 1.430000 -0.035355
v 0.410000 0.720000 -0.140000
v 0.410000 1.240000 -0.140000
v 0.492290 0.720000 -0.113262
v 0.492290 1.240000 -0.113262
v 0.543148 0.720000 -0.043262
v 0.543148 1.240000 -0.043262
v 0.543148 0.720000 0.043262
v 0.543148 1.240000 0.043262
v 0.492290 0.720000 0.113262
v 0.492290 1.240000 0.113262
v 0.410000 0.720000 0.140000
v 0.410000 1.240000 0.140000
v 0.327710 0.720000 0.113262
v 0.327710 1.240000 0.113262
v 0.276852 0.720000 0.043262
v 0.276852 1.240000 0.043262
v 0.276852 0.720000 -0.043262
v 0.276852 1.240000 -0.043262
v 0.327710 0.720000 -0.113262
v 0.327710 1.240000 -0.113262
v 0.410000 1.270000 -0.060000
v 0.410000 1.570000 -0.060000
v 0.452426 1.270000 -0.042426
v 0.452426 1.570000 -0.042426
v 0.470000 1.270000 0.000000
v 0.470000 1.570000 0.000000
v 0.452426 1.270000 0.042426
v 0.452426 1.570000 0.042426
v 0.410000 1.270000 0.060000
v 0.410000 1.570000 0.060000
v 0.367574 1.270000 0.042426
v 0.367574 1.570000 0.042426
v 0.350000 1.270000 0.000000
v 0.350000 1.570000 0.000000
v 0.367574 1.270000 -0.042426
v 0.367574 1.570000 -0.042426
v 0.410000 1.555000 -0.080000
v 0.410000 1.605000 -0.080000
v 0.466569 1.555000 -0.056569
v 0.466569 1.605000 -0.056569
v 0.490000 1.555000 0.000000
v 0.490000 1.605000 0.000000
v 0.466569 1.555000 0.056569
v 0.466569 1.605000 0.056569
v 0.410000 1.555000 0.080000
v 0.410000 1.605000 0.080000
v 0.353431 1.555000 0.056569
v 0.353431 1.605000 0.056569
v 0.330000 1.555000 0.000000
v 0.330000 1.605000 0.000000
v 0.353431 1.555000 -0.056569
v 0.353431 1.605000 -0.056569
v -0.730000 0.620000 -0.040000
v -0.470000 0.620000 -0.040000
v -0.730000 0.591716 -0.028284
v -0.470000 0.591716 -0.028284
v -0.730000 0.580000 0.000000
v -0.470000 0.580000 0.000000
v -0.730000 0.591716 0.028284
v -0.470000 0.591716 0.028284
v -0.730000 0.620000 0.040000
v -0.470000 0.620000 0.040000
v -0.730000 0.648284 0.028284
v -0.470000 0.648284 0.028284
v -0.730000 0.660000 0.000000
v -0.470000 0.660000 0.000000
v -0.730000 0.648284 -0.028284
v -0.470000 0.648284 -0.028284
v -0.700000 0.460000 -0.040000
v -0.700000 0.620000 -0.040000
v -0.671716 0.460000 -0.028284
v -0.671716 0.620000 -0.028284
v -0.660000 0.460000 0.000000
v -0.660000 0.620000 0.000000
v -0.671716 0.460000 0.028284
v -0.671716 0.620000 0.028284
v -0.700000 0.460000 0.040000
v -0.700000 0.620000 0.040000
v -0.728284 0.460000 0.028284
v -0.728284 0.620000 0.028284
v -0.740000 0.460000 0.000000
v -0.740000 0.620000 0.000000
v -0.728284 0.460000 -0.028284
v -0.728284 0.620000 -0.028284
v -0.700000 0.632000 0.000000
v -0.682881 0.644438 0.000000
v -0.689420 0.664562 0.000000
v -0.710580 0.664562 0.000000
v -0.717119 0.644438 0.000000
v -0.700000 0.652626 -0.063481
v -0.682881 0.662688 -0.056170
v -0.689420 0.678970 -0.044341
v -0.710580 0.678970 -0.044341
v -0.717119 0.662688 -0.056170
v -0.700000 0.706626 -0.102714
v -0.682881 0.710470 -0.090885
v -0.689420 0.716688 -0.071746
v -0.710580 0.716688 -0.071746
v -0.717119 0.710470 -0.090885
v -0.700000 0.773374 -0.102714
v -0.682881 0.769530 -0.090885
v -0.689420 0.763312 -0.071746
v -0.710580 0.763312 -0.071746
v -0.717119 0.769530 -0.090885
v -0.700000 0.827374 -0.063481
v -0.682881 0.817312 -0.056170
v -0.689420 0.801030 -0.044341
v -0.710580 0.801030 -0.044341
v -0.717119 0.817312 -0.056170
v -0.700000 0.848000 -0.000000
v -0.682881 0.835562 -0.000000
v -0.689420 0.815438 -0.000000
v -0.710580 0.815438 -0.000000
v -0.717119 0.835562 -0.000000
v -0.700000 0.827374 0.063481
v -0.682881 0.817312 0.056170
v -0.689420 0.801030 0.044341
v -0.710580 0.801030 0.044341
v -0.717119 0.817312 0.056170
v -0.700000 0.773374 0.102714
v -0.682881 0.769530 0.090885
v -0.689420 0.763312 0.071746
v -0.710580 0.763312 0.071746
v -0.717119 0.769530 0.090885
v -0.700000 0.706626 0.102714
v -0.682881 0.710470 0.090885
v -0.689420 0.716688 0.071746
v -0.710580 0.716688 0.071746
v -0.717119 0.710470 0.090885
v -0.700000 0.652626 0.063481
v -0.682881 0.662688 0.056170
v -0.689420 0.678970 0.044341
v -0.710580 0.678970 0.044341
v -0.717119 0.662688 0.056170
vn 0.7907 0.5744 -0.2119
vn -0.3080 0.9478 0.0825
vn -0.9659 -0.0000 0.2588
vn -0.3080 -0.9478 0.0825
vn 0.7907 -0.5744 -0.2119
vn 0.5788 0.5744 -0.5788
vn -0.2254 0.9478 0.2254
vn -0.7071 -0.0000 0.7071
vn -0.2254 -0.9478 0.2254
vn 0.5788 -0.5744 -0.5788
vn 0.2119 0.5744 -0.7907
vn -0.0825 0.9478 0.3080
vn -0.2588 -0.0000 0.9659
vn -0.0825 -0.9478 0.3080
vn 0.2119 -0.5744 -0.7907
vn -0.2119 0.5744 -0.7907
vn 0.0825 0.9478 0.3080
vn 0.2588 -0.0000 0.9659
vn 0.0825 -0.9478 0.3080
vn -0.2119 -0.5744 -0.7907
vn -0.5788 0.5744 -0.5788
vn 0.2254 0.9478 0.2254
vn 0.7071 -0.0000 0.7071
vn 0.2254 -0.9478 0.2254
vn -0.5788 -0.5744 -0.5788
vn -0.7907 0.5744 -0.2119
vn 0.3080 0.9478 0.0825
vn 0.9659 -0.0000 0.2588
vn 0.3080 -0.9478 0.0825
vn -0.7907 -0.5744 -0.2119
vn -0.7907 0.5744 0.2119
vn 0.3080 0.9478 -0.0825
vn 0.9659 -0.0000 -0.2588
vn 0.3080 -0.9478 -0.0825
vn -0.7907 -0.5744 0.2119
vn -0.5788 0.5744 0.5788
vn 0.2254 0.9478 -0.2254
vn 0.7071 -0.0000 -0.7071
vn 0.2254 -0.9478 -0.2254
vn -0.5788 -0.5744 0.5788
vn -0.2119 0.5744 0.7907
vn 0.0825 0.9478 -0.3080
vn 0.2588 -0.0000 -0.9659
vn 0.0825 -0.9478 -0.3080
vn -0.2119 -0.5744 0.7907
vn 0.2119 0.5744 0.7907
vn -0.0825 0.9478 -0.3080
vn -0.2588 -0.0000 -0.9659
vn -0.0825 -0.9478 -0.3080
vn 0.2119 -0.5744 0.7907
vn 0.5788 0.5744 0.5788
vn -0.2254 0.9478 -0.2254
vn -0.7071 -0.0000 -0.7071
vn -0.2254 -0.9478 -0.2254
vn 0.5788 -0.5744 0.5788
vn 0.7907 0.5744 0.2119
vn -0.3080 0.9478 -0.0825
vn -0.9659 -0.0000 -0.2588
vn -0.3080 -0.9478 -0.0825
vn 0.7907 -0.5744 0.2119
vn 0.3827 -0.0000 -0.9239
vn 0.9239 -0.0000 -0.3827
vn 0.9239 -0.0000 0.3827
vn 0.3827 -0.0000 0.9239
vn -0.3827 -0.0000 0.9239
vn -0.9239 -0.0000 0.3827
vn -0.0000 1.0000 -0.0000
vn -0.9239 -0.0000 -0.3827
vn -0.3827 -0.0000 -0.9239
vn -0.0000 -1.0000 -0.0000
vn -0.0000 -0.3827 -0.9239
vn -0.0000 -0.9239 -0.3827
vn -0.0000 -0.9239 0.3827
vn -0.0000 -0.3827 0.9239
vn -0.0000 0.3827 0.9239
vn -0.0000 0.9239 0.3827
vn 1.0000 -0.0000 -0.0000
vn -0.0000 0.9239 -0.3827
vn -0.0000 0.3827 -0.9239
vn -1.0000 -0.0000 -0.0000
vn 0.3090 -0.0000 -0.9511
vn 0.8090 -0.0000 -0.5878
vn 0.8090 -0.0000 0.5878
vn 0.3090 -0.0000 0.9511
vn -0.3090 -0.0000 0.9511
vn -0.8090 -0.0000 0.5878
vn -0.8090 -0.0000 -0.5878
vn -0.3090 -0.0000 -0.9511
vn 0.5685 -0.7824 -0.2542
vn 0.9463 0.3075 0.0999
vn -0.0000 0.9511 0.3090
vn -0.9463 0.3075 0.0999
vn -0.5685 -0.7824 -0.2542
vn 0.5685 -0.4836 -0.6656
vn 0.9463 0.1900 0.2616
vn -0.0000 0.5878 0.8090
vn -0.9463 0.1900 0.2616
vn -0.5685 -0.4836 -0.6656
vn 0.5685 -0.0000 -0.8227
vn 0.9463 -0.0000 0.3233
vn -0.0000 -0.0000 1.0000
vn -0.9463 -0.0000 0.3233
vn -0.5685 -0.0000 -0.8227
vn 0.5685 0.4836 -0.6656
vn 0.9463 -0.1900 0.2615
vn -0.0000 -0.5878 0.8090
vn -0.9463 -0.1900 0.2616
vn -0.5685 0.4836 -0.6656
vn 0.5685 0.7824 -0.2542
vn 0.9463 -0.3075 0.0999
vn -0.0000 -0.9511 0.3090
vn -0.9463 -0.3075 0.0999
vn -0.5685 0.7824 -0.2542
vn 0.5685 0.7824 0.2542
vn 0.9463 -0.3075 -0.0999
vn -0.0000 -0.9511 -0.3090
vn -0.9463 -0.3075 -0.0999
vn -0.5685 0.7824 0.2542
vn 0.5685 0.4836 0.6656
vn 0.9463 -0.1900 -0.2615
vn -0.0000 -0.5878 -0.8090
vn -0.9463 -0.1900 -0.2616
vn -0.5685 0.4836 0.6656
vn 0.5685 -0.0000 0.8227
vn 0.9463 -0.0000 -0.3233
vn -0.0000 -0.0000 -1.0000
vn -0.9463 -0.0000 -0.3233
vn -0.5685 -0.0000 0.8227
vn 0.5685 -0.4836 0.6656
vn 0.9463 0.1900 -0.2615
vn -0.0000 0.5878 -0.8090
vn -0.9463 0.1900 -0.2615
vn -0.5685 -0.4836 0.6656
vn 0.5685 -0.7824 0.2542
vn 0.9463 0.3075 -0.0999
vn -0.0000 0.9511 -0.3090
vn -0.9463 0.3075 -0.0999
vn -0.5685 -0.7824 0.2542
vn 0.9463 0.1900 0.2615
vn -0.9463 0.1900 0.2615
vn 0.9463 0.1900 -0.2616
vn -0.9463 0.1900 -0.2616
vt 0.737200 0.710807
vt 0.729630 0.644411
vt 0.737200 0.644411
vt 0.223662 0.223662
vt 0.248011 0.164296
vt 0.256608 0.166599
vt 0.932139 0.786247
vt 0.922781 0.727051
vt 0.932139 0.727051
vt 0.019297 0.431604
vt 0.043646 0.490970
vt 0.010700 0.433907
vt 0.744771 0.708057
vt 0.744771 0.644411
vt 0.737200 0.759412
vt 0.729630 0.708057
vt 0.166599 0.256608
vt 0.217369 0.217369
vt 0.932139 0.829581
vt 0.922781 0.786247
vt 0.049939 0.484677
vt 0.100709 0.523916
vt 0.817854 0.580765
vt 0.810283 0.529410
vt 0.817854 0.534173
vt 0.810283 0.578015
vt 0.802713 0.644411
vt 0.802713 0.580765
vt 0.100709 0.256608
vt 0.164296 0.248011
vt 0.953539 0.380538
vt 0.962897 0.439734
vt 0.953539 0.439734
vt 0.164296 0.515319
vt 0.103012 0.515319
vt 0.810283 0.644411
vt 0.802713 0.708056
vt 0.043645 0.223662
vt 0.103012 0.248011
vt 0.953539 0.321342
vt 0.962897 0.380538
vt 0.223662 0.490970
vt 0.166599 0.523916
vt 0.817854 0.708056
vt 0.817854 0.644411
vt 0.810283 0.710807
vt 0.802713 0.754648
vt 0.010700 0.166599
vt 0.049939 0.217369
vt 0.953539 0.278008
vt 0.962897 0.321342
vt 0.217369 0.484677
vt 0.256608 0.433907
vt 0.810283 0.759412
vt 0.856736 0.192097
vt 0.864307 0.125701
vt 0.864307 0.189347
vt 0.010700 0.100709
vt 0.019297 0.164296
vt 0.925823 0.069896
vt 0.916465 0.010700
vt 0.925823 0.010700
vt 0.248011 0.431604
vt 0.256608 0.368016
vt 0.849165 0.125701
vt 0.849165 0.189347
vt 0.856736 0.059305
vt 0.856736 0.125701
vt 0.049939 0.049939
vt 0.019297 0.103012
vt 0.925823 0.129091
vt 0.916465 0.069896
vt 0.248011 0.370320
vt 0.223662 0.310953
vt 0.820194 0.059305
vt 0.812624 0.015464
vt 0.820194 0.010700
vt 0.100709 0.010700
vt 0.043645 0.043645
vt 0.925823 0.172426
vt 0.916465 0.129091
vt 0.164296 0.286605
vt 0.217369 0.317247
vt 0.849165 0.015464
vt 0.849165 0.062055
vt 0.820194 0.125701
vt 0.812624 0.062055
vt 0.164296 0.019297
vt 0.103012 0.019297
vt 0.953539 0.563664
vt 0.962897 0.622859
vt 0.953539 0.622859
vt 0.103012 0.286605
vt 0.166599 0.278008
vt 0.827765 0.125701
vt 0.827765 0.062055
vt 0.820194 0.192097
vt 0.812624 0.125701
vt 0.166599 0.010700
vt 0.217369 0.049939
vt 0.953539 0.504468
vt 0.962897 0.563664
vt 0.049939 0.317246
vt 0.100709 0.278008
vt 0.827765 0.189347
vt 0.737200 0.578015
vt 0.729630 0.534173
vt 0.737200 0.529410
vt 0.256608 0.100709
vt 0.223662 0.043645
vt 0.953539 0.461134
vt 0.962897 0.504468
vt 0.019297 0.370320
vt 0.043645 0.310953
vt 0.827765 0.235938
vt 0.729630 0.580765
vt 0.248011 0.103012
vt 0.922781 0.667856
vt 0.932139 0.667856
vt 0.010700 0.368016
vt 0.744771 0.580765
vt 0.773742 0.459405
vt 0.766171 0.393009
vt 0.773742 0.393009
vt 0.490970 0.223662
vt 0.515319 0.164296
vt 0.523916 0.166599
vt 0.901381 0.786247
vt 0.892023 0.727051
vt 0.901381 0.727051
vt 0.286605 0.431604
vt 0.310953 0.490970
vt 0.278008 0.433907
vt 0.781313 0.456655
vt 0.781313 0.393009
vt 0.773742 0.508010
vt 0.766171 0.456655
vt 0.433907 0.256608
vt 0.484677 0.217369
vt 0.901381 0.829581
vt 0.892023 0.786247
vt 0.370320 0.515319
vt 0.317247 0.484677
vt 0.817854 0.329363
vt 0.810283 0.278008
vt 0.817854 0.282771
vt 0.810283 0.326613
vt 0.802713 0.393009
vt 0.802713 0.329363
vt 0.368016 0.256608
vt 0.431604 0.248011
vt 0.953539 0.746790
vt 0.962897 0.805985
vt 0.953539 0.805985
vt 0.433907 0.523916
vt 0.368016 0.523916
vt 0.810283 0.393009
vt 0.810283 0.459405
vt 0.310953 0.223662
vt 0.370320 0.248011
vt 0.953539 0.687594
vt 0.962897 0.746790
vt 0.431604 0.515319
vt 0.490970 0.490970
vt 0.817854 0.393009
vt 0.810283 0.508010
vt 0.802713 0.456654
vt 0.278008 0.166599
vt 0.317246 0.217369
vt 0.953539 0.644260
vt 0.962897 0.687594
vt 0.484677 0.484677
vt 0.523916 0.433907
vt 0.817854 0.503246
vt 0.817854 0.456654
vt 0.459919 0.783029
vt 0.467490 0.846675
vt 0.459919 0.849425
vt 0.278008 0.100709
vt 0.286605 0.164296
vt 0.956581 0.069896
vt 0.947223 0.010700
vt 0.956581 0.010700
vt 0.515319 0.431604
vt 0.523916 0.368016
vt 0.452348 0.783029
vt 0.452348 0.846675
vt 0.467490 0.719384
vt 0.467490 0.783029
vt 0.310953 0.043646
vt 0.286605 0.103012
vt 0.956581 0.129091
vt 0.947223 0.069896
vt 0.484677 0.317246
vt 0.515319 0.370320
vt 0.452348 0.719384
vt 0.846825 0.326613
vt 0.839254 0.282771
vt 0.846825 0.278008
vt 0.370320 0.019297
vt 0.317246 0.049939
vt 0.956581 0.172426
vt 0.947223 0.129091
vt 0.431604 0.286605
vt 0.490970 0.310953
vt 0.452348 0.672792
vt 0.459919 0.716634
vt 0.846825 0.393009
vt 0.839254 0.329363
vt 0.433907 0.010700
vt 0.368016 0.010700
vt 0.010700 0.915154
vt 0.020058 0.974349
vt 0.010700 0.974349
vt 0.370320 0.286605
vt 0.433907 0.278008
vt 0.854396 0.393009
vt 0.854396 0.329363
vt 0.846825 0.459405
vt 0.839254 0.393009
vt 0.490970 0.043645
vt 0.431604 0.019297
vt 0.010700 0.855958
vt 0.020058 0.915154
vt 0.317246 0.317246
vt 0.368016 0.278008
vt 0.854396 0.456654
vt 0.773742 0.326613
vt 0.766171 0.282771
vt 0.773742 0.278008
vt 0.523916 0.100709
vt 0.484677 0.049939
vt 0.010700 0.812624
vt 0.020058 0.855958
vt 0.286605 0.370320
vt 0.310953 0.310953
vt 0.854396 0.503246
vt 0.766171 0.329363
vt 0.515319 0.103012
vt 0.892023 0.667856
vt 0.901381 0.667856
vt 0.278008 0.368016
vt 0.781313 0.329363
vt 0.737200 0.393009
vt 0.729630 0.456654
vt 0.729630 0.393009
vt 0.256608 0.701215
vt 0.217369 0.751985
vt 0.248011 0.698912
vt 0.895065 0.129091
vt 0.885707 0.069896
vt 0.895065 0.069896
vt 0.584554 0.217369
vt 0.545316 0.166599
vt 0.553913 0.164296
vt 0.744771 0.456654
vt 0.744771 0.393009
vt 0.737200 0.459405
vt 0.729630 0.503246
vt 0.166599 0.791224
vt 0.223662 0.758278
vt 0.895065 0.172426
vt 0.885707 0.129091
vt 0.637628 0.248011
vt 0.578261 0.223662
vt 0.781313 0.580765
vt 0.773742 0.529410
vt 0.781313 0.534173
vt 0.773742 0.578015
vt 0.766171 0.644411
vt 0.766171 0.580765
vt 0.100709 0.791224
vt 0.164296 0.782627
vt 0.922781 0.380538
vt 0.932139 0.439734
vt 0.922781 0.439734
vt 0.701215 0.256608
vt 0.635324 0.256608
vt 0.781313 0.644411
vt 0.773742 0.710807
vt 0.773742 0.644411
vt 0.043645 0.758278
vt 0.103012 0.782627
vt 0.922781 0.321342
vt 0.932139 0.380538
vt 0.698912 0.248011
vt 0.758278 0.223662
vt 0.781313 0.708056
vt 0.773742 0.759412
vt 0.766171 0.708056
vt 0.010700 0.701215
vt 0.049939 0.751985
vt 0.922781 0.278008
vt 0.932139 0.321342
vt 0.751985 0.217369
vt 0.791224 0.166599
vt 0.781313 0.754648
vt 0.496460 0.783029
vt 0.504031 0.846675
vt 0.496460 0.849425
vt 0.010700 0.635324
vt 0.019297 0.698912
vt 0.686272 0.799641
vt 0.695630 0.858837
vt 0.686272 0.858837
vt 0.782627 0.164296
vt 0.791224 0.100709
vt 0.488890 0.783029
vt 0.488890 0.846675
vt 0.504031 0.719384
vt 0.504031 0.783029
vt 0.049939 0.584554
vt 0.019297 0.637628
vt 0.686272 0.740446
vt 0.695630 0.799641
vt 0.751985 0.049939
vt 0.782627 0.103012
vt 0.496460 0.716634
vt 0.846825 0.578015
vt 0.839254 0.534173
vt 0.846825 0.529410
vt 0.100709 0.545316
vt 0.043645 0.578261
vt 0.686272 0.697111
vt 0.695630 0.740446
vt 0.698912 0.019297
vt 0.758278 0.043645
vt 0.488890 0.672792
vt 0.488890 0.719384
vt 0.846825 0.644411
vt 0.839254 0.580765
vt 0.164296 0.553913
vt 0.103012 0.553912
vt 0.922781 0.563664
vt 0.932139 0.622859
vt 0.922781 0.622859
vt 0.637628 0.019297
vt 0.701215 0.010700
vt 0.854396 0.644411
vt 0.854396 0.580765
vt 0.846825 0.710807
vt 0.839254 0.644411
vt 0.223662 0.578261
vt 0.166599 0.545316
vt 0.922781 0.504468
vt 0.932139 0.563664
vt 0.584554 0.049939
vt 0.635324 0.010700
vt 0.737200 0.326613
vt 0.729630 0.282771
vt 0.737200 0.278008
vt 0.248011 0.637628
vt 0.217369 0.584554
vt 0.922781 0.461134
vt 0.932139 0.504468
vt 0.553913 0.103012
vt 0.578261 0.043645
vt 0.854396 0.708056
vt 0.846825 0.759412
vt 0.729630 0.329363
vt 0.256608 0.635324
vt 0.885707 0.010700
vt 0.895065 0.010700
vt 0.545316 0.100709
vt 0.744771 0.329363
vt 0.646962 0.841534
vt 0.659755 0.913900
vt 0.646962 0.913900
vt 0.892023 0.850981
vt 0.904816 0.923347
vt 0.892023 0.923347
vt 0.904816 0.850981
vt 0.917608 0.923347
vt 0.452348 0.870825
vt 0.465141 0.943191
vt 0.452348 0.943191
vt 0.465141 0.870825
vt 0.477934 0.943191
vt 0.041458 0.887510
vt 0.054251 0.959876
vt 0.041458 0.959876
vt 0.386887 0.888532
vt 0.410525 0.898323
vt 0.400734 0.921961
vt 0.054251 0.887510
vt 0.067043 0.959876
vt 0.634170 0.841534
vt 0.634170 0.913900
vt 0.753267 0.910761
vt 0.763058 0.934399
vt 0.739421 0.944190
vt 0.558109 0.697111
vt 0.570901 0.820134
vt 0.558109 0.820134
vt 0.664872 0.820134
vt 0.652079 0.697111
vt 0.664872 0.697111
vt 0.652079 0.820134
vt 0.639287 0.697111
vt 0.617887 0.820134
vt 0.605094 0.697111
vt 0.617887 0.697111
vt 0.605094 0.820134
vt 0.592301 0.697111
vt 0.278008 0.758583
vt 0.290801 0.881606
vt 0.278008 0.881606
vt 0.279488 0.937891
vt 0.269697 0.961529
vt 0.246059 0.951737
vt 0.290801 0.758583
vt 0.303593 0.881606
vt 0.545316 0.697111
vt 0.545316 0.820134
vt 0.939009 0.860772
vt 0.962646 0.850981
vt 0.972437 0.874619
vt 0.888589 0.407957
vt 0.901381 0.516506
vt 0.888589 0.516506
vt 0.839254 0.780812
vt 0.852047 0.889361
vt 0.839254 0.889361
vt 0.852047 0.780812
vt 0.864840 0.889361
vt 0.875796 0.537906
vt 0.888588 0.646455
vt 0.875796 0.646455
vt 0.888588 0.537906
vt 0.901381 0.646455
vt 0.875796 0.278008
vt 0.888589 0.386557
vt 0.875796 0.386557
vt 0.784459 0.920552
vt 0.808096 0.910761
vt 0.817887 0.934399
vt 0.888589 0.278008
vt 0.901381 0.386557
vt 0.875796 0.407957
vt 0.875796 0.516506
vt 0.201022 0.928100
vt 0.224659 0.937891
vt 0.214868 0.961528
vt 0.678455 0.278008
vt 0.708229 0.466160
vt 0.678455 0.466160
vt 0.545316 0.278008
vt 0.570644 0.466160
vt 0.545316 0.466160
vt 0.570644 0.278008
vt 0.601951 0.466160
vt 0.601951 0.278008
vt 0.627279 0.466160
vt 0.648679 0.487560
vt 0.678454 0.675711
vt 0.648679 0.675711
vt 0.678454 0.487560
vt 0.708229 0.675711
vt 0.545316 0.487560
vt 0.570644 0.675711
vt 0.545316 0.675711
vt 0.570644 0.487560
vt 0.601951 0.675711
vt 0.296410 0.554990
vt 0.374362 0.611626
vt 0.326185 0.646628
vt 0.601951 0.487560
vt 0.627279 0.675711
vt 0.648680 0.278008
vt 0.648680 0.466160
vt 0.443939 0.545316
vt 0.473714 0.636954
vt 0.414164 0.636954
vt 0.340345 0.758583
vt 0.355696 0.867132
vt 0.340345 0.867132
vt 0.729630 0.780812
vt 0.744981 0.889361
vt 0.729630 0.889361
vt 0.744981 0.780812
vt 0.760332 0.889361
vt 0.377096 0.758583
vt 0.392447 0.867132
vt 0.377096 0.867132
vt 0.392447 0.758583
vt 0.407798 0.867132
vt 0.781732 0.780812
vt 0.797083 0.889361
vt 0.781732 0.889361
vt 0.849165 0.241862
vt 0.860915 0.213497
vt 0.889280 0.225246
vt 0.797083 0.780812
vt 0.812434 0.889361
vt 0.324993 0.758583
vt 0.324993 0.867132
vt 0.088444 0.899259
vt 0.116809 0.887510
vt 0.128558 0.915875
vt 0.839287 0.931229
vt 0.857379 0.910761
vt 0.857379 0.931229
vt 0.952548 0.236655
vt 0.970640 0.216187
vt 0.970640 0.236655
vt 0.952548 0.216187
vt 0.970640 0.195719
vt 0.377096 0.984298
vt 0.395187 0.963830
vt 0.395187 0.984298
vt 0.377096 0.963830
vt 0.395187 0.943361
vt 0.634170 0.976236
vt 0.652261 0.955768
vt 0.652261 0.976236
vt 0.041458 0.828290
vt 0.079278 0.812624
vt 0.094944 0.850444
vt 0.634170 0.955768
vt 0.652261 0.935300
vt 0.839287 0.951697
vt 0.857379 0.951697
vt 0.132010 0.812624
vt 0.169830 0.828289
vt 0.154165 0.866110
vt 0.555550 0.935610
vt 0.545316 0.841534
vt 0.555550 0.841534
vt 0.211699 0.906700
vt 0.201465 0.812624
vt 0.211699 0.812624
vt 0.201465 0.906700
vt 0.191230 0.812624
vt 0.592301 0.841534
vt 0.602535 0.935610
vt 0.592301 0.935610
vt 0.602535 0.841534
vt 0.612770 0.935610
vt 0.233099 0.812624
vt 0.243333 0.906700
vt 0.233099 0.906700
vt 0.909776 0.944748
vt 0.917608 0.963658
vt 0.898698 0.971491
vt 0.253567 0.812624
vt 0.253567 0.906700
vt 0.565784 0.935610
vt 0.565784 0.841534
vt 0.088444 0.967935
vt 0.096276 0.949025
vt 0.115187 0.956858
vt 0.696506 0.880237
vt 0.706740 0.938130
vt 0.696506 0.938130
vt 0.499334 0.870825
vt 0.509568 0.928718
vt 0.499334 0.928718
vt 0.509568 0.870825
vt 0.519802 0.928718
vt 0.324993 0.888532
vt 0.335228 0.946425
vt 0.324993 0.946425
vt 0.335228 0.888532
vt 0.345462 0.946425
vt 0.910680 0.195719
vt 0.920914 0.253612
vt 0.910680 0.253612
vt 0.553149 0.957010
vt 0.572059 0.964843
vt 0.564226 0.983753
vt 0.920914 0.195719
vt 0.931148 0.253612
vt 0.686272 0.880237
vt 0.686272 0.938130
vt 0.698908 0.959530
vt 0.706740 0.978440
vt 0.687830 0.986273
vt 0.978991 0.951749
vt 0.972797 0.928780
vt 0.978991 0.928780
vt 0.365178 0.713291
vt 0.382019 0.724688
vt 0.377739 0.730579
vt 0.521172 0.642969
vt 0.513516 0.626925
vt 0.521172 0.626925
vt 0.310893 0.729901
vt 0.290569 0.730579
vt 0.294849 0.724688
vt 0.985186 0.949104
vt 0.985186 0.928780
vt 0.156152 0.950739
vt 0.162347 0.929809
vt 0.162347 0.947098
vt 0.365178 0.691921
vt 0.372103 0.711041
vt 0.513516 0.575833
vt 0.521172 0.589481
vt 0.513516 0.589481
vt 0.326937 0.724688
vt 0.310893 0.737183
vt 0.149958 0.947098
vt 0.156152 0.931200
vt 0.156152 0.907049
vt 0.377739 0.674632
vt 0.372103 0.694171
vt 0.513516 0.558964
vt 0.521172 0.575833
vt 0.336853 0.711041
vt 0.331217 0.730579
vt 0.149958 0.908439
vt 0.149958 0.929809
vt 0.156152 0.887510
vt 0.162347 0.908439
vt 0.398063 0.668028
vt 0.382019 0.680523
vt 0.513516 0.545316
vt 0.521172 0.558964
vt 0.343778 0.691921
vt 0.343778 0.713291
vt 0.422782 0.966331
vt 0.428976 0.986655
vt 0.422782 0.989300
vt 0.418387 0.674632
vt 0.398063 0.675310
vt 0.499334 0.966162
vt 0.506990 0.982206
vt 0.499334 0.982206
vt 0.326937 0.680523
vt 0.336853 0.694171
vt 0.416588 0.966331
vt 0.416588 0.986655
vt 0.422782 0.943361
vt 0.428976 0.966331
vt 0.430948 0.691921
vt 0.414107 0.680523
vt 0.499334 0.950118
vt 0.506990 0.966162
vt 0.310893 0.675310
vt 0.331217 0.674632
vt 0.416588 0.946007
vt 0.945203 0.905810
vt 0.939009 0.926740
vt 0.939009 0.909451
vt 0.424023 0.711041
vt 0.424023 0.694171
vt 0.985637 0.024348
vt 0.977981 0.010700
vt 0.985637 0.010700
vt 0.294849 0.680523
vt 0.310893 0.668028
vt 0.951397 0.926740
vt 0.951397 0.909451
vt 0.945203 0.949500
vt 0.945203 0.925349
vt 0.418387 0.730579
vt 0.430948 0.713291
vt 0.985637 0.041218
vt 0.977981 0.024348
vt 0.284933 0.694171
vt 0.290569 0.674632
vt 0.951397 0.948110
vt 0.945203 0.969039
vt 0.939009 0.948110
vt 0.398063 0.737183
vt 0.414107 0.724688
vt 0.985637 0.054865
vt 0.977981 0.041218
vt 0.284933 0.711041
vt 0.278008 0.691921
vt 0.951397 0.965398
vt 0.972797 0.908456
vt 0.978991 0.905810
vt 0.398063 0.729901
vt 0.513516 0.610881
vt 0.521172 0.610881
vt 0.278008 0.713291
vt 0.985186 0.908456
vt 0.729630 0.754648
vt 0.922781 0.829581
vt 0.962897 0.278008
vt 0.817854 0.754648
vt 0.864307 0.062055
vt 0.916465 0.172426
vt 0.856736 0.010700
vt 0.812624 0.189347
vt 0.962897 0.461134
vt 0.820194 0.240702
vt 0.766171 0.503246
vt 0.892023 0.829581
vt 0.802713 0.503246
vt 0.962897 0.644260
vt 0.947223 0.172426
vt 0.459919 0.668029
vt 0.839254 0.456654
vt 0.020058 0.812624
vt 0.846825 0.508010
vt 0.737200 0.508010
vt 0.885707 0.172426
vt 0.766171 0.754648
vt 0.932139 0.278008
vt 0.695630 0.697111
vt 0.496460 0.668029
vt 0.839254 0.708056
vt 0.932139 0.461134
vt 0.854396 0.754648
vt 0.659755 0.841534
vt 0.917608 0.850981
vt 0.477934 0.870825
vt 0.386887 0.921961
vt 0.377096 0.912170
vt 0.377096 0.898323
vt 0.400734 0.888532
vt 0.410525 0.912170
vt 0.067043 0.887510
vt 0.729630 0.934399
vt 0.729630 0.920552
vt 0.739421 0.910761
vt 0.763058 0.920552
vt 0.753267 0.944190
vt 0.570901 0.697111
vt 0.639287 0.820134
vt 0.592301 0.820134
vt 0.246059 0.937891
vt 0.255850 0.928100
vt 0.269697 0.928100
vt 0.279488 0.951737
vt 0.255850 0.961529
vt 0.303593 0.758583
vt 0.962646 0.884410
vt 0.948800 0.884410
vt 0.939009 0.874619
vt 0.948800 0.850981
vt 0.972437 0.860772
vt 0.901381 0.407957
vt 0.864840 0.780812
vt 0.901381 0.537906
vt 0.808096 0.944190
vt 0.794250 0.944190
vt 0.784459 0.934399
vt 0.794250 0.910761
vt 0.817887 0.920552
vt 0.901381 0.278008
vt 0.201022 0.961528
vt 0.191230 0.951737
vt 0.191230 0.937891
vt 0.214868 0.928100
vt 0.224659 0.951737
vt 0.708229 0.278008
vt 0.627279 0.278008
vt 0.708229 0.487560
vt 0.296410 0.636954
vt 0.278008 0.611626
vt 0.278008 0.580318
vt 0.326185 0.545316
vt 0.355960 0.554990
vt 0.374362 0.580318
vt 0.355960 0.636954
vt 0.627279 0.487560
vt 0.395762 0.611626
vt 0.395762 0.580318
vt 0.414164 0.554990
vt 0.473714 0.554990
vt 0.492116 0.580318
vt 0.492116 0.611626
vt 0.443939 0.646628
vt 0.355696 0.758583
vt 0.760332 0.780812
vt 0.407798 0.758583
vt 0.889280 0.241862
vt 0.877531 0.253612
vt 0.860915 0.253612
vt 0.849165 0.225246
vt 0.877531 0.213497
vt 0.812434 0.780812
vt 0.116809 0.927624
vt 0.100193 0.927624
vt 0.088444 0.915875
vt 0.100193 0.887510
vt 0.128558 0.899259
vt 0.839287 0.910761
vt 0.952548 0.195719
vt 0.377096 0.943361
vt 0.079278 0.866110
vt 0.057124 0.866110
vt 0.041458 0.850444
vt 0.057124 0.812624
vt 0.094944 0.828289
vt 0.634170 0.935300
vt 0.132010 0.866110
vt 0.116344 0.850444
vt 0.116344 0.828289
vt 0.154165 0.812624
vt 0.169830 0.850444
vt 0.545316 0.935610
vt 0.191230 0.906700
vt 0.612770 0.841534
vt 0.243333 0.812624
vt 0.890865 0.963658
vt 0.890865 0.952580
vt 0.898698 0.944748
vt 0.917608 0.952580
vt 0.909776 0.971491
vt 0.115187 0.967935
vt 0.107354 0.975768
vt 0.096276 0.975768
vt 0.088444 0.956858
vt 0.107354 0.949025
vt 0.706740 0.880237
vt 0.519802 0.870825
vt 0.345462 0.888532
vt 0.553149 0.983753
vt 0.545316 0.975920
vt 0.545316 0.964843
vt 0.564226 0.957010
vt 0.572059 0.975920
vt 0.931148 0.195719
vt 0.679997 0.978440
vt 0.679997 0.967363
vt 0.687830 0.959530
vt 0.706740 0.967363
vt 0.698908 0.986273
vt 0.972797 0.949104
vt 0.513516 0.642969
vt 0.162347 0.891151
vt 0.521172 0.545316
vt 0.149958 0.891151
vt 0.428976 0.946007
vt 0.506990 0.950118
vt 0.939009 0.965398
vt 0.977981 0.054865
s 0
f 6/1/1 2/2/1 1/3/1
f 7/4/2 3/5/2 2/6/2
f 8/7/3 4/8/3 3/9/3
f 4/10/4 10/11/4 5/12/4
f 10/13/5 1/3/5 5/14/5
f 11/15/6 7/16/6 6/1/6
f 12/17/7 8/18/7 7/4/7
f 13/19/8 9/20/8 8/7/8
f 9/21/9 15/22/9 10/11/9
f 15/23/10 6/24/10 10/25/10
f 11/26/11 17/27/11 12/28/11
f 17/29/12 13/30/12 12/17/12
f 18/31/13 14/32/13 13/33/13
f 19/34/14 15/22/14 14/35/14
f 15/23/15 16/36/15 11/26/15
f 16/36/16 22/37/16 17/27/16
f 22/38/17 18/39/17 17/29/17
f 23/40/18 19/41/18 18/31/18
f 19/34/19 25/42/19 20/43/19
f 25/44/20 16/36/20 20/45/20
f 21/46/21 27/47/21 22/37/21
f 27/48/22 23/49/22 22/38/22
f 28/50/23 24/51/23 23/40/23
f 24/52/24 30/53/24 25/42/24
f 25/44/25 26/54/25 21/46/25
f 26/55/26 32/56/26 27/57/26
f 32/58/27 28/59/27 27/48/27
f 33/60/28 29/61/28 28/62/28
f 29/63/29 35/64/29 30/53/29
f 35/65/30 26/55/30 30/66/30
f 36/67/31 32/56/31 31/68/31
f 32/58/32 38/69/32 33/70/32
f 38/71/33 34/72/33 33/60/33
f 34/73/34 40/74/34 35/64/34
f 35/65/35 36/67/35 31/68/35
f 41/75/36 37/76/36 36/77/36
f 42/78/37 38/69/37 37/79/37
f 43/80/38 39/81/38 38/71/38
f 44/82/39 40/74/39 39/83/39
f 45/84/40 36/67/40 40/85/40
f 46/86/41 42/87/41 41/75/41
f 42/78/42 48/88/42 43/89/42
f 48/90/43 44/91/43 43/92/43
f 49/93/44 45/94/44 44/82/44
f 50/95/45 41/75/45 45/96/45
f 51/97/46 47/98/46 46/86/46
f 47/99/47 53/100/47 48/88/47
f 53/101/48 49/102/48 48/90/48
f 54/103/49 50/104/49 49/93/49
f 55/105/50 46/86/50 50/95/50
f 56/106/51 52/107/51 51/108/51
f 57/109/52 53/100/52 52/110/52
f 58/111/53 54/112/53 53/101/53
f 59/113/54 55/114/54 54/103/54
f 60/115/55 51/97/55 55/105/55
f 1/3/56 57/116/56 56/106/56
f 57/109/57 3/5/57 58/117/57
f 3/9/58 59/118/58 58/119/58
f 4/10/59 60/120/59 59/113/59
f 5/14/60 56/106/60 60/121/60
f 66/122/1 62/123/1 61/124/1
f 67/125/2 63/126/2 62/127/2
f 68/128/3 64/129/3 63/130/3
f 64/131/4 70/132/4 65/133/4
f 70/134/5 61/124/5 65/135/5
f 71/136/6 67/137/6 66/122/6
f 72/138/7 68/139/7 67/125/7
f 73/140/8 69/141/8 68/128/8
f 74/142/9 70/132/9 69/143/9
f 75/144/10 66/145/10 70/146/10
f 71/147/11 77/148/11 72/149/11
f 77/150/12 73/151/12 72/138/12
f 78/152/13 74/153/13 73/154/13
f 74/142/14 80/155/14 75/156/14
f 75/144/15 76/157/15 71/147/15
f 81/158/16 77/148/16 76/157/16
f 82/159/17 78/160/17 77/150/17
f 83/161/18 79/162/18 78/152/18
f 79/163/19 85/164/19 80/155/19
f 80/165/20 81/158/20 76/157/20
f 86/166/21 82/167/21 81/158/21
f 87/168/22 83/169/22 82/159/22
f 88/170/23 84/171/23 83/161/23
f 84/172/24 90/173/24 85/164/24
f 90/174/25 81/158/25 85/175/25
f 91/176/26 87/177/26 86/178/26
f 92/179/27 88/180/27 87/168/27
f 93/181/28 89/182/28 88/183/28
f 89/184/29 95/185/29 90/173/29
f 95/186/30 86/178/30 90/187/30
f 91/176/31 97/188/31 92/189/31
f 97/190/32 93/191/32 92/179/32
f 98/192/33 94/193/33 93/181/33
f 99/194/34 95/185/34 94/195/34
f 100/196/35 91/176/35 95/186/35
f 101/197/36 97/198/36 96/199/36
f 97/190/37 103/200/37 98/201/37
f 103/202/38 99/203/38 98/192/38
f 104/204/39 100/205/39 99/194/39
f 105/206/40 96/207/40 100/196/40
f 106/208/41 102/209/41 101/197/41
f 107/210/42 103/200/42 102/211/42
f 108/212/43 104/213/43 103/214/43
f 109/215/44 105/216/44 104/204/44
f 110/217/45 101/197/45 105/218/45
f 111/219/46 107/220/46 106/208/46
f 112/221/47 108/222/47 107/210/47
f 113/223/48 109/224/48 108/212/48
f 114/225/49 110/226/49 109/215/49
f 115/227/50 106/208/50 110/217/50
f 116/228/51 112/229/51 111/230/51
f 117/231/52 113/232/52 112/221/52
f 118/233/53 114/234/53 113/223/53
f 119/235/54 115/236/54 114/225/54
f 120/237/55 111/219/55 115/227/55
f 61/124/56 117/238/56 116/228/56
f 62/127/57 118/239/57 117/231/57
f 63/130/58 119/240/58 118/241/58
f 64/131/59 120/242/59 119/235/59
f 65/135/60 116/228/60 120/243/60
f 121/244/1 127/245/1 122/246/1
f 122/247/2 128/248/2 123/249/2
f 128/250/3 124/251/3 123/252/3
f 129/253/4 125/254/4 124/255/4
f 130/256/5 121/244/5 125/257/5
f 126/258/6 132/259/6 127/245/6
f 132/260/7 128/248/7 127/261/7
f 133/262/8 129/263/8 128/250/8
f 134/264/9 130/265/9 129/253/9
f 135/266/10 126/267/10 130/268/10
f 131/269/11 137/270/11 132/271/11
f 137/272/12 133/273/12 132/260/12
f 138/274/13 134/275/13 133/276/13
f 134/264/14 140/277/14 135/278/14
f 140/279/15 131/269/15 135/266/15
f 141/280/16 137/270/16 136/281/16
f 142/282/17 138/283/17 137/272/17
f 143/284/18 139/285/18 138/274/18
f 139/286/19 145/287/19 140/277/19
f 145/288/20 136/281/20 140/279/20
f 146/289/21 142/290/21 141/280/21
f 147/291/22 143/292/22 142/282/22
f 148/293/23 144/294/23 143/284/23
f 144/295/24 150/296/24 145/287/24
f 150/297/25 141/280/25 145/288/25
f 151/298/26 147/299/26 146/300/26
f 152/301/27 148/302/27 147/291/27
f 153/303/28 149/304/28 148/305/28
f 149/306/29 155/307/29 150/296/29
f 155/308/30 146/300/30 150/309/30
f 151/298/31 157/310/31 152/311/31
f 152/301/32 158/312/32 153/313/32
f 158/314/33 154/315/33 153/303/33
f 159/316/34 155/307/34 154/317/34
f 155/308/35 156/318/35 151/298/35
f 161/319/36 157/320/36 156/321/36
f 162/322/37 158/312/37 157/323/37
f 163/324/38 159/325/38 158/314/38
f 164/326/39 160/327/39 159/316/39
f 165/328/40 156/318/40 160/329/40
f 166/330/41 162/331/41 161/319/41
f 162/322/42 168/332/42 163/333/42
f 168/334/43 164/335/43 163/336/43
f 169/337/44 165/338/44 164/326/44
f 170/339/45 161/319/45 165/340/45
f 171/341/46 167/342/46 166/330/46
f 172/343/47 168/332/47 167/344/47
f 173/345/48 169/346/48 168/334/48
f 174/347/49 170/348/49 169/337/49
f 170/339/50 171/341/50 166/330/50
f 176/349/51 172/350/51 171/351/51
f 172/343/52 178/352/52 173/353/52
f 178/354/53 174/355/53 173/345/53
f 179/356/54 175/357/54 174/347/54
f 175/358/55 176/359/55 171/341/55
f 121/244/56 177/360/56 176/349/56
f 122/247/57 178/352/57 177/361/57
f 123/252/58 179/362/58 178/363/58
f 124/255/59 180/364/59 179/356/59
f 125/257/60 176/349/60 180/365/60
f 182/366/61 183/367/61 181/368/61
f 184/369/62 185/370/62 183/371/62
f 186/372/63 187/373/63 185/370/63
f 188/374/64 189/375/64 187/376/64
f 190/377/65 191/378/65 189/375/65
f 192/379/66 193/380/66 191/381/66
f 194/382/67 190/383/67 186/384/67
f 194/385/68 195/386/68 193/380/68
f 196/387/69 181/368/69 195/388/69
f 187/389/70 191/390/70 195/391/70
f 198/392/71 199/393/71 197/394/71
f 200/395/72 201/396/72 199/397/72
f 202/398/73 203/399/73 201/396/73
f 204/400/74 205/401/74 203/402/74
f 206/403/75 207/404/75 205/401/75
f 208/405/76 209/406/76 207/407/76
f 210/408/77 206/409/77 202/410/77
f 210/411/78 211/412/78 209/406/78
f 212/413/79 197/394/79 211/414/79
f 203/415/80 207/416/80 211/417/80
f 214/418/61 215/419/61 213/420/61
f 216/421/62 217/422/62 215/423/62
f 218/424/63 219/425/63 217/422/63
f 220/426/64 221/427/64 219/428/64
f 222/429/65 223/430/65 221/427/65
f 224/431/66 225/432/66 223/433/66
f 226/434/67 222/435/67 218/436/67
f 226/437/68 227/438/68 225/432/68
f 228/439/69 213/420/69 227/440/69
f 219/441/70 223/442/70 227/443/70
f 230/444/81 231/445/81 229/446/81
f 232/447/82 233/448/82 231/449/82
f 234/450/77 235/451/77 233/448/77
f 236/452/83 237/453/83 235/451/83
f 238/454/84 239/455/84 237/456/84
f 240/457/85 241/458/85 239/455/85
f 242/459/86 243/460/86 241/461/86
f 244/462/80 245/463/80 243/460/80
f 246/464/67 238/465/67 234/466/67
f 246/467/87 247/468/87 245/463/87
f 248/469/88 229/446/88 247/470/88
f 235/471/70 243/472/70 247/473/70
f 250/474/61 251/475/61 249/476/61
f 252/477/62 253/478/62 251/479/62
f 254/480/63 255/481/63 253/478/63
f 256/482/64 257/483/64 255/484/64
f 258/485/65 259/486/65 257/483/65
f 260/487/66 261/488/66 259/489/66
f 262/490/67 258/491/67 254/492/67
f 262/493/68 263/494/68 261/488/68
f 264/495/69 249/476/69 263/496/69
f 255/497/70 259/498/70 263/499/70
f 266/500/61 267/501/61 265/502/61
f 268/503/62 269/504/62 267/505/62
f 270/506/63 271/507/63 269/504/63
f 272/508/64 273/509/64 271/510/64
f 274/511/65 275/512/65 273/509/65
f 276/513/66 277/514/66 275/515/66
f 278/516/67 274/517/67 270/518/67
f 278/519/68 279/520/68 277/514/68
f 280/521/69 265/502/69 279/522/69
f 271/523/70 275/524/70 279/525/70
f 282/526/71 283/527/71 281/528/71
f 284/529/72 285/530/72 283/531/72
f 286/532/73 287/533/73 285/530/73
f 288/534/74 289/535/74 287/536/74
f 290/537/75 291/538/75 289/535/75
f 292/539/76 293/540/76 291/541/76
f 294/542/77 290/543/77 286/544/77
f 293/540/78 296/545/78 295/546/78
f 296/547/79 281/528/79 295/548/79
f 287/549/80 291/550/80 295/551/80
f 298/552/61 299/553/61 297/554/61
f 300/555/62 301/556/62 299/557/62
f 302/558/63 303/559/63 301/556/63
f 304/560/64 305/561/64 303/562/64
f 306/563/65 307/564/65 305/561/65
f 308/565/66 309/566/66 307/567/66
f 310/568/67 306/569/67 302/570/67
f 310/571/68 311/572/68 309/566/68
f 312/573/69 297/554/69 311/574/69
f 303/575/70 307/576/70 311/577/70
f 318/578/89 314/579/89 313/580/89
f 319/581/90 315/582/90 314/583/90
f 320/584/91 316/585/91 315/586/91
f 321/587/92 317/588/92 316/589/92
f 322/590/93 313/580/93 317/591/93
f 318/592/94 324/593/94 319/594/94
f 324/595/95 320/596/95 319/581/95
f 325/597/96 321/598/96 320/599/96
f 326/600/97 322/601/97 321/587/97
f 322/602/98 323/603/98 318/592/98
f 328/604/99 324/593/99 323/603/99
f 329/605/100 325/606/100 324/595/100
f 330/607/101 326/608/101 325/597/101
f 331/609/102 327/610/102 326/600/102
f 332/611/103 323/603/103 327/612/103
f 333/613/104 329/614/104 328/604/104
f 334/615/105 330/616/105 329/605/105
f 335/617/106 331/618/106 330/607/106
f 331/609/107 337/619/107 332/620/107
f 332/611/108 333/613/108 328/604/108
f 338/621/109 334/622/109 333/623/109
f 339/624/110 335/625/110 334/615/110
f 340/626/111 336/627/111 335/628/111
f 341/629/112 337/619/112 336/630/112
f 342/631/113 333/623/113 337/632/113
f 343/633/114 339/634/114 338/621/114
f 344/635/115 340/636/115 339/624/115
f 345/637/116 341/638/116 340/626/116
f 346/639/117 342/640/117 341/629/117
f 347/641/118 338/621/118 342/631/118
f 343/642/119 349/643/119 344/644/119
f 344/635/120 350/645/120 345/646/120
f 350/647/121 346/648/121 345/649/121
f 351/650/122 347/651/122 346/639/122
f 352/652/123 343/642/123 347/653/123
f 353/654/124 349/643/124 348/655/124
f 354/656/125 350/645/125 349/657/125
f 355/658/126 351/659/126 350/647/126
f 356/660/127 352/661/127 351/650/127
f 357/662/128 348/655/128 352/652/128
f 358/663/129 354/664/129 353/654/129
f 359/665/130 355/666/130 354/656/130
f 360/667/131 356/668/131 355/658/131
f 361/669/132 357/670/132 356/660/132
f 362/671/133 353/654/133 357/662/133
f 313/580/134 359/672/134 358/673/134
f 359/665/135 315/582/135 360/674/135
f 315/586/136 361/675/136 360/676/136
f 361/669/137 317/588/137 362/677/137
f 317/591/138 358/673/138 362/678/138
f 6/1/1 7/16/1 2/2/1
f 7/4/2 8/18/2 3/5/2
f 8/7/3 9/20/3 4/8/3
f 4/10/4 9/21/4 10/11/4
f 10/13/5 6/1/5 1/3/5
f 11/15/6 12/679/6 7/16/6
f 12/17/7 13/30/7 8/18/7
f 13/19/8 14/680/8 9/20/8
f 9/21/9 14/35/9 15/22/9
f 15/23/10 11/26/10 6/24/10
f 11/26/11 16/36/11 17/27/11
f 17/29/12 18/39/12 13/30/12
f 18/31/13 19/41/13 14/32/13
f 19/34/14 20/43/14 15/22/14
f 15/23/15 20/45/15 16/36/15
f 16/36/16 21/46/16 22/37/16
f 22/38/17 23/49/17 18/39/17
f 23/40/18 24/51/18 19/41/18
f 19/34/19 24/52/19 25/42/19
f 25/44/20 21/46/20 16/36/20
f 21/46/21 26/54/21 27/47/21
f 27/48/22 28/59/22 23/49/22
f 28/50/23 29/681/23 24/51/23
f 24/52/24 29/63/24 30/53/24
f 25/44/25 30/682/25 26/54/25
f 26/55/26 31/68/26 32/56/26
f 32/58/27 33/70/27 28/59/27
f 33/60/28 34/72/28 29/61/28
f 29/63/29 34/73/29 35/64/29
f 35/65/30 31/68/30 26/55/30
f 36/67/31 37/683/31 32/56/31
f 32/58/32 37/79/32 38/69/32
f 38/71/33 39/81/33 34/72/33
f 34/73/34 39/83/34 40/74/34
f 35/65/35 40/85/35 36/67/35
f 41/75/36 42/87/36 37/76/36
f 42/78/37 43/89/37 38/69/37
f 43/80/38 44/684/38 39/81/38
f 44/82/39 45/94/39 40/74/39
f 45/84/40 41/685/40 36/67/40
f 46/86/41 47/98/41 42/87/41
f 42/78/42 47/99/42 48/88/42
f 48/90/43 49/102/43 44/91/43
f 49/93/44 50/104/44 45/94/44
f 50/95/45 46/86/45 41/75/45
f 51/97/46 52/686/46 47/98/46
f 47/99/47 52/110/47 53/100/47
f 53/101/48 54/112/48 49/102/48
f 54/103/49 55/114/49 50/104/49
f 55/105/50 51/97/50 46/86/50
f 56/106/51 57/116/51 52/107/51
f 57/109/52 58/117/52 53/100/52
f 58/111/53 59/687/53 54/112/53
f 59/113/54 60/120/54 55/114/54
f 60/115/55 56/688/55 51/97/55
f 1/3/56 2/2/56 57/116/56
f 57/109/57 2/6/57 3/5/57
f 3/9/58 4/8/58 59/118/58
f 4/10/59 5/12/59 60/120/59
f 5/14/60 1/3/60 56/106/60
f 66/122/1 67/137/1 62/123/1
f 67/125/2 68/139/2 63/126/2
f 68/128/3 69/141/3 64/129/3
f 64/131/4 69/143/4 70/132/4
f 70/134/5 66/122/5 61/124/5
f 71/136/6 72/689/6 67/137/6
f 72/138/7 73/151/7 68/139/7
f 73/140/8 74/690/8 69/141/8
f 74/142/9 75/156/9 70/132/9
f 75/144/10 71/147/10 66/145/10
f 71/147/11 76/157/11 77/148/11
f 77/150/12 78/160/12 73/151/12
f 78/152/13 79/162/13 74/153/13
f 74/142/14 79/163/14 80/155/14
f 75/144/15 80/165/15 76/157/15
f 81/158/16 82/167/16 77/148/16
f 82/159/17 83/169/17 78/160/17
f 83/161/18 84/171/18 79/162/18
f 79/163/19 84/172/19 85/164/19
f 80/165/20 85/175/20 81/158/20
f 86/166/21 87/691/21 82/167/21
f 87/168/22 88/180/22 83/169/22
f 88/170/23 89/692/23 84/171/23
f 84/172/24 89/184/24 90/173/24
f 90/174/25 86/166/25 81/158/25
f 91/176/26 92/189/26 87/177/26
f 92/179/27 93/191/27 88/180/27
f 93/181/28 94/193/28 89/182/28
f 89/184/29 94/195/29 95/185/29
f 95/186/30 91/176/30 86/178/30
f 91/176/31 96/207/31 97/188/31
f 97/190/32 98/201/32 93/191/32
f 98/192/33 99/203/33 94/193/33
f 99/194/34 100/205/34 95/185/34
f 100/196/35 96/207/35 91/176/35
f 101/197/36 102/209/36 97/198/36
f 97/190/37 102/211/37 103/200/37
f 103/202/38 104/693/38 99/203/38
f 104/204/39 105/216/39 100/205/39
f 105/206/40 101/694/40 96/207/40
f 106/208/41 107/220/41 102/209/41
f 107/210/42 108/222/42 103/200/42
f 108/212/43 109/224/43 104/213/43
f 109/215/44 110/226/44 105/216/44
f 110/217/45 106/208/45 101/197/45
f 111/219/46 112/695/46 107/220/46
f 112/221/47 113/232/47 108/222/47
f 113/223/48 114/234/48 109/224/48
f 114/225/49 115/236/49 110/226/49
f 115/227/50 111/219/50 106/208/50
f 116/228/51 117/238/51 112/229/51
f 117/231/52 118/239/52 113/232/52
f 118/233/53 119/696/53 114/234/53
f 119/235/54 120/242/54 115/236/54
f 120/237/55 116/697/55 111/219/55
f 61/124/56 62/123/56 117/238/56
f 62/127/57 63/126/57 118/239/57
f 63/130/58 64/129/58 119/240/58
f 64/131/59 65/133/59 120/242/59
f 65/135/60 61/124/60 116/228/60
f 121/244/1 126/258/1 127/245/1
f 122/247/2 127/261/2 128/248/2
f 128/250/3 129/263/3 124/251/3
f 129/253/4 130/265/4 125/254/4
f 130/256/5 126/258/5 121/244/5
f 126/258/6 131/698/6 132/259/6
f 132/260/7 133/273/7 128/248/7
f 133/262/8 134/699/8 129/263/8
f 134/264/9 135/278/9 130/265/9
f 135/266/10 131/269/10 126/267/10
f 131/269/11 136/281/11 137/270/11
f 137/272/12 138/283/12 133/273/12
f 138/274/13 139/285/13 134/275/13
f 134/264/14 139/286/14 140/277/14
f 140/279/15 136/281/15 131/269/15
f 141/280/16 142/290/16 137/270/16
f 142/282/17 143/292/17 138/283/17
f 143/284/18 144/294/18 139/285/18
f 139/286/19 144/295/19 145/287/19
f 145/288/20 141/280/20 136/281/20
f 146/289/21 147/700/21 142/290/21
f 147/291/22 148/302/22 143/292/22
f 148/293/23 149/701/23 144/294/23
f 144/295/24 149/306/24 150/296/24
f 150/297/25 146/289/25 141/280/25
f 151/298/26 152/311/26 147/299/26
f 152/301/27 153/313/27 148/302/27
f 153/303/28 154/315/28 149/304/28
f 149/306/29 154/317/29 155/307/29
f 155/308/30 151/298/30 146/300/30
f 151/298/31 156/318/31 157/310/31
f 152/301/32 157/323/32 158/312/32
f 158/314/33 159/325/33 154/315/33
f 159/316/34 160/327/34 155/307/34
f 155/308/35 160/329/35 156/318/35
f 161/319/36 162/331/36 157/320/36
f 162/322/37 163/333/37 158/312/37
f 163/324/38 164/702/38 159/325/38
f 164/326/39 165/338/39 160/327/39
f 165/328/40 161/703/40 156/318/40
f 166/330/41 167/342/41 162/331/41
f 162/322/42 167/344/42 168/332/42
f 168/334/43 169/346/43 164/335/43
f 169/337/44 170/348/44 165/338/44
f 170/339/45 166/330/45 161/319/45
f 171/341/46 172/704/46 167/342/46
f 172/343/47 173/353/47 168/332/47
f 173/345/48 174/355/48 169/346/48
f 174/347/49 175/357/49 170/348/49
f 170/339/50 175/358/50 171/341/50
f 176/349/51 177/360/51 172/350/51
f 172/343/52 177/361/52 178/352/52
f 178/354/53 179/705/53 174/355/53
f 179/356/54 180/364/54 175/357/54
f 175/358/55 180/706/55 176/359/55
f 121/244/56 122/246/56 177/360/56
f 122/247/57 123/249/57 178/352/57
f 123/252/58 124/251/58 179/362/58
f 124/255/59 125/254/59 180/364/59
f 125/257/60 121/244/60 176/349/60
f 182/366/61 184/707/61 183/367/61
f 184/369/62 186/372/62 185/370/62
f 186/372/63 188/708/63 187/373/63
f 188/374/64 190/377/64 189/375/64
f 190/377/65 192/709/65 191/378/65
f 192/379/66 194/385/66 193/380/66
f 186/384/67 184/710/67 182/711/67
f 182/711/67 196/712/67 194/382/67
f 194/382/67 192/713/67 190/383/67
f 190/383/67 188/714/67 186/384/67
f 186/384/67 182/711/67 194/382/67
f 194/385/68 196/715/68 195/386/68
f 196/387/69 182/366/69 181/368/69
f 195/391/70 181/716/70 183/717/70
f 183/717/70 185/718/70 187/389/70
f 187/389/70 189/719/70 191/390/70
f 191/390/70 193/720/70 195/391/70
f 195/391/70 183/717/70 187/389/70
f 198/392/71 200/721/71 199/393/71
f 200/395/72 202/398/72 201/396/72
f 202/398/73 204/722/73 203/399/73
f 204/400/74 206/403/74 205/401/74
f 206/403/75 208/723/75 207/404/75
f 208/405/76 210/411/76 209/406/76
f 202/410/77 200/724/77 198/725/77
f 198/725/77 212/726/77 210/408/77
f 210/408/77 208/727/77 206/409/77
f 206/409/77 204/728/77 202/410/77
f 202/410/77 198/725/77 210/408/77
f 210/411/78 212/729/78 211/412/78
f 212/413/79 198/392/79 197/394/79
f 211/417/80 197/730/80 199/731/80
f 199/731/80 201/732/80 203/415/80
f 203/415/80 205/733/80 207/416/80
f 207/416/80 209/734/80 211/417/80
f 211/417/80 199/731/80 203/415/80
f 214/418/61 216/735/61 215/419/61
f 216/421/62 218/424/62 217/422/62
f 218/424/63 220/736/63 219/425/63
f 220/426/64 222/429/64 221/427/64
f 222/429/65 224/737/65 223/430/65
f 224/431/66 226/437/66 225/432/66
f 218/436/67 216/738/67 214/739/67
f 214/739/67 228/740/67 226/434/67
f 226/434/67 224/741/67 222/435/67
f 222/435/67 220/742/67 218/436/67
f 218/436/67 214/739/67 226/434/67
f 226/437/68 228/743/68 227/438/68
f 228/439/69 214/418/69 213/420/69
f 227/443/70 213/744/70 215/745/70
f 215/745/70 217/746/70 219/441/70
f 219/441/70 221/747/70 223/442/70
f 223/442/70 225/748/70 227/443/70
f 227/443/70 215/745/70 219/441/70
f 230/444/81 232/749/81 231/445/81
f 232/447/82 234/450/82 233/448/82
f 234/450/77 236/452/77 235/451/77
f 236/452/83 238/750/83 237/453/83
f 238/454/84 240/457/84 239/455/84
f 240/457/85 242/751/85 241/458/85
f 242/459/86 244/462/86 243/460/86
f 244/462/80 246/467/80 245/463/80
f 234/466/67 232/752/67 230/753/67
f 230/753/67 248/754/67 246/464/67
f 246/464/67 244/755/67 242/756/67
f 242/756/67 240/757/67 238/465/67
f 238/465/67 236/758/67 234/466/67
f 234/466/67 230/753/67 246/464/67
f 246/464/67 242/756/67 238/465/67
f 246/467/87 248/759/87 247/468/87
f 248/469/88 230/444/88 229/446/88
f 247/473/70 229/760/70 231/761/70
f 231/761/70 233/762/70 235/471/70
f 235/471/70 237/763/70 239/764/70
f 239/764/70 241/765/70 243/472/70
f 243/472/70 245/766/70 247/473/70
f 247/473/70 231/761/70 235/471/70
f 235/471/70 239/764/70 243/472/70
f 250/474/61 252/767/61 251/475/61
f 252/477/62 254/480/62 253/478/62
f 254/480/63 256/768/63 255/481/63
f 256/482/64 258/485/64 257/483/64
f 258/485/65 260/769/65 259/486/65
f 260/487/66 262/493/66 261/488/66
f 254/492/67 252/770/67 250/771/67
f 250/771/67 264/772/67 262/490/67
f 262/490/67 260/773/67 258/491/67
f 258/491/67 256/774/67 254/492/67
f 254/492/67 250/771/67 262/490/67
f 262/493/68 264/775/68 263/494/68
f 264/495/69 250/474/69 249/476/69
f 263/499/70 249/776/70 251/777/70
f 251/777/70 253/778/70 255/497/70
f 255/497/70 257/779/70 259/498/70
f 259/498/70 261/780/70 263/499/70
f 263/499/70 251/777/70 255/497/70
f 266/500/61 268/781/61 267/501/61
f 268/503/62 270/506/62 269/504/62
f 270/506/63 272/782/63 271/507/63
f 272/508/64 274/511/64 273/509/64
f 274/511/65 276/783/65 275/512/65
f 276/513/66 278/519/66 277/514/66
f 270/518/67 268/784/67 266/785/67
f 266/785/67 280/786/67 278/516/67
f 278/516/67 276/787/67 274/517/67
f 274/517/67 272/788/67 270/518/67
f 270/518/67 266/785/67 278/516/67
f 278/519/68 280/789/68 279/520/68
f 280/521/69 266/500/69 265/502/69
f 279/525/70 265/790/70 267/791/70
f 267/791/70 269/792/70 271/523/70
f 271/523/70 273/793/70 275/524/70
f 275/524/70 277/794/70 279/525/70
f 279/525/70 267/791/70 271/523/70
f 282/526/71 284/795/71 283/527/71
f 284/529/72 286/532/72 285/530/72
f 286/532/73 288/796/73 287/533/73
f 288/534/74 290/537/74 289/535/74
f 290/537/75 292/797/75 291/538/75
f 292/539/76 294/798/76 293/540/76
f 286/544/77 284/799/77 282/800/77
f 282/800/77 296/801/77 294/542/77
f 294/542/77 292/802/77 290/543/77
f 290/543/77 288/803/77 286/544/77
f 286/544/77 282/800/77 294/542/77
f 293/540/78 294/798/78 296/545/78
f 296/547/79 282/526/79 281/528/79
f 295/551/80 281/804/80 283/805/80
f 283/805/80 285/806/80 287/549/80
f 287/549/80 289/807/80 291/550/80
f 291/550/80 293/808/80 295/551/80
f 295/551/80 283/805/80 287/549/80
f 298/552/61 300/809/61 299/553/61
f 300/555/62 302/558/62 301/556/62
f 302/558/63 304/810/63 303/559/63
f 304/560/64 306/563/64 305/561/64
f 306/563/65 308/811/65 307/564/65
f 308/565/66 310/571/66 309/566/66
f 302/570/67 300/812/67 298/813/67
f 298/813/67 312/814/67 310/568/67
f 310/568/67 308/815/67 306/569/67
f 306/569/67 304/816/67 302/570/67
f 302/570/67 298/813/67 310/568/67
f 310/571/68 312/817/68 311/572/68
f 312/573/69 298/552/69 297/554/69
f 311/577/70 297/818/70 299/819/70
f 299/819/70 301/820/70 303/575/70
f 303/575/70 305/821/70 307/576/70
f 307/576/70 309/822/70 311/577/70
f 311/577/70 299/819/70 303/575/70
f 318/578/89 319/823/89 314/579/89
f 319/581/90 320/596/90 315/582/90
f 320/584/91 321/824/91 316/585/91
f 321/587/92 322/601/92 317/588/92
f 322/590/93 318/578/93 313/580/93
f 318/592/94 323/603/94 324/593/94
f 324/595/139 325/606/139 320/596/139
f 325/597/96 326/608/96 321/598/96
f 326/600/140 327/610/140 322/601/140
f 322/602/98 327/612/98 323/603/98
f 328/604/99 329/614/99 324/593/99
f 329/605/100 330/616/100 325/606/100
f 330/607/101 331/618/101 326/608/101
f 331/609/102 332/620/102 327/610/102
f 332/611/103 328/604/103 323/603/103
f 333/613/104 334/825/104 329/614/104
f 334/615/105 335/625/105 330/616/105
f 335/617/106 336/826/106 331/618/106
f 331/609/107 336/630/107 337/619/107
f 332/611/108 337/827/108 333/613/108
f 338/621/109 339/634/109 334/622/109
f 339/624/110 340/636/110 335/625/110
f 340/626/111 341/638/111 336/627/111
f 341/629/112 342/640/112 337/619/112
f 342/631/113 338/621/113 333/623/113
f 343/633/114 344/828/114 339/634/114
f 344/635/115 345/646/115 340/636/115
f 345/637/116 346/829/116 341/638/116
f 346/639/117 347/651/117 342/640/117
f 347/641/118 343/633/118 338/621/118
f 343/642/119 348/655/119 349/643/119
f 344/635/120 349/657/120 350/645/120
f 350/647/121 351/659/121 346/648/121
f 351/650/122 352/661/122 347/651/122
f 352/652/123 348/655/123 343/642/123
f 353/654/124 354/664/124 349/643/124
f 354/656/125 355/666/125 350/645/125
f 355/658/126 356/668/126 351/659/126
f 356/660/127 357/670/127 352/661/127
f 357/662/128 353/654/128 348/655/128
f 358/663/129 359/830/129 354/664/129
f 359/665/141 360/674/141 355/666/141
f 360/667/131 361/831/131 356/668/131
f 361/669/142 362/677/142 357/670/142
f 362/671/133 358/663/133 353/654/133
f 313/580/134 314/579/134 359/672/134
f 359/665/135 314/583/135 315/582/135
f 315/586/136 316/585/136 361/675/136
f 361/669/137 316/589/137 317/588/137
f 317/591/138 313/580/138 358/673/138
