# Blender 5.2.0 LTS
# www.blender.org
o distillatore
v 0.000000 0.000000 -0.230000
v 0.000000 0.150000 -0.230000
v 0.135191 0.000000 -0.186074
v 0.135191 0.150000 -0.186074
v 0.218743 0.000000 -0.071074
v 0.218743 0.150000 -0.071074
v 0.218743 0.000000 0.071074
v 0.218743 0.150000 0.071074
v 0.135191 0.000000 0.186074
v 0.135191 0.150000 0.186074
v 0.000000 0.000000 0.230000
v 0.000000 0.150000 0.230000
v -0.135191 0.000000 0.186074
v -0.135191 0.150000 0.186074
v -0.218743 0.000000 0.071074
v -0.218743 0.150000 0.071074
v -0.218743 0.000000 -0.071074
v -0.218743 0.150000 -0.071074
v -0.135191 0.000000 -0.186074
v -0.135191 0.150000 -0.186074
v 0.000000 0.508500 0.000000
v 0.000000 0.441293 -0.164185
v 0.000000 0.369720 -0.204735
v 0.000000 0.290280 -0.204735
v 0.000000 0.218707 -0.164185
v 0.000000 0.169177 -0.091116
v 0.000000 0.151500 0.000000
v 0.045558 0.490823 -0.078908
v 0.082092 0.441293 -0.142188
v 0.102367 0.369720 -0.177306
v 0.102367 0.290280 -0.177306
v 0.082092 0.218707 -0.142188
v 0.045558 0.169177 -0.078908
v 0.078908 0.490823 -0.045558
v 0.142188 0.441293 -0.082092
v 0.177306 0.369720 -0.102367
v 0.177306 0.290280 -0.102367
v 0.142188 0.218707 -0.082092
v 0.078908 0.169177 -0.045558
v 0.091116 0.490823 0.000000
v 0.164185 0.441293 0.000000
v 0.204735 0.369720 0.000000
v 0.204735 0.290280 0.000000
v 0.164185 0.218707 0.000000
v 0.091116 0.169177 0.000000
v 0.078908 0.490823 0.045558
v 0.142188 0.441293 0.082092
v 0.177306 0.369720 0.102367
v 0.177306 0.290280 0.102367
v 0.142188 0.218707 0.082092
v 0.078908 0.169177 0.045558
v 0.045558 0.490823 0.078908
v 0.082092 0.441293 0.142188
v 0.102367 0.369720 0.177306
v 0.102367 0.290280 0.177306
v 0.082092 0.218707 0.142188
v 0.045558 0.169177 0.078908
v -0.000000 0.490823 0.091116
v -0.000000 0.441293 0.164185
v -0.000000 0.369720 0.204735
v -0.000000 0.290280 0.204735
v -0.000000 0.218707 0.164185
v -0.000000 0.169177 0.091116
v -0.045558 0.490823 0.078908
v -0.082092 0.441293 0.142188
v -0.102367 0.369720 0.177306
v -0.102367 0.290280 0.177306
v -0.082092 0.218707 0.142188
v -0.045558 0.169177 0.078908
v -0.078908 0.490823 0.045558
v -0.142188 0.441293 0.082092
v -0.177306 0.369720 0.102367
v -0.177306 0.290280 0.102367
v -0.142188 0.218707 0.082092
v -0.078908 0.169177 0.045558
v -0.091116 0.490823 -0.000000
v -0.164185 0.441293 0.000000
v -0.204735 0.369720 -0.000000
v -0.204735 0.290280 -0.000000
v -0.164185 0.218707 0.000000
v -0.091116 0.169177 -0.000000
v -0.078908 0.490823 -0.045558
v -0.142188 0.441293 -0.082092
v -0.177306 0.369720 -0.102367
v -0.177306 0.290280 -0.102367
v -0.142188 0.218707 -0.082092
v -0.078908 0.169177 -0.045558
v -0.045558 0.490823 -0.078908
v -0.082092 0.441293 -0.142188
v -0.102367 0.369720 -0.177306
v -0.102367 0.290280 -0.177306
v -0.082092 0.218707 -0.142188
v -0.045558 0.169177 -0.078908
v 0.000000 0.490823 -0.091116
v 0.000000 0.470000 -0.140000
v 0.000000 0.630000 -0.050000
v 0.070000 0.470000 -0.121244
v 0.025000 0.630000 -0.043301
v 0.121244 0.470000 -0.070000
v 0.043301 0.630000 -0.025000
v 0.140000 0.470000 0.000000
v 0.050000 0.630000 0.000000
v 0.121244 0.470000 0.070000
v 0.043301 0.630000 0.025000
v 0.070000 0.470000 0.121244
v 0.025000 0.630000 0.043301
v 0.000000 0.470000 0.140000
v 0.000000 0.630000 0.050000
v -0.070000 0.470000 0.121244
v -0.025000 0.630000 0.043301
v -0.121244 0.470000 0.070000
v -0.043301 0.630000 0.025000
v -0.140000 0.470000 0.000000
v -0.050000 0.630000 0.000000
v -0.121244 0.470000 -0.070000
v -0.043301 0.630000 -0.025000
v -0.070000 0.470000 -0.121244
v -0.025000 0.630000 -0.043301
v 0.000000 0.610000 -0.033000
v 0.000000 0.750000 -0.033000
v 0.023335 0.610000 -0.023335
v 0.023335 0.750000 -0.023335
v 0.033000 0.610000 0.000000
v 0.033000 0.750000 0.000000
v 0.023335 0.610000 0.023335
v 0.023335 0.750000 0.023335
v 0.000000 0.610000 0.033000
v 0.000000 0.750000 0.033000
v -0.023335 0.610000 0.023335
v -0.023335 0.750000 0.023335
v -0.033000 0.610000 0.000000
v -0.033000 0.750000 0.000000
v -0.023335 0.610000 -0.023335
v -0.023335 0.750000 -0.023335
v 0.004770 0.693765 -0.033000
v 0.275230 0.766235 -0.033000
v 0.010810 0.671226 -0.023335
v 0.281269 0.743695 -0.023335
v 0.013311 0.661890 0.000000
v 0.283771 0.734359 0.000000
v 0.010810 0.671226 0.023335
v 0.281269 0.743695 0.023335
v 0.004770 0.693765 0.033000
v 0.275230 0.766235 0.033000
v -0.001269 0.716305 0.023335
v 0.269190 0.788774 0.023335
v -0.003771 0.725641 0.000000
v 0.266689 0.798110 0.000000
v -0.001269 0.716305 -0.023335
v 0.269190 0.788774 -0.023335
v 0.405000 0.600000 0.000000
v 0.385000 0.620000 0.000000
v 0.365000 0.600000 0.000000
v 0.385000 0.580000 0.000000
v 0.384947 0.600000 -0.061717
v 0.368766 0.620000 -0.049962
v 0.352586 0.600000 -0.038206
v 0.368766 0.580000 -0.049962
v 0.332447 0.600000 -0.099861
v 0.326266 0.620000 -0.080840
v 0.320086 0.600000 -0.061819
v 0.326266 0.580000 -0.080840
v 0.267553 0.600000 -0.099861
v 0.273734 0.620000 -0.080840
v 0.279914 0.600000 -0.061819
v 0.273734 0.580000 -0.080840
v 0.215053 0.600000 -0.061717
v 0.231234 0.620000 -0.049962
v 0.247414 0.600000 -0.038206
v 0.231234 0.580000 -0.049962
v 0.195000 0.600000 -0.000000
v 0.215000 0.620000 -0.000000
v 0.235000 0.600000 -0.000000
v 0.215000 0.580000 -0.000000
v 0.215053 0.600000 0.061717
v 0.231234 0.620000 0.049962
v 0.247414 0.600000 0.038206
v 0.231234 0.580000 0.049962
v 0.267553 0.600000 0.099861
v 0.273734 0.620000 0.080840
v 0.279914 0.600000 0.061819
v 0.273734 0.580000 0.080840
v 0.332447 0.600000 0.099861
v 0.326266 0.620000 0.080840
v 0.320086 0.600000 0.061819
v 0.326266 0.580000 0.080840
v 0.384947 0.600000 0.061717
v 0.368766 0.620000 0.049962
v 0.352586 0.600000 0.038206
v 0.368766 0.580000 0.049962
v 0.405000 0.510000 0.000000
v 0.385000 0.530000 0.000000
v 0.365000 0.510000 0.000000
v 0.385000 0.490000 0.000000
v 0.384947 0.510000 -0.061717
v 0.368766 0.530000 -0.049962
v 0.352586 0.510000 -0.038206
v 0.368766 0.490000 -0.049962
v 0.332447 0.510000 -0.099861
v 0.326266 0.530000 -0.080840
v 0.320086 0.510000 -0.061819
v 0.326266 0.490000 -0.080840
v 0.267553 0.510000 -0.099861
v 0.273734 0.530000 -0.080840
v 0.279914 0.510000 -0.061819
v 0.273734 0.490000 -0.080840
v 0.215053 0.510000 -0.061717
v 0.231234 0.530000 -0.049962
v 0.247414 0.510000 -0.038206
v 0.231234 0.490000 -0.049962
v 0.195000 0.510000 -0.000000
v 0.215000 0.530000 -0.000000
v 0.235000 0.510000 -0.000000
v 0.215000 0.490000 -0.000000
v 0.215053 0.510000 0.061717
v 0.231234 0.530000 0.049962
v 0.247414 0.510000 0.038206
v 0.231234 0.490000 0.049962
v 0.267553 0.510000 0.099861
v 0.273734 0.530000 0.080840
v 0.279914 0.510000 0.061819
v 0.273734 0.490000 0.080840
v 0.332447 0.510000 0.099861
v 0.326266 0.530000 0.080840
v 0.320086 0.510000 0.061819
v 0.326266 0.490000 0.080840
v 0.384947 0.510000 0.061717
v 0.368766 0.530000 0.049962
v 0.352586 0.510000 0.038206
v 0.368766 0.490000 0.049962
v 0.405000 0.420000 0.000000
v 0.385000 0.440000 0.000000
v 0.365000 0.420000 0.000000
v 0.385000 0.400000 0.000000
v 0.384947 0.420000 -0.061717
v 0.368766 0.440000 -0.049962
v 0.352586 0.420000 -0.038206
v 0.368766 0.400000 -0.049962
v 0.332447 0.420000 -0.099861
v 0.326266 0.440000 -0.080840
v 0.320086 0.420000 -0.061819
v 0.326266 0.400000 -0.080840
v 0.267553 0.420000 -0.099861
v 0.273734 0.440000 -0.080840
v 0.279914 0.420000 -0.061819
v 0.273734 0.400000 -0.080840
v 0.215053 0.420000 -0.061717
v 0.231234 0.440000 -0.049962
v 0.247414 0.420000 -0.038206
v 0.231234 0.400000 -0.049962
v 0.195000 0.420000 -0.000000
v 0.215000 0.440000 -0.000000
v 0.235000 0.420000 -0.000000
v 0.215000 0.400000 -0.000000
v 0.215053 0.420000 0.061717
v 0.231234 0.440000 0.049962
v 0.247414 0.420000 0.038206
v 0.231234 0.400000 0.049962
v 0.267553 0.420000 0.099861
v 0.273734 0.440000 0.080840
v 0.279914 0.420000 0.061819
v 0.273734 0.400000 0.080840
v 0.332447 0.420000 0.099861
v 0.326266 0.440000 0.080840
v 0.320086 0.420000 0.061819
v 0.326266 0.400000 0.080840
v 0.384947 0.420000 0.061717
v 0.368766 0.440000 0.049962
v 0.352586 0.420000 0.038206
v 0.368766 0.400000 0.049962
v 0.300000 0.240000 -0.022000
v 0.300000 0.400000 -0.022000
v 0.319053 0.240000 -0.011000
v 0.319053 0.400000 -0.011000
v 0.319053 0.240000 0.011000
v 0.319053 0.400000 0.011000
v 0.300000 0.240000 0.022000
v 0.300000 0.400000 0.022000
v 0.280947 0.240000 0.011000
v 0.280947 0.400000 0.011000
v 0.280947 0.240000 -0.011000
v 0.280947 0.400000 -0.011000
v 0.200000 0.250000 -0.022000
v 0.290000 0.250000 -0.022000
v 0.200000 0.230947 -0.011000
v 0.290000 0.230947 -0.011000
v 0.200000 0.230947 0.011000
v 0.290000 0.230947 0.011000
v 0.200000 0.250000 0.022000
v 0.290000 0.250000 0.022000
v 0.200000 0.269053 0.011000
v 0.290000 0.269053 0.011000
v 0.200000 0.269053 -0.011000
v 0.290000 0.269053 -0.011000
vn 0.3090 -0.0000 -0.9511
vn 0.8090 -0.0000 -0.5878
vn 1.0000 -0.0000 -0.0000
vn 0.8090 -0.0000 0.5878
vn 0.3090 -0.0000 0.9511
vn -0.3090 -0.0000 0.9511
vn -0.8090 -0.0000 0.5878
vn -1.0000 -0.0000 -0.0000
vn -0.0000 1.0000 -0.0000
vn -0.8090 -0.0000 -0.5878
vn -0.3090 -0.0000 -0.9511
vn -0.0000 -1.0000 -0.0000
vn 0.1487 -0.8186 -0.5549
vn 0.2588 -0.0000 -0.9659
vn 0.1487 0.8186 -0.5549
vn 0.0510 -0.9804 -0.1902
vn 0.2270 -0.4801 -0.8473
vn 0.2270 0.4801 -0.8473
vn 0.0510 0.9804 -0.1902
vn 0.6203 0.4801 -0.6203
vn 0.1392 0.9804 -0.1392
vn 0.4062 -0.8186 -0.4062
vn 0.7071 -0.0000 -0.7071
vn 0.4062 0.8186 -0.4062
vn 0.1392 -0.9804 -0.1392
vn 0.6203 -0.4801 -0.6203
vn 0.5549 -0.8186 -0.1487
vn 0.9659 -0.0000 -0.2588
vn 0.5549 0.8186 -0.1487
vn 0.1902 -0.9804 -0.0510
vn 0.8473 -0.4801 -0.2270
vn 0.8473 0.4801 -0.2270
vn 0.1902 0.9804 -0.0510
vn 0.5549 -0.8186 0.1487
vn 0.9659 -0.0000 0.2588
vn 0.5549 0.8186 0.1487
vn 0.1902 -0.9804 0.0510
vn 0.8473 -0.4801 0.2270
vn 0.8473 0.4801 0.2270
vn 0.1902 0.9804 0.0510
vn 0.4062 0.8186 0.4062
vn 0.1392 -0.9804 0.1392
vn 0.6203 -0.4801 0.6203
vn 0.6203 0.4801 0.6203
vn 0.1392 0.9804 0.1392
vn 0.4062 -0.8186 0.4062
vn 0.7071 -0.0000 0.7071
vn 0.0510 -0.9804 0.1902
vn 0.2270 -0.4801 0.8473
vn 0.2270 0.4801 0.8473
vn 0.0510 0.9804 0.1902
vn 0.1487 -0.8186 0.5549
vn 0.2588 -0.0000 0.9659
vn 0.1487 0.8186 0.5549
vn -0.2270 -0.4801 0.8473
vn -0.2270 0.4801 0.8473
vn -0.0510 0.9804 0.1902
vn -0.1487 -0.8186 0.5549
vn -0.2588 -0.0000 0.9659
vn -0.1487 0.8186 0.5549
vn -0.0510 -0.9804 0.1902
vn -0.1392 0.9804 0.1392
vn -0.4062 -0.8186 0.4062
vn -0.7071 -0.0000 0.7071
vn -0.4062 0.8186 0.4062
vn -0.1392 -0.9804 0.1392
vn -0.6203 -0.4801 0.6203
vn -0.6203 0.4801 0.6203
vn -0.5549 -0.8186 0.1487
vn -0.9659 -0.0000 0.2588
vn -0.5549 0.8186 0.1487
vn -0.1902 -0.9804 0.0510
vn -0.8473 -0.4801 0.2270
vn -0.8473 0.4801 0.2270
vn -0.1902 0.9804 0.0510
vn -0.9659 -0.0000 -0.2588
vn -0.5549 0.8186 -0.1487
vn -0.1902 -0.9804 -0.0510
vn -0.8473 -0.4801 -0.2270
vn -0.8473 0.4801 -0.2270
vn -0.1902 0.9804 -0.0510
vn -0.5549 -0.8186 -0.1487
vn -0.1392 -0.9804 -0.1392
vn -0.6203 -0.4801 -0.6203
vn -0.6203 0.4801 -0.6203
vn -0.1392 0.9804 -0.1392
vn -0.4062 -0.8186 -0.4062
vn -0.7071 -0.0000 -0.7071
vn -0.4062 0.8186 -0.4062
vn -0.0510 -0.9804 -0.1902
vn -0.2270 -0.4801 -0.8473
vn -0.2270 0.4801 -0.8473
vn -0.0510 0.9804 -0.1902
vn -0.1487 -0.8186 -0.5549
vn -0.2588 -0.0000 -0.9659
vn -0.1487 0.8186 -0.5549
vn 0.2274 0.4774 -0.8487
vn 0.6213 0.4774 -0.6213
vn 0.8487 0.4774 -0.2274
vn 0.8487 0.4774 0.2274
vn 0.6213 0.4774 0.6213
vn 0.2274 0.4774 0.8487
vn -0.2274 0.4774 0.8487
vn -0.6213 0.4774 0.6213
vn -0.8487 0.4774 0.2274
vn -0.8487 0.4774 -0.2274
vn -0.6213 0.4774 -0.6213
vn -0.2274 0.4774 -0.8487
vn 0.3827 -0.0000 -0.9239
vn 0.9239 -0.0000 -0.3827
vn 0.9239 -0.0000 0.3827
vn 0.3827 -0.0000 0.9239
vn -0.3827 -0.0000 0.9239
vn -0.9239 -0.0000 0.3827
vn -0.9239 -0.0000 -0.3827
vn -0.3827 -0.0000 -0.9239
vn 0.0990 -0.3696 -0.9239
vn 0.2391 -0.8924 -0.3827
vn 0.2391 -0.8924 0.3827
vn 0.0990 -0.3696 0.9239
vn -0.0990 0.3696 0.9239
vn -0.2391 0.8924 0.3827
vn 0.9659 0.2588 -0.0000
vn -0.2391 0.8924 -0.3827
vn -0.0990 0.3696 -0.9239
vn -0.9659 -0.2588 -0.0000
vn 0.6892 0.6892 -0.2239
vn -0.6892 0.6892 0.2239
vn -0.6892 -0.6892 0.2239
vn 0.6892 -0.6892 -0.2239
vn 0.4259 0.6892 -0.5862
vn -0.4259 0.6892 0.5862
vn -0.4259 -0.6892 0.5862
vn 0.4259 -0.6892 -0.5862
vn -0.0000 0.6892 -0.7246
vn -0.0000 0.6892 0.7246
vn -0.0000 -0.6892 0.7246
vn -0.0000 -0.6892 -0.7246
vn -0.4259 0.6892 -0.5862
vn 0.4259 0.6892 0.5862
vn 0.4259 -0.6892 0.5862
vn -0.4259 -0.6892 -0.5862
vn -0.6892 0.6892 -0.2239
vn 0.6892 0.6892 0.2239
vn 0.6892 -0.6892 0.2239
vn -0.6892 -0.6892 -0.2239
vn 0.5000 -0.0000 -0.8660
vn 0.5000 -0.0000 0.8660
vn -0.5000 -0.0000 0.8660
vn -0.5000 -0.0000 -0.8660
vn -0.0000 -0.5000 -0.8660
vn -0.0000 -0.5000 0.8660
vn -0.0000 0.5000 0.8660
vn -0.0000 0.5000 -0.8660
vn 0.6891 0.6892 0.2239
vn -0.6892 -0.6891 -0.2239
vt 0.262446 0.688052
vt 0.172338 0.762098
vt 0.169899 0.688296
vt 0.845866 0.010467
vt 0.751620 0.091451
vt 0.753419 0.011083
vt 0.844067 0.090835
vt 0.753419 0.177248
vt 0.773032 0.503429
vt 0.678211 0.569074
vt 0.680470 0.503855
vt 0.770773 0.568648
vt 0.678211 0.656388
vt 0.770773 0.655962
vt 0.680470 0.732447
vt 0.887133 0.503429
vt 0.793965 0.583968
vt 0.794501 0.503613
vt 0.886598 0.583784
vt 0.794501 0.669774
vt 0.062064 0.267408
vt 0.145549 0.010467
vt 0.280631 0.108662
vt 0.264885 0.532348
vt 0.169899 0.600633
vt 0.172338 0.532593
vt 0.262446 0.600388
vt 0.436671 0.010467
vt 0.520172 0.267370
vt 0.353171 0.267403
vt 0.373239 0.315444
vt 0.413286 0.359242
vt 0.384163 0.359242
vt 0.393595 0.654317
vt 0.346126 0.711133
vt 0.344582 0.654326
vt 0.122193 0.358888
vt 0.082154 0.315505
vt 0.134632 0.315497
vt 0.398462 0.413675
vt 0.302803 0.693494
vt 0.301564 0.647938
vt 0.438896 0.647915
vt 0.395140 0.711125
vt 0.107360 0.413179
vt 0.093070 0.358893
vt 0.657278 0.521830
vt 0.609834 0.558480
vt 0.611996 0.503429
vt 0.067848 0.373463
vt 0.425718 0.315444
vt 0.438510 0.373808
vt 0.560873 0.558636
vt 0.563035 0.503585
vt 0.036706 0.341760
vt 0.520093 0.522267
vt 0.518359 0.566415
vt 0.497417 0.387152
vt 0.453076 0.399037
vt 0.560873 0.624020
vt 0.010467 0.387225
vt 0.518359 0.618848
vt 0.655544 0.565977
vt 0.609834 0.623864
vt 0.053286 0.398695
vt 0.453081 0.428168
vt 0.563035 0.682217
vt 0.053286 0.427826
vt 0.010467 0.439718
vt 0.520093 0.665519
vt 0.655544 0.618411
vt 0.611996 0.682061
vt 0.036706 0.485175
vt 0.438523 0.453397
vt 0.055005 0.532461
vt 0.010467 0.595195
vt 0.011611 0.551186
vt 0.148965 0.550869
vt 0.102600 0.587226
vt 0.104027 0.532348
vt 0.067848 0.453053
vt 0.497425 0.439645
vt 0.053579 0.587339
vt 0.413304 0.467963
vt 0.010467 0.647616
vt 0.147821 0.594878
vt 0.102600 0.652594
vt 0.093070 0.467614
vt 0.471194 0.485106
vt 0.053579 0.652707
vt 0.082154 0.511414
vt 0.011611 0.694403
vt 0.147821 0.647299
vt 0.104027 0.710936
vt 0.122193 0.467610
vt 0.373272 0.511353
vt 0.384181 0.467963
vt 0.055005 0.711050
vt 0.134632 0.511405
vt 0.147415 0.453040
vt 0.327820 0.485106
vt 0.358957 0.453397
vt 0.686138 0.010467
vt 0.636437 0.065558
vt 0.637080 0.010513
vt 0.180080 0.485151
vt 0.592712 0.073242
vt 0.593228 0.029100
vt 0.730170 0.073112
vt 0.685495 0.065511
vt 0.301573 0.439645
vt 0.344391 0.428168
vt 0.636437 0.130941
vt 0.206319 0.439686
vt 0.592712 0.125676
vt 0.730170 0.125545
vt 0.685495 0.130895
vt 0.161976 0.427808
vt 0.637080 0.189145
vt 0.206319 0.387192
vt 0.344386 0.399037
vt 0.593228 0.172351
vt 0.730686 0.172221
vt 0.686138 0.189098
vt 0.161976 0.398677
vt 0.301564 0.387152
vt 0.358943 0.373808
vt 0.346126 0.532295
vt 0.301564 0.595444
vt 0.302803 0.550077
vt 0.395140 0.532286
vt 0.438896 0.595420
vt 0.393595 0.588858
vt 0.147415 0.373450
vt 0.327796 0.341691
vt 0.344582 0.588866
vt 0.180080 0.341736
vt 0.779463 0.822616
vt 0.679268 0.875672
vt 0.678211 0.836826
vt 0.404251 0.772905
vt 0.301564 0.769711
vt 0.303043 0.732067
vt 0.403723 0.786349
vt 0.301564 0.814422
vt 0.403723 0.802317
vt 0.303043 0.854218
vt 0.902195 0.794486
vt 0.800773 0.790906
vt 0.801749 0.753380
vt 0.901847 0.807888
vt 0.800773 0.835606
vt 0.901847 0.823852
vt 0.801749 0.875501
vt 0.269919 0.824098
vt 0.169899 0.820672
vt 0.170339 0.783032
vt 0.269762 0.837541
vt 0.169899 0.865382
vt 0.269762 0.853509
vt 0.170339 0.905182
vt 0.652356 0.231912
vt 0.614543 0.269742
vt 0.600703 0.218076
vt 0.779840 0.792813
vt 0.678211 0.792064
vt 0.679267 0.753380
vt 0.779463 0.806629
vt 0.518367 0.376589
vt 0.663002 0.337825
vt 0.624225 0.482495
vt 0.915805 0.276024
vt 0.928216 0.361955
vt 0.915805 0.362401
vt 0.751620 0.198585
vt 0.766971 0.285054
vt 0.751620 0.284870
vt 0.766971 0.198768
vt 0.779791 0.284467
vt 0.800725 0.198442
vt 0.816063 0.284958
vt 0.800725 0.284834
vt 0.816063 0.198566
vt 0.828925 0.284574
vt 0.866799 0.010587
vt 0.882150 0.097099
vt 0.866799 0.097044
vt 0.673290 0.236706
vt 0.684318 0.210078
vt 0.710942 0.221115
vt 0.882150 0.010641
vt 0.894971 0.096924
vt 0.900345 0.275925
vt 0.900345 0.362303
vt 0.804994 0.690712
vt 0.831618 0.701736
vt 0.820590 0.728369
vt 0.476071 0.722769
vt 0.489704 0.892686
vt 0.476071 0.890910
vt 0.461068 0.533682
vt 0.475481 0.700439
vt 0.461068 0.701835
vt 0.475481 0.532286
vt 0.489894 0.701835
vt 0.227253 0.315569
vt 0.241736 0.485839
vt 0.227253 0.484614
vt 0.241736 0.316794
vt 0.256077 0.484542
vt 0.850586 0.275578
vt 0.864999 0.445127
vt 0.850586 0.443731
vt 0.878204 0.691099
vt 0.888830 0.717892
vt 0.863177 0.728206
vt 0.864999 0.276974
vt 0.879412 0.443731
vt 0.461068 0.723770
vt 0.461068 0.891911
vt 0.632354 0.891749
vt 0.607248 0.879950
vt 0.617647 0.853767
vt 0.258752 0.926116
vt 0.271857 0.963292
vt 0.258752 0.965997
vt 0.976459 0.535713
vt 0.963876 0.506071
vt 0.976459 0.503429
vt 0.963876 0.530759
vt 0.951757 0.503478
vt 0.767790 0.328052
vt 0.806094 0.327840
vt 0.798647 0.338087
vt 0.586301 0.970405
vt 0.574741 0.933886
vt 0.586301 0.930330
vt 0.574741 0.966327
vt 0.562806 0.937956
vt 0.744382 0.347804
vt 0.767978 0.340145
vt 0.736934 0.338067
vt 0.767978 0.315444
vt 0.909763 0.689845
vt 0.923161 0.721873
vt 0.910349 0.728598
vt 0.091549 0.882600
vt 0.079105 0.913101
vt 0.078770 0.888828
vt 0.729798 0.367869
vt 0.717864 0.364307
vt 0.729861 0.327816
vt 0.910349 0.652475
vt 0.922687 0.690502
vt 0.091549 0.943978
vt 0.091987 0.914342
vt 0.717864 0.396748
vt 0.706303 0.360229
vt 0.958050 0.383335
vt 0.946002 0.419503
vt 0.946002 0.387056
vt 0.934559 0.390974
vt 0.744382 0.412752
vt 0.729798 0.392677
vt 0.736934 0.422999
vt 0.706303 0.400303
vt 0.858528 0.896435
vt 0.871111 0.933673
vt 0.858528 0.936315
vt 0.813879 0.989533
vt 0.800773 0.959953
vt 0.813879 0.957249
vt 0.767978 0.420425
vt 0.846409 0.901438
vt 0.846409 0.933722
vt 0.214323 0.926116
vt 0.226258 0.962120
vt 0.214323 0.966190
vt 0.226258 0.929678
vt 0.237818 0.958564
vt 0.798647 0.423018
vt 0.767790 0.433033
vt 0.806094 0.432755
vt 0.767978 0.445127
vt 0.923129 0.886743
vt 0.936450 0.919725
vt 0.923671 0.925953
vt 0.382815 0.875151
vt 0.370366 0.905866
vt 0.370003 0.881876
vt 0.806157 0.392701
vt 0.791574 0.412767
vt 0.817717 0.396779
vt 0.923671 0.850134
vt 0.936011 0.887983
vt 0.383289 0.906523
vt 0.370003 0.929000
vt 0.806157 0.367893
vt 0.829652 0.360268
vt 0.829652 0.400342
vt 0.678211 0.896606
vt 0.689654 0.932770
vt 0.678211 0.936688
vt 0.701702 0.904236
vt 0.701702 0.929048
vt 0.791574 0.347819
vt 0.817717 0.364338
vt 0.957384 0.753380
vt 0.970489 0.790556
vt 0.957384 0.793261
vt 0.959261 0.476634
vt 0.946678 0.446993
vt 0.959261 0.444350
vt 0.934559 0.476683
vt 0.934559 0.444399
vt 0.579846 0.715759
vt 0.618150 0.715546
vt 0.610703 0.725794
vt 0.968585 0.219114
vt 0.957024 0.182596
vt 0.968585 0.179040
vt 0.945090 0.211474
vt 0.945090 0.186666
vt 0.556437 0.735511
vt 0.580033 0.727852
vt 0.541917 0.715522
vt 0.580033 0.703151
vt 0.425185 0.889236
vt 0.438582 0.921264
vt 0.425770 0.927989
vt 0.023246 0.882600
vt 0.010802 0.913101
vt 0.010467 0.888828
vt 0.541854 0.755576
vt 0.548990 0.725774
vt 0.529919 0.752014
vt 0.425770 0.851866
vt 0.438108 0.889893
vt 0.023685 0.914342
vt 0.010467 0.935764
vt 0.541854 0.780384
vt 0.529919 0.784455
vt 0.518359 0.747936
vt 0.484559 0.953701
vt 0.472511 0.917341
vt 0.484559 0.913620
vt 0.472511 0.949788
vt 0.461068 0.921259
vt 0.556437 0.800459
vt 0.541917 0.820438
vt 0.518359 0.788010
vt 0.125040 0.882600
vt 0.137623 0.919838
vt 0.125040 0.922480
vt 0.923864 0.247374
vt 0.910759 0.217794
vt 0.923864 0.215089
vt 0.580033 0.808132
vt 0.548990 0.810706
vt 0.112921 0.887603
vt 0.112921 0.919887
vt 0.945090 0.118032
vt 0.957024 0.154036
vt 0.945090 0.158106
vt 0.957024 0.121595
vt 0.968585 0.150481
vt 0.610703 0.810725
vt 0.579846 0.820740
vt 0.580033 0.832834
vt 0.915905 0.047076
vt 0.929226 0.080058
vt 0.916447 0.086287
vt 0.314376 0.875151
vt 0.301927 0.905866
vt 0.301564 0.881876
vt 0.618213 0.780408
vt 0.603629 0.800474
vt 0.629773 0.784486
vt 0.618150 0.820462
vt 0.916447 0.010467
vt 0.928787 0.048316
vt 0.314850 0.906523
vt 0.301564 0.929000
vt 0.618213 0.755600
vt 0.641707 0.747975
vt 0.641707 0.788049
vt 0.722636 0.896606
vt 0.734078 0.932770
vt 0.722636 0.936688
vt 0.734078 0.900323
vt 0.746126 0.929048
vt 0.603629 0.735526
vt 0.629773 0.752045
vt 0.957384 0.850134
vt 0.970489 0.887310
vt 0.957384 0.890015
vt 0.137623 0.943414
vt 0.125040 0.970744
vt 0.125040 0.946056
vt 0.112921 0.943463
vt 0.071954 0.744592
vt 0.110258 0.744379
vt 0.102810 0.754626
vt 0.541854 0.970675
vt 0.530294 0.934156
vt 0.541854 0.930601
vt 0.518359 0.963034
vt 0.518359 0.938226
vt 0.048545 0.764343
vt 0.072141 0.756685
vt 0.041097 0.754607
vt 0.072141 0.731983
vt 0.910759 0.155402
vt 0.924156 0.187431
vt 0.911344 0.194155
vt 0.057397 0.882600
vt 0.044954 0.913101
vt 0.044618 0.888828
vt 0.033962 0.784409
vt 0.022027 0.780846
vt 0.034024 0.744355
vt 0.911344 0.118032
vt 0.923682 0.156059
vt 0.057836 0.914342
vt 0.044618 0.935764
vt 0.033962 0.809217
vt 0.022027 0.813287
vt 0.010467 0.776768
vt 0.193389 0.966197
vt 0.181341 0.929837
vt 0.193389 0.926116
vt 0.181341 0.962284
vt 0.169899 0.933755
vt 0.048545 0.829291
vt 0.041097 0.839538
vt 0.010467 0.816842
vt 0.812893 0.896435
vt 0.825475 0.933673
vt 0.812893 0.936315
vt 0.980703 0.979172
vt 0.967597 0.949592
vt 0.980703 0.946887
vt 0.071954 0.849573
vt 0.800773 0.901438
vt 0.800773 0.933722
vt 0.944094 0.652475
vt 0.956029 0.688479
vt 0.944094 0.692549
vt 0.956029 0.656038
vt 0.967589 0.684923
vt 0.072141 0.836965
vt 0.102810 0.839558
vt 0.072141 0.861666
vt 0.923129 0.789989
vt 0.936450 0.822972
vt 0.923671 0.829200
vt 0.348596 0.875151
vt 0.336146 0.905866
vt 0.335784 0.881876
vt 0.110320 0.809241
vt 0.095737 0.829306
vt 0.121881 0.813319
vt 0.110258 0.849295
vt 0.923671 0.753380
vt 0.936011 0.791230
vt 0.349070 0.906523
vt 0.335784 0.929000
vt 0.110320 0.784433
vt 0.133815 0.776807
vt 0.133815 0.816881
vt 0.607248 0.952765
vt 0.618691 0.916399
vt 0.618691 0.948847
vt 0.630739 0.945125
vt 0.095737 0.764358
vt 0.121881 0.780878
vt 0.921180 0.503881
vt 0.930823 0.602146
vt 0.921180 0.602598
vt 0.900345 0.383525
vt 0.913625 0.481947
vt 0.900345 0.482137
vt 0.866800 0.118245
vt 0.879720 0.217162
vt 0.866800 0.216978
vt 0.879720 0.118428
vt 0.889825 0.216766
vt 0.946663 0.967269
vt 0.923129 0.967262
vt 0.934896 0.946887
vt 0.425185 0.732124
vt 0.438465 0.830875
vt 0.425185 0.830932
vt 0.908067 0.503712
vt 0.908067 0.602430
vt 0.951757 0.563491
vt 0.975291 0.563485
vt 0.963524 0.583866
vt 0.574892 0.853767
vt 0.586314 0.909397
vt 0.574892 0.907520
vt 0.949150 0.275578
vt 0.962738 0.331150
vt 0.949150 0.331150
vt 0.541872 0.855281
vt 0.530418 0.908153
vt 0.530418 0.853767
vt 0.518359 0.855064
vt 0.415320 0.955918
vt 0.438582 0.955334
vt 0.426951 0.975737
vt 0.950159 0.010467
vt 0.963748 0.066039
vt 0.950159 0.066039
vt 0.562806 0.855352
vt 0.562806 0.909104
vt 0.975289 0.611490
vt 0.963523 0.631361
vt 0.951757 0.611390
vt 0.264885 0.761854
vt 0.845866 0.176632
vt 0.773032 0.732020
vt 0.887133 0.669591
vt 0.280631 0.196453
vt 0.229034 0.267461
vt 0.145549 0.294563
vt 0.010467 0.196368
vt 0.010467 0.108577
vt 0.062064 0.037569
vt 0.229034 0.037622
vt 0.301564 0.196402
vt 0.301564 0.108628
vt 0.353171 0.037607
vt 0.520172 0.037574
vt 0.571778 0.108575
vt 0.571778 0.196349
vt 0.436671 0.294510
vt 0.440135 0.693471
vt 0.471170 0.341691
vt 0.657278 0.665082
vt 0.425750 0.511353
vt 0.148965 0.694086
vt 0.730686 0.028970
vt 0.440135 0.550053
vt 0.779840 0.836489
vt 0.404251 0.816530
vt 0.902195 0.838100
vt 0.269919 0.867723
vt 0.614543 0.210081
vt 0.630525 0.210078
vt 0.644365 0.218069
vt 0.652356 0.247898
vt 0.644365 0.261744
vt 0.630525 0.269740
vt 0.600703 0.261751
vt 0.592712 0.247908
vt 0.592712 0.231922
vt 0.579476 0.482495
vt 0.540727 0.460115
vt 0.518359 0.421350
vt 0.540747 0.337825
vt 0.579504 0.315444
vt 0.624252 0.315444
vt 0.685370 0.376589
vt 0.685362 0.421350
vt 0.662982 0.460115
vt 0.928216 0.275578
vt 0.779791 0.198182
vt 0.828925 0.198182
vt 0.710942 0.236715
vt 0.699914 0.247743
vt 0.684318 0.247740
vt 0.673290 0.221107
vt 0.699914 0.210082
vt 0.894971 0.010467
vt 0.804994 0.728373
vt 0.793965 0.717345
vt 0.793965 0.701745
vt 0.820590 0.690708
vt 0.831618 0.717336
vt 0.489704 0.724545
vt 0.489894 0.533682
vt 0.256077 0.315497
vt 0.852552 0.716946
vt 0.852552 0.701414
vt 0.863177 0.690708
vt 0.888830 0.702359
vt 0.878204 0.728598
vt 0.879412 0.275578
vt 0.632354 0.854245
vt 0.642753 0.865567
vt 0.642753 0.881102
vt 0.617647 0.891272
vt 0.607248 0.864415
vt 0.271857 0.931007
vt 0.951757 0.535762
vt 0.562806 0.962764
vt 0.923161 0.660250
vt 0.078770 0.935764
vt 0.958050 0.423417
vt 0.934559 0.415787
vt 0.729861 0.432731
vt 0.871111 0.901389
vt 0.800774 0.984642
vt 0.237818 0.933756
vt 0.936450 0.858347
vt 0.382815 0.936775
vt 0.689654 0.900323
vt 0.970489 0.758272
vt 0.946678 0.471680
vt 0.957024 0.215037
vt 0.438582 0.859641
vt 0.023246 0.943978
vt 0.461068 0.946071
vt 0.137623 0.887554
vt 0.910759 0.242482
vt 0.968585 0.125673
vt 0.929226 0.018680
vt 0.314376 0.936775
vt 0.746126 0.904236
vt 0.970489 0.855025
vt 0.137623 0.975698
vt 0.112921 0.975747
vt 0.530294 0.966597
vt 0.924156 0.125807
vt 0.057397 0.943978
vt 0.169899 0.958567
vt 0.034024 0.849271
vt 0.825475 0.901389
vt 0.967597 0.974280
vt 0.967589 0.660115
vt 0.936450 0.761594
vt 0.348596 0.936775
vt 0.607248 0.912683
vt 0.630739 0.920313
vt 0.930823 0.503429
vt 0.913625 0.383335
vt 0.889825 0.118032
vt 0.946663 0.953683
vt 0.934896 0.974058
vt 0.923129 0.953677
vt 0.438465 0.732067
vt 0.951757 0.577077
vt 0.963524 0.556695
vt 0.975291 0.577070
vt 0.586314 0.855645
vt 0.962738 0.275578
vt 0.541872 0.909667
vt 0.518359 0.909450
vt 0.415320 0.969325
vt 0.426951 0.948922
vt 0.438582 0.968742
vt 0.963748 0.010467
vt 0.963523 0.604800
vt 0.975289 0.624770
vt 0.951757 0.624670
s 0
f 2/1/1 3/2/1 1/3/1
f 4/4/2 5/5/2 3/6/2
f 6/7/3 7/8/3 5/5/3
f 8/9/4 9/10/4 7/11/4
f 10/12/5 11/13/5 9/10/5
f 12/14/6 13/15/6 11/13/6
f 14/16/7 15/17/7 13/18/7
f 16/19/8 17/20/8 15/17/8
f 18/21/9 10/22/9 6/23/9
f 18/24/10 19/25/10 17/26/10
f 20/27/11 1/3/11 19/25/11
f 7/28/12 15/29/12 19/30/12
f 25/31/13 33/32/13 26/33/13
f 23/34/14 31/35/14 24/36/14
f 94/37/15 29/38/15 22/39/15
f 27/40/16 26/33/16 33/32/16
f 24/36/17 32/41/17 25/42/17
f 22/43/18 30/44/18 23/34/18
f 94/37/19 21/45/19 28/46/19
f 29/47/20 36/48/20 30/49/20
f 28/46/21 21/45/21 34/50/21
f 32/51/22 39/52/22 33/32/22
f 30/49/23 37/53/23 31/54/23
f 28/46/24 35/55/24 29/38/24
f 27/40/25 33/32/25 39/52/25
f 32/56/26 37/53/26 38/57/26
f 39/52/27 44/58/27 45/59/27
f 36/48/28 43/60/28 37/53/28
f 34/50/29 41/61/29 35/55/29
f 27/40/30 39/52/30 45/59/30
f 37/53/31 44/62/31 38/57/31
f 35/63/32 42/64/32 36/48/32
f 34/50/33 21/45/33 40/65/33
f 44/58/34 51/66/34 45/59/34
f 42/64/35 49/67/35 43/60/35
f 41/61/36 46/68/36 47/69/36
f 27/40/37 45/59/37 51/66/37
f 44/62/38 49/67/38 50/70/38
f 41/71/39 48/72/39 42/64/39
f 40/65/40 21/45/40 46/68/40
f 46/68/41 53/73/41 47/69/41
f 27/40/42 51/66/42 57/74/42
f 49/75/43 56/76/43 50/77/43
f 47/78/44 54/79/44 48/80/44
f 46/68/45 21/45/45 52/81/45
f 50/82/46 57/74/46 51/66/46
f 48/80/47 55/83/47 49/75/47
f 27/40/48 57/74/48 63/84/48
f 55/83/49 62/85/49 56/76/49
f 53/86/50 60/87/50 54/79/50
f 52/81/51 21/45/51 58/88/51
f 56/89/52 63/84/52 57/74/52
f 54/79/53 61/90/53 55/83/53
f 52/81/54 59/91/54 53/73/54
f 61/90/55 68/92/55 62/85/55
f 59/93/56 66/94/56 60/87/56
f 58/88/57 21/45/57 64/95/57
f 63/84/58 68/96/58 69/97/58
f 60/87/59 67/98/59 61/90/59
f 58/88/60 65/99/60 59/91/60
f 27/40/61 63/84/61 69/97/61
f 64/95/62 21/45/62 70/100/62
f 69/97/63 74/101/63 75/102/63
f 66/103/64 73/104/64 67/105/64
f 64/95/65 71/106/65 65/99/65
f 27/40/66 69/97/66 75/102/66
f 67/105/67 74/107/67 68/108/67
f 66/103/68 71/109/68 72/110/68
f 75/102/69 80/111/69 81/112/69
f 72/110/70 79/113/70 73/104/70
f 70/100/71 77/114/71 71/106/71
f 27/40/72 75/102/72 81/112/72
f 73/104/73 80/115/73 74/107/73
f 72/110/74 77/116/74 78/117/74
f 70/100/75 21/45/75 76/118/75
f 78/117/76 85/119/76 79/113/76
f 76/118/77 83/120/77 77/114/77
f 27/40/78 81/112/78 87/121/78
f 79/113/79 86/122/79 80/115/79
f 78/117/80 83/123/80 84/124/80
f 76/118/81 21/45/81 82/125/81
f 81/112/82 86/126/82 87/121/82
f 27/40/83 87/121/83 93/127/83
f 85/128/84 92/129/84 86/130/84
f 84/131/85 89/132/85 90/133/85
f 82/125/86 21/45/86 88/134/86
f 87/121/87 92/135/87 93/127/87
f 84/131/88 91/136/88 85/128/88
f 82/125/89 89/137/89 83/120/89
f 27/40/90 93/127/90 26/33/90
f 91/136/91 25/42/91 92/129/91
f 90/133/92 22/43/92 23/34/92
f 88/134/93 21/45/93 94/37/93
f 92/135/94 26/33/94 93/127/94
f 90/133/95 24/36/95 91/136/95
f 88/134/96 22/39/96 89/137/96
f 96/138/97 97/139/97 95/140/97
f 98/141/98 99/142/98 97/143/98
f 100/144/99 101/145/99 99/142/99
f 102/146/100 103/147/100 101/145/100
f 104/148/101 105/149/101 103/150/101
f 106/151/102 107/152/102 105/149/102
f 108/153/103 109/154/103 107/152/103
f 110/155/104 111/156/104 109/157/104
f 112/158/105 113/159/105 111/156/105
f 114/160/106 115/161/106 113/159/106
f 116/162/9 108/163/9 100/164/9
f 116/165/107 117/166/107 115/167/107
f 118/168/108 95/140/108 117/166/108
f 101/169/12 109/170/12 117/171/12
f 120/172/109 121/173/109 119/174/109
f 122/175/110 123/176/110 121/177/110
f 124/178/111 125/179/111 123/176/111
f 126/180/112 127/181/112 125/182/112
f 128/183/113 129/184/113 127/181/113
f 130/185/114 131/186/114 129/187/114
f 132/188/9 128/189/9 124/190/9
f 132/191/115 133/192/115 131/186/115
f 134/193/116 119/174/116 133/194/116
f 125/195/12 129/196/12 133/197/12
f 136/198/117 137/199/117 135/200/117
f 138/201/118 139/202/118 137/203/118
f 140/204/119 141/205/119 139/202/119
f 142/206/120 143/207/120 141/208/120
f 144/209/121 145/210/121 143/207/121
f 146/211/122 147/212/122 145/213/122
f 148/214/123 144/215/123 140/216/123
f 148/217/124 149/218/124 147/212/124
f 150/219/125 135/200/125 149/220/125
f 141/221/126 145/222/126 149/223/126
f 155/224/127 152/225/127 151/226/127
f 156/227/128 153/228/128 152/229/128
f 157/230/129 154/231/129 153/228/129
f 158/232/130 151/233/130 154/234/130
f 159/235/131 156/236/131 155/237/131
f 160/238/132 157/239/132 156/236/132
f 161/240/133 158/232/133 157/241/133
f 162/242/134 155/243/134 158/232/134
f 163/244/135 160/245/135 159/246/135
f 160/247/136 165/248/136 161/249/136
f 165/250/137 162/242/137 161/240/137
f 166/251/138 159/252/138 162/242/138
f 167/253/139 164/254/139 163/244/139
f 168/255/140 165/248/140 164/256/140
f 165/250/141 170/257/141 166/251/141
f 170/257/142 163/258/142 166/251/142
f 167/259/143 172/260/143 168/261/143
f 172/260/144 169/262/144 168/261/144
f 173/263/145 170/257/145 169/264/145
f 174/265/146 167/266/146 170/257/146
f 175/267/128 172/268/128 171/269/128
f 176/270/127 173/271/127 172/272/127
f 177/273/130 174/265/130 173/263/130
f 178/274/129 171/269/129 174/275/129
f 179/276/132 176/277/132 175/278/132
f 180/279/131 177/280/131 176/277/131
f 177/273/134 182/281/134 178/282/134
f 178/282/133 179/283/133 175/284/133
f 183/285/136 180/286/136 179/287/136
f 180/288/135 185/289/135 181/290/135
f 185/291/138 182/281/138 181/292/138
f 186/293/137 179/283/137 182/281/137
f 187/294/140 184/295/140 183/285/140
f 184/296/139 189/297/139 185/289/139
f 189/298/142 186/293/142 185/291/142
f 186/293/141 187/299/141 183/300/141
f 151/301/144 188/302/144 187/303/144
f 188/302/143 153/304/143 189/305/143
f 153/306/146 190/307/146 189/298/146
f 154/234/145 187/299/145 190/307/145
f 195/308/127 192/309/127 191/310/127
f 196/311/128 193/312/128 192/313/128
f 193/312/129 198/314/129 194/315/129
f 198/316/130 191/317/130 194/318/130
f 199/319/131 196/320/131 195/321/131
f 196/320/132 201/322/132 197/323/132
f 201/324/133 198/316/133 197/325/133
f 198/316/134 199/326/134 195/327/134
f 203/328/135 200/329/135 199/330/135
f 200/331/136 205/332/136 201/333/136
f 205/334/137 202/335/137 201/324/137
f 206/336/138 199/326/138 202/335/138
f 207/337/139 204/338/139 203/328/139
f 204/339/140 209/340/140 205/332/140
f 209/341/141 206/336/141 205/334/141
f 210/342/142 203/343/142 206/336/142
f 211/344/143 208/345/143 207/346/143
f 212/347/144 209/348/144 208/345/144
f 213/349/145 210/342/145 209/341/145
f 210/342/146 211/350/146 207/351/146
f 215/352/128 212/353/128 211/354/128
f 216/355/127 213/356/127 212/357/127
f 217/358/130 214/359/130 213/349/130
f 218/360/129 211/354/129 214/361/129
f 219/362/132 216/363/132 215/364/132
f 220/365/131 217/366/131 216/363/131
f 217/358/134 222/367/134 218/368/134
f 222/367/133 215/369/133 218/368/133
f 223/370/136 220/371/136 219/372/136
f 220/373/135 225/374/135 221/375/135
f 225/376/138 222/367/138 221/377/138
f 226/378/137 219/379/137 222/367/137
f 227/380/140 224/381/140 223/370/140
f 224/382/139 229/383/139 225/374/139
f 229/384/142 226/378/142 225/376/142
f 226/378/141 227/385/141 223/386/141
f 191/387/144 228/388/144 227/389/144
f 192/390/143 229/391/143 228/388/143
f 193/392/146 230/393/146 229/384/146
f 194/318/145 227/385/145 230/393/145
f 235/394/127 232/395/127 231/396/127
f 232/397/128 237/398/128 233/399/128
f 237/398/129 234/400/129 233/399/129
f 238/401/130 231/402/130 234/403/130
f 239/404/131 236/405/131 235/406/131
f 236/405/132 241/407/132 237/408/132
f 241/409/133 238/401/133 237/410/133
f 242/411/134 235/412/134 238/401/134
f 243/413/135 240/414/135 239/415/135
f 240/416/136 245/417/136 241/418/136
f 245/419/137 242/411/137 241/409/137
f 246/420/138 239/421/138 242/411/138
f 247/422/139 244/423/139 243/413/139
f 244/424/140 249/425/140 245/417/140
f 249/426/141 246/420/141 245/419/141
f 250/427/142 243/428/142 246/420/142
f 251/429/143 248/430/143 247/431/143
f 252/432/144 249/433/144 248/430/144
f 253/434/145 250/427/145 249/426/145
f 254/435/146 247/436/146 250/427/146
f 255/437/128 252/438/128 251/439/128
f 256/440/127 253/441/127 252/442/127
f 253/434/130 258/443/130 254/435/130
f 258/444/129 251/439/129 254/445/129
f 259/446/132 256/447/132 255/448/132
f 260/449/131 257/450/131 256/447/131
f 257/451/134 262/452/134 258/443/134
f 262/452/133 255/453/133 258/443/133
f 263/454/136 260/455/136 259/456/136
f 260/457/135 265/458/135 261/459/135
f 265/460/138 262/452/138 261/461/138
f 266/462/137 259/463/137 262/452/137
f 267/464/140 264/465/140 263/454/140
f 264/466/139 269/467/139 265/458/139
f 269/468/142 266/462/142 265/460/142
f 266/462/141 267/469/141 263/470/141
f 267/471/144 232/472/144 268/473/144
f 232/472/143 269/474/143 268/473/143
f 233/475/146 270/476/146 269/468/146
f 234/403/145 267/469/145 270/476/145
f 272/477/147 273/478/147 271/479/147
f 274/480/3 275/481/3 273/482/3
f 276/483/148 277/484/148 275/485/148
f 278/486/149 279/487/149 277/484/149
f 272/488/9 280/489/9 276/490/9
f 280/491/8 281/492/8 279/493/8
f 282/494/150 271/479/150 281/495/150
f 273/496/12 277/497/12 281/498/12
f 284/499/151 285/500/151 283/501/151
f 286/502/12 287/503/12 285/504/12
f 287/505/152 290/506/152 289/507/152
f 290/506/153 291/508/153 289/507/153
f 284/509/3 292/510/3 288/511/3
f 292/512/9 293/513/9 291/514/9
f 294/515/154 283/501/154 293/516/154
f 285/517/8 289/518/8 293/519/8
f 2/1/1 4/520/1 3/2/1
f 4/4/2 6/7/2 5/5/2
f 6/7/3 8/521/3 7/8/3
f 8/9/4 10/12/4 9/10/4
f 10/12/5 12/14/5 11/13/5
f 12/14/6 14/522/6 13/15/6
f 14/16/7 16/19/7 15/17/7
f 16/19/8 18/523/8 17/20/8
f 6/23/9 4/524/9 2/525/9
f 2/525/9 20/526/9 18/21/9
f 18/21/9 16/527/9 14/528/9
f 14/528/9 12/529/9 10/22/9
f 10/22/9 8/530/9 6/23/9
f 6/23/9 2/525/9 18/21/9
f 18/21/9 14/528/9 10/22/9
f 18/24/10 20/27/10 19/25/10
f 20/27/11 2/1/11 1/3/11
f 19/30/12 1/531/12 3/532/12
f 3/532/12 5/533/12 7/28/12
f 7/28/12 9/534/12 11/535/12
f 11/535/12 13/536/12 15/29/12
f 15/29/12 17/537/12 19/30/12
f 19/30/12 3/532/12 7/28/12
f 7/28/12 11/535/12 15/29/12
f 25/31/13 32/51/13 33/32/13
f 23/34/14 30/44/14 31/35/14
f 94/37/15 28/46/15 29/38/15
f 24/36/17 31/35/17 32/41/17
f 22/43/18 29/538/18 30/44/18
f 29/47/20 35/63/20 36/48/20
f 32/51/22 38/539/22 39/52/22
f 30/49/23 36/48/23 37/53/23
f 28/46/24 34/50/24 35/55/24
f 32/56/26 31/54/26 37/53/26
f 39/52/27 38/539/27 44/58/27
f 36/48/28 42/64/28 43/60/28
f 34/50/29 40/65/29 41/61/29
f 37/53/31 43/60/31 44/62/31
f 35/63/32 41/71/32 42/64/32
f 44/58/34 50/82/34 51/66/34
f 42/64/35 48/72/35 49/67/35
f 41/61/36 40/65/36 46/68/36
f 44/62/38 43/60/38 49/67/38
f 41/71/39 47/540/39 48/72/39
f 46/68/41 52/81/41 53/73/41
f 49/75/43 55/83/43 56/76/43
f 47/78/44 53/86/44 54/79/44
f 50/82/46 56/89/46 57/74/46
f 48/80/47 54/79/47 55/83/47
f 55/83/49 61/90/49 62/85/49
f 53/86/50 59/93/50 60/87/50
f 56/89/52 62/541/52 63/84/52
f 54/79/53 60/87/53 61/90/53
f 52/81/54 58/88/54 59/91/54
f 61/90/55 67/98/55 68/92/55
f 59/93/56 65/542/56 66/94/56
f 63/84/58 62/541/58 68/96/58
f 60/87/59 66/94/59 67/98/59
f 58/88/60 64/95/60 65/99/60
f 69/97/63 68/96/63 74/101/63
f 66/103/64 72/110/64 73/104/64
f 64/95/65 70/100/65 71/106/65
f 67/105/67 73/104/67 74/107/67
f 66/103/68 65/543/68 71/109/68
f 75/102/69 74/101/69 80/111/69
f 72/110/70 78/117/70 79/113/70
f 70/100/71 76/118/71 77/114/71
f 73/104/73 79/113/73 80/115/73
f 72/110/74 71/109/74 77/116/74
f 78/117/76 84/124/76 85/119/76
f 76/118/77 82/125/77 83/120/77
f 79/113/79 85/119/79 86/122/79
f 78/117/80 77/116/80 83/123/80
f 81/112/82 80/111/82 86/126/82
f 85/128/84 91/136/84 92/129/84
f 84/131/85 83/544/85 89/132/85
f 87/121/87 86/126/87 92/135/87
f 84/131/88 90/133/88 91/136/88
f 82/125/89 88/134/89 89/137/89
f 91/136/91 24/36/91 25/42/91
f 90/133/92 89/132/92 22/43/92
f 92/135/94 25/31/94 26/33/94
f 90/133/95 23/34/95 24/36/95
f 88/134/96 94/37/96 22/39/96
f 96/138/97 98/545/97 97/139/97
f 98/141/98 100/144/98 99/142/98
f 100/144/99 102/146/99 101/145/99
f 102/146/100 104/546/100 103/147/100
f 104/148/101 106/151/101 105/149/101
f 106/151/102 108/153/102 107/152/102
f 108/153/103 110/547/103 109/154/103
f 110/155/104 112/158/104 111/156/104
f 112/158/105 114/160/105 113/159/105
f 114/160/106 116/548/106 115/161/106
f 100/164/9 98/549/9 96/550/9
f 96/550/9 118/551/9 116/162/9
f 116/162/9 114/552/9 112/553/9
f 112/553/9 110/554/9 108/163/9
f 108/163/9 106/555/9 104/556/9
f 104/556/9 102/557/9 100/164/9
f 100/164/9 96/550/9 116/162/9
f 116/162/9 112/553/9 108/163/9
f 108/163/9 104/556/9 100/164/9
f 116/165/107 118/168/107 117/166/107
f 118/168/108 96/138/108 95/140/108
f 117/171/12 95/558/12 97/559/12
f 97/559/12 99/560/12 101/169/12
f 101/169/12 103/561/12 105/562/12
f 105/562/12 107/563/12 109/170/12
f 109/170/12 111/564/12 113/565/12
f 113/565/12 115/566/12 117/171/12
f 117/171/12 97/559/12 101/169/12
f 101/169/12 105/562/12 109/170/12
f 109/170/12 113/565/12 117/171/12
f 120/172/109 122/567/109 121/173/109
f 122/175/110 124/178/110 123/176/110
f 124/178/111 126/568/111 125/179/111
f 126/180/112 128/183/112 127/181/112
f 128/183/113 130/569/113 129/184/113
f 130/185/114 132/191/114 131/186/114
f 124/190/9 122/570/9 120/571/9
f 120/571/9 134/572/9 132/188/9
f 132/188/9 130/573/9 128/189/9
f 128/189/9 126/574/9 124/190/9
f 124/190/9 120/571/9 132/188/9
f 132/191/115 134/575/115 133/192/115
f 134/193/116 120/172/116 119/174/116
f 133/197/12 119/576/12 121/577/12
f 121/577/12 123/578/12 125/195/12
f 125/195/12 127/579/12 129/196/12
f 129/196/12 131/580/12 133/197/12
f 133/197/12 121/577/12 125/195/12
f 136/198/117 138/581/117 137/199/117
f 138/201/118 140/204/118 139/202/118
f 140/204/119 142/582/119 141/205/119
f 142/206/120 144/209/120 143/207/120
f 144/209/121 146/583/121 145/210/121
f 146/211/122 148/217/122 147/212/122
f 140/216/123 138/584/123 136/585/123
f 136/585/123 150/586/123 148/214/123
f 148/214/123 146/587/123 144/215/123
f 144/215/123 142/588/123 140/216/123
f 140/216/123 136/585/123 148/214/123
f 148/217/124 150/589/124 149/218/124
f 150/219/125 136/198/125 135/200/125
f 149/223/126 135/590/126 137/591/126
f 137/591/126 139/592/126 141/221/126
f 141/221/126 143/593/126 145/222/126
f 145/222/126 147/594/126 149/223/126
f 149/223/126 137/591/126 141/221/126
f 155/224/127 156/595/127 152/225/127
f 156/227/128 157/230/128 153/228/128
f 157/230/129 158/596/129 154/231/129
f 158/232/130 155/243/130 151/233/130
f 159/235/131 160/238/131 156/236/131
f 160/238/132 161/597/132 157/239/132
f 161/240/133 162/242/133 158/232/133
f 162/242/134 159/252/134 155/243/134
f 163/244/135 164/254/135 160/245/135
f 160/247/136 164/256/136 165/248/136
f 165/250/137 166/251/137 162/242/137
f 166/251/138 163/258/138 159/252/138
f 167/253/139 168/598/139 164/254/139
f 168/255/140 169/599/140 165/248/140
f 165/250/141 169/264/141 170/257/141
f 170/257/142 167/266/142 163/258/142
f 167/259/143 171/600/143 172/260/143
f 172/260/144 173/601/144 169/262/144
f 173/263/145 174/265/145 170/257/145
f 174/265/146 171/602/146 167/266/146
f 175/267/128 176/603/128 172/268/128
f 176/270/127 177/604/127 173/271/127
f 177/273/130 178/282/130 174/265/130
f 178/274/129 175/267/129 171/269/129
f 179/276/132 180/279/132 176/277/132
f 180/279/131 181/605/131 177/280/131
f 177/273/134 181/292/134 182/281/134
f 178/282/133 182/281/133 179/283/133
f 183/285/136 184/295/136 180/286/136
f 180/288/135 184/296/135 185/289/135
f 185/291/138 186/293/138 182/281/138
f 186/293/137 183/300/137 179/283/137
f 187/294/140 188/606/140 184/295/140
f 184/296/139 188/607/139 189/297/139
f 189/298/142 190/307/142 186/293/142
f 186/293/141 190/307/141 187/299/141
f 151/301/144 152/608/144 188/302/144
f 188/302/143 152/608/143 153/304/143
f 153/306/146 154/234/146 190/307/146
f 154/234/145 151/233/145 187/299/145
f 195/308/127 196/609/127 192/309/127
f 196/311/128 197/610/128 193/312/128
f 193/312/129 197/610/129 198/314/129
f 198/316/130 195/327/130 191/317/130
f 199/319/131 200/611/131 196/320/131
f 196/320/132 200/611/132 201/322/132
f 201/324/133 202/335/133 198/316/133
f 198/316/134 202/335/134 199/326/134
f 203/328/135 204/338/135 200/329/135
f 200/331/136 204/339/136 205/332/136
f 205/334/137 206/336/137 202/335/137
f 206/336/138 203/343/138 199/326/138
f 207/337/139 208/612/139 204/338/139
f 204/339/140 208/613/140 209/340/140
f 209/341/141 210/342/141 206/336/141
f 210/342/142 207/351/142 203/343/142
f 211/344/143 212/347/143 208/345/143
f 212/347/155 213/614/155 209/348/155
f 213/349/145 214/359/145 210/342/145
f 210/342/156 214/359/156 211/350/156
f 215/352/128 216/615/128 212/353/128
f 216/355/127 217/616/127 213/356/127
f 217/358/130 218/368/130 214/359/130
f 218/360/129 215/352/129 211/354/129
f 219/362/132 220/365/132 216/363/132
f 220/365/131 221/617/131 217/366/131
f 217/358/134 221/377/134 222/367/134
f 222/367/133 219/379/133 215/369/133
f 223/370/136 224/381/136 220/371/136
f 220/373/135 224/382/135 225/374/135
f 225/376/138 226/378/138 222/367/138
f 226/378/137 223/386/137 219/379/137
f 227/380/140 228/618/140 224/381/140
f 224/382/139 228/619/139 229/383/139
f 229/384/142 230/393/142 226/378/142
f 226/378/141 230/393/141 227/385/141
f 191/387/144 192/390/144 228/388/144
f 192/390/143 193/620/143 229/391/143
f 193/392/146 194/318/146 230/393/146
f 194/318/145 191/317/145 227/385/145
f 235/394/127 236/621/127 232/395/127
f 232/397/128 236/622/128 237/398/128
f 237/398/129 238/623/129 234/400/129
f 238/401/130 235/412/130 231/402/130
f 239/404/131 240/624/131 236/405/131
f 236/405/132 240/624/132 241/407/132
f 241/409/133 242/411/133 238/401/133
f 242/411/134 239/421/134 235/412/134
f 243/413/135 244/423/135 240/414/135
f 240/416/136 244/424/136 245/417/136
f 245/419/137 246/420/137 242/411/137
f 246/420/138 243/428/138 239/421/138
f 247/422/139 248/625/139 244/423/139
f 244/424/140 248/626/140 249/425/140
f 249/426/141 250/427/141 246/420/141
f 250/427/142 247/436/142 243/428/142
f 251/429/143 252/432/143 248/430/143
f 252/432/144 253/627/144 249/433/144
f 253/434/145 254/435/145 250/427/145
f 254/435/146 251/628/146 247/436/146
f 255/437/128 256/629/128 252/438/128
f 256/440/127 257/630/127 253/441/127
f 253/434/130 257/451/130 258/443/130
f 258/444/129 255/437/129 251/439/129
f 259/446/132 260/449/132 256/447/132
f 260/449/131 261/631/131 257/450/131
f 257/451/134 261/461/134 262/452/134
f 262/452/133 259/463/133 255/453/133
f 263/454/136 264/465/136 260/455/136
f 260/457/135 264/466/135 265/458/135
f 265/460/138 266/462/138 262/452/138
f 266/462/137 263/470/137 259/463/137
f 267/464/140 268/632/140 264/465/140
f 264/466/139 268/633/139 269/467/139
f 269/468/142 270/476/142 266/462/142
f 266/462/141 270/476/141 267/469/141
f 267/471/144 231/634/144 232/472/144
f 232/472/143 233/635/143 269/474/143
f 233/475/146 234/403/146 270/476/146
f 234/403/145 231/402/145 267/469/145
f 272/477/147 274/636/147 273/478/147
f 274/480/3 276/637/3 275/481/3
f 276/483/148 278/486/148 277/484/148
f 278/486/149 280/638/149 279/487/149
f 276/490/9 274/639/9 272/488/9
f 272/488/9 282/640/9 280/489/9
f 280/489/9 278/641/9 276/490/9
f 280/491/8 282/642/8 281/492/8
f 282/494/150 272/477/150 271/479/150
f 281/498/12 271/643/12 273/496/12
f 273/496/12 275/644/12 277/497/12
f 277/497/12 279/645/12 281/498/12
f 284/499/151 286/646/151 285/500/151
f 286/502/12 288/647/12 287/503/12
f 287/505/152 288/648/152 290/506/152
f 290/506/153 292/649/153 291/508/153
f 288/511/3 286/650/3 284/509/3
f 284/509/3 294/651/3 292/510/3
f 292/510/3 290/652/3 288/511/3
f 292/512/9 294/653/9 293/513/9
f 294/515/154 284/499/154 283/501/154
f 293/519/8 283/654/8 285/517/8
f 285/517/8 287/655/8 289/518/8
f 289/518/8 291/656/8 293/519/8
