# Blender 5.2.0 LTS
# www.blender.org
o mestolo
v 0.000000 -0.005000 -0.022000
v 0.000000 0.545000 -0.022000
v 0.019053 -0.005000 -0.011000
v 0.019053 0.545000 -0.011000
v 0.019053 -0.005000 0.011000
v 0.019053 0.545000 0.011000
v 0.000000 -0.005000 0.022000
v 0.000000 0.545000 0.022000
v -0.019053 -0.005000 0.011000
v -0.019053 0.545000 0.011000
v -0.019053 -0.005000 -0.011000
v -0.019053 0.545000 -0.011000
v -0.080000 -0.020000 0.025000
v -0.080000 0.080000 0.025000
v -0.080000 -0.020000 -0.025000
v -0.080000 0.080000 -0.025000
v 0.080000 -0.020000 0.025000
v 0.080000 0.080000 0.025000
v 0.080000 -0.020000 -0.025000
v 0.080000 0.080000 -0.025000
vn 0.5000 -0.0000 -0.8660
vn 1.0000 -0.0000 -0.0000
vn 0.5000 -0.0000 0.8660
vn -0.5000 -0.0000 0.8660
vn -0.0000 1.0000 -0.0000
vn -1.0000 -0.0000 -0.0000
vn -0.5000 -0.0000 -0.8660
vn -0.0000 -1.0000 -0.0000
vn -0.0000 -0.0000 -1.0000
vn -0.0000 -0.0000 1.0000
vt 0.038550 0.004200
vt 0.072900 0.995800
vt 0.038550 0.995800
vt 0.347090 0.004200
vt 0.386754 0.995800
vt 0.347090 0.995800
vt 0.081299 0.004200
vt 0.115649 0.995800
vt 0.081299 0.995800
vt 0.115649 0.004200
vt 0.149999 0.995800
vt 0.576112 0.083528
vt 0.541762 0.024032
vt 0.610462 0.024032
vt 0.395153 0.004200
vt 0.434817 0.995800
vt 0.395153 0.995800
vt 0.004200 0.004200
vt 0.004200 0.995800
vt 0.541762 0.151423
vt 0.576112 0.091927
vt 0.610462 0.151423
vt 0.443217 0.597930
vt 0.533362 0.778221
vt 0.443217 0.778221
vt 0.158399 0.292665
vt 0.338690 0.004200
vt 0.338690 0.292665
vt 0.443217 0.786621
vt 0.533362 0.966912
vt 0.443217 0.966912
vt 0.158399 0.589530
vt 0.338690 0.301065
vt 0.338690 0.589530
vt 0.533362 0.292665
vt 0.443217 0.004200
vt 0.533362 0.004200
vt 0.533362 0.589530
vt 0.443217 0.301065
vt 0.533362 0.301065
vt 0.072900 0.004200
vt 0.386754 0.004200
vt 0.149999 0.004200
vt 0.610462 0.063696
vt 0.541762 0.063696
vt 0.576112 0.004200
vt 0.434817 0.004200
vt 0.576112 0.171255
vt 0.541762 0.111759
vt 0.610462 0.111759
vt 0.533362 0.597930
vt 0.158399 0.004200
vt 0.533362 0.786621
vt 0.158399 0.301065
vt 0.443217 0.292665
vt 0.443217 0.589530
s 0
f 2/1/1 3/2/1 1/3/1
f 4/4/2 5/5/2 3/6/2
f 6/7/3 7/8/3 5/9/3
f 8/10/4 9/11/4 7/8/4
f 2/12/5 10/13/5 6/14/5
f 10/15/6 11/16/6 9/17/6
f 12/18/7 1/3/7 11/19/7
f 3/20/8 7/21/8 11/22/8
f 14/23/6 15/24/6 13/25/6
f 16/26/9 19/27/9 15/28/9
f 20/29/2 17/30/2 19/31/2
f 18/32/10 13/33/10 17/34/10
f 19/35/8 13/36/8 15/37/8
f 16/38/5 18/39/5 20/40/5
f 2/1/1 4/41/1 3/2/1
f 4/4/2 6/42/2 5/5/2
f 6/7/3 8/10/3 7/8/3
f 8/10/4 10/43/4 9/11/4
f 6/14/5 4/44/5 2/12/5
f 2/12/5 12/45/5 10/13/5
f 10/13/5 8/46/5 6/14/5
f 10/15/6 12/47/6 11/16/6
f 12/18/7 2/1/7 1/3/7
f 11/22/8 1/48/8 3/20/8
f 3/20/8 5/49/8 7/21/8
f 7/21/8 9/50/8 11/22/8
f 14/23/6 16/51/6 15/24/6
f 16/26/9 20/52/9 19/27/9
f 20/29/2 18/53/2 17/30/2
f 18/32/10 14/54/10 13/33/10
f 19/35/8 17/55/8 13/36/8
f 16/38/5 14/56/5 18/39/5
