# Blender 5.2.0 LTS
# www.blender.org
o piatto
v 0.000000 0.000000 -0.125000
v 0.000000 0.014000 -0.125000
v 0.062500 0.000000 -0.108253
v 0.062500 0.014000 -0.108253
v 0.108253 0.000000 -0.062500
v 0.108253 0.014000 -0.062500
v 0.125000 0.000000 0.000000
v 0.125000 0.014000 0.000000
v 0.108253 0.000000 0.062500
v 0.108253 0.014000 0.062500
v 0.062500 0.000000 0.108253
v 0.062500 0.014000 0.108253
v 0.000000 0.000000 0.125000
v 0.000000 0.014000 0.125000
v -0.062500 0.000000 0.108253
v -0.062500 0.014000 0.108253
v -0.108253 0.000000 0.062500
v -0.108253 0.014000 0.062500
v -0.125000 0.000000 0.000000
v -0.125000 0.014000 0.000000
v -0.108253 0.000000 -0.062500
v -0.108253 0.014000 -0.062500
v -0.062500 0.000000 -0.108253
v -0.062500 0.014000 -0.108253
v 0.133000 0.013000 0.000000
v 0.122000 0.024000 0.000000
v 0.111000 0.013000 0.000000
v 0.122000 0.002000 0.000000
v 0.115181 0.013000 -0.066500
v 0.105655 0.024000 -0.061000
v 0.096129 0.013000 -0.055500
v 0.105655 0.002000 -0.061000
v 0.066500 0.013000 -0.115181
v 0.061000 0.024000 -0.105655
v 0.055500 0.013000 -0.096129
v 0.061000 0.002000 -0.105655
v 0.000000 0.013000 -0.133000
v 0.000000 0.024000 -0.122000
v 0.000000 0.013000 -0.111000
v 0.000000 0.002000 -0.122000
v -0.066500 0.013000 -0.115181
v -0.061000 0.024000 -0.105655
v -0.055500 0.013000 -0.096129
v -0.061000 0.002000 -0.105655
v -0.115181 0.013000 -0.066500
v -0.105655 0.024000 -0.061000
v -0.096129 0.013000 -0.055500
v -0.105655 0.002000 -0.061000
v -0.133000 0.013000 -0.000000
v -0.122000 0.024000 -0.000000
v -0.111000 0.013000 -0.000000
v -0.122000 0.002000 -0.000000
v -0.115181 0.013000 0.066500
v -0.105655 0.024000 0.061000
v -0.096129 0.013000 0.055500
v -0.105655 0.002000 0.061000
v -0.066500 0.013000 0.115181
v -0.061000 0.024000 0.105655
v -0.055500 0.013000 0.096129
v -0.061000 0.002000 0.105655
v 0.000000 0.013000 0.133000
v 0.000000 0.024000 0.122000
v 0.000000 0.013000 0.111000
v 0.000000 0.002000 0.122000
v 0.066500 0.013000 0.115181
v 0.061000 0.024000 0.105655
v 0.055500 0.013000 0.096129
v 0.061000 0.002000 0.105655
v 0.115181 0.013000 0.066500
v 0.105655 0.024000 0.061000
v 0.096129 0.013000 0.055500
v 0.105655 0.002000 0.061000
vn 0.2588 -0.0000 -0.9659
vn 0.7071 -0.0000 -0.7071
vn 0.9659 -0.0000 -0.2588
vn 0.9659 -0.0000 0.2588
vn 0.7071 -0.0000 0.7071
vn 0.2588 -0.0000 0.9659
vn -0.2588 -0.0000 0.9659
vn -0.7071 -0.0000 0.7071
vn -0.9659 -0.0000 0.2588
vn -0.9659 -0.0000 -0.2588
vn -0.0000 1.0000 -0.0000
vn -0.7071 -0.0000 -0.7071
vn -0.2588 -0.0000 -0.9659
vn -0.0000 -1.0000 -0.0000
vn 0.6947 0.6947 -0.1862
vn -0.6947 0.6947 0.1862
vn -0.6947 -0.6947 0.1862
vn 0.6947 -0.6947 -0.1862
vn 0.5086 0.6947 -0.5086
vn -0.5086 0.6947 0.5086
vn -0.5086 -0.6947 0.5086
vn 0.5086 -0.6947 -0.5086
vn 0.1862 0.6947 -0.6947
vn -0.1862 0.6947 0.6947
vn -0.1862 -0.6947 0.6947
vn 0.1862 -0.6947 -0.6947
vn -0.1862 0.6947 -0.6947
vn 0.1862 0.6947 0.6947
vn 0.1862 -0.6947 0.6947
vn -0.1862 -0.6947 -0.6947
vn -0.5086 0.6947 -0.5086
vn 0.5086 0.6947 0.5086
vn 0.5086 -0.6947 0.5086
vn -0.5086 -0.6947 -0.5086
vn -0.6947 0.6947 -0.1862
vn 0.6947 0.6947 0.1862
vn 0.6947 -0.6947 0.1862
vn -0.6947 -0.6947 -0.1862
vt 0.928025 0.160399
vt 0.952537 0.062284
vt 0.952537 0.160399
vt 0.928025 0.062284
vt 0.952537 0.005638
vt 0.963813 0.315160
vt 0.988326 0.217045
vt 0.988326 0.315160
vt 0.963813 0.217045
vt 0.988326 0.103752
vt 0.963813 0.103752
vt 0.988326 0.005638
vt 0.928025 0.805896
vt 0.952537 0.707782
vt 0.952537 0.805896
vt 0.928025 0.707782
vt 0.952537 0.594489
vt 0.928025 0.594489
vt 0.952537 0.496375
vt 0.928025 0.496375
vt 0.952537 0.439728
vt 0.928025 0.428452
vt 0.952537 0.371806
vt 0.952537 0.428452
vt 0.062284 0.062284
vt 0.428452 0.160399
vt 0.160399 0.428452
vt 0.928025 0.371806
vt 0.952537 0.273692
vt 0.928025 0.273692
vt 0.160399 0.439728
vt 0.428452 0.707782
vt 0.062284 0.805896
vt 0.641401 0.354946
vt 0.653340 0.238510
vt 0.672600 0.238510
vt 0.624722 0.345316
vt 0.634080 0.238510
vt 0.748435 0.335686
vt 0.703137 0.238510
vt 0.722397 0.238510
vt 0.731755 0.345316
vt 0.683876 0.238510
vt 0.546534 0.423504
vt 0.608042 0.335686
vt 0.809943 0.423504
vt 0.715075 0.354946
vt 0.439728 0.471382
vt 0.556164 0.440183
vt 0.155027 0.873819
vt 0.174287 0.979407
vt 0.155027 0.984392
vt 0.174287 0.878803
vt 0.193547 0.984392
vt 0.916749 0.452122
vt 0.800312 0.440183
vt 0.024898 0.994362
vt 0.005638 0.878803
vt 0.024898 0.873819
vt 0.565794 0.881264
vt 0.672600 0.890622
vt 0.672600 0.909882
vt 0.781052 0.864584
vt 0.683876 0.909882
vt 0.683876 0.890622
vt 0.044158 0.989377
vt 0.044158 0.878803
vt 0.470927 0.812706
vt 0.556164 0.897943
vt 0.504287 0.793446
vt 0.575424 0.864584
vt 0.852190 0.793446
vt 0.790682 0.881264
vt 0.868870 0.803076
vt 0.800312 0.897943
vt 0.439728 0.696270
vt 0.487607 0.803076
vt 0.105230 0.873819
vt 0.124490 0.979407
vt 0.105230 0.984392
vt 0.143751 0.873819
vt 0.143751 0.984392
vt 0.897488 0.696270
vt 0.885549 0.812706
vt 0.487607 0.589464
vt 0.458988 0.696270
vt 0.478248 0.696270
vt 0.878228 0.696270
vt 0.868870 0.589464
vt 0.885550 0.579834
vt 0.916748 0.696270
vt 0.556164 0.494597
vt 0.470927 0.579834
vt 0.575424 0.527957
vt 0.504287 0.599094
vt 0.781052 0.527957
vt 0.852190 0.599094
vt 0.790682 0.511277
vt 0.074694 0.873819
vt 0.055434 0.989377
vt 0.055434 0.878803
vt 0.672600 0.482658
vt 0.565794 0.511277
vt 0.683876 0.501918
vt 0.093954 0.989377
vt 0.093954 0.878803
vt 0.556164 0.036837
vt 0.439728 0.024898
vt 0.439728 0.005638
vt 0.204823 0.984392
vt 0.224083 0.878803
vt 0.224083 0.979407
vt 0.243343 0.984392
vt 0.916749 0.024898
vt 0.800312 0.036837
vt 0.916749 0.005638
vt 0.641401 0.122074
vt 0.546534 0.053517
vt 0.608042 0.141334
vt 0.536904 0.070196
vt 0.748435 0.141334
vt 0.809943 0.053517
vt 0.819573 0.070196
vt 0.731755 0.131704
vt 0.947285 0.937716
vt 0.928024 0.822157
vt 0.947285 0.817172
vt 0.624722 0.131704
vt 0.966545 0.932731
vt 0.966545 0.822157
vt 0.928025 0.005638
vt 0.963813 0.005638
vt 0.928025 0.439728
vt 0.062284 0.371806
vt 0.005638 0.273692
vt 0.005638 0.160399
vt 0.160399 0.005638
vt 0.273692 0.005638
vt 0.371806 0.062284
vt 0.428452 0.273692
vt 0.371806 0.371806
vt 0.273692 0.428452
vt 0.005638 0.707782
vt 0.005638 0.594489
vt 0.062284 0.496375
vt 0.273692 0.439728
vt 0.371806 0.496375
vt 0.428452 0.594489
vt 0.371806 0.805896
vt 0.273692 0.862543
vt 0.160399 0.862543
vt 0.536904 0.406824
vt 0.819573 0.406824
vt 0.439728 0.452122
vt 0.193547 0.873819
vt 0.916749 0.471382
vt 0.005638 0.989377
vt 0.124490 0.878803
vt 0.800312 0.494597
vt 0.074694 0.994362
vt 0.672600 0.501918
vt 0.683876 0.482658
vt 0.204823 0.873819
vt 0.243343 0.873819
vt 0.715075 0.122074
vt 0.928024 0.932731
s 0
f 2/1/1 3/2/1 1/3/1
f 4/4/2 5/5/2 3/2/2
f 6/6/3 7/7/3 5/8/3
f 8/9/4 9/10/4 7/7/4
f 10/11/5 11/12/5 9/10/5
f 12/13/6 13/14/6 11/15/6
f 14/16/7 15/17/7 13/14/7
f 16/18/8 17/19/8 15/17/8
f 18/20/9 19/21/9 17/19/9
f 20/22/10 21/23/10 19/24/10
f 22/25/11 14/26/11 6/27/11
f 22/28/12 23/29/12 21/23/12
f 24/30/13 1/3/13 23/29/13
f 7/31/14 15/32/14 23/33/14
f 29/34/15 26/35/15 25/36/15
f 30/37/16 27/38/16 26/35/16
f 31/39/17 28/40/17 27/41/17
f 32/42/18 25/43/18 28/40/18
f 29/34/19 34/44/19 30/37/19
f 34/44/20 31/45/20 30/37/20
f 31/39/21 36/46/21 32/42/21
f 36/46/22 29/47/22 32/42/22
f 37/48/23 34/44/23 33/49/23
f 38/50/24 35/51/24 34/52/24
f 39/53/25 36/54/25 35/51/25
f 40/55/26 33/56/26 36/46/26
f 41/57/27 38/58/27 37/59/27
f 42/60/28 39/61/28 38/62/28
f 43/63/29 40/64/29 39/65/29
f 44/66/30 37/59/30 40/67/30
f 45/68/31 42/60/31 41/69/31
f 42/60/32 47/70/32 43/71/32
f 47/72/33 44/73/33 43/63/33
f 48/74/34 41/75/34 44/73/34
f 49/76/35 46/77/35 45/68/35
f 50/78/36 47/79/36 46/80/36
f 47/79/37 52/81/37 48/82/37
f 52/83/38 45/84/38 48/74/38
f 49/76/16 54/85/16 50/86/16
f 54/85/15 51/87/15 50/86/15
f 51/88/18 56/89/18 52/83/18
f 52/83/17 53/90/17 49/91/17
f 57/92/20 54/85/20 53/93/20
f 54/85/19 59/94/19 55/95/19
f 59/96/22 56/89/22 55/97/22
f 60/98/21 53/90/21 56/89/21
f 57/99/24 62/100/24 58/101/24
f 62/102/23 59/94/23 58/103/23
f 63/104/26 60/98/26 59/96/26
f 64/105/25 57/99/25 60/106/25
f 65/107/28 62/108/28 61/109/28
f 62/110/27 67/111/27 63/112/27
f 67/111/30 64/113/30 63/112/30
f 64/114/29 65/115/29 61/116/29
f 69/117/32 66/118/32 65/107/32
f 66/118/31 71/119/31 67/120/31
f 71/121/34 68/122/34 67/123/34
f 72/124/33 65/115/33 68/122/33
f 25/125/36 70/126/36 69/127/36
f 26/35/35 71/119/35 70/128/35
f 27/41/38 72/124/38 71/121/38
f 28/129/37 69/127/37 72/130/37
f 2/1/1 4/4/1 3/2/1
f 4/4/2 6/131/2 5/5/2
f 6/6/3 8/9/3 7/7/3
f 8/9/4 10/11/4 9/10/4
f 10/11/5 12/132/5 11/12/5
f 12/13/6 14/16/6 13/14/6
f 14/16/7 16/18/7 15/17/7
f 16/18/8 18/20/8 17/19/8
f 18/20/9 20/133/9 19/21/9
f 20/22/10 22/28/10 21/23/10
f 6/27/11 4/134/11 2/135/11
f 2/135/11 24/136/11 22/25/11
f 22/25/11 20/137/11 18/138/11
f 18/138/11 16/139/11 14/26/11
f 14/26/11 12/140/11 10/141/11
f 10/141/11 8/142/11 6/27/11
f 6/27/11 2/135/11 22/25/11
f 22/25/11 18/138/11 14/26/11
f 14/26/11 10/141/11 6/27/11
f 22/28/12 24/30/12 23/29/12
f 24/30/13 2/1/13 1/3/13
f 23/33/14 1/143/14 3/144/14
f 3/144/14 5/145/14 7/31/14
f 7/31/14 9/146/14 11/147/14
f 11/147/14 13/148/14 15/32/14
f 15/32/14 17/149/14 19/150/14
f 19/150/14 21/151/14 23/33/14
f 23/33/14 3/144/14 7/31/14
f 7/31/14 11/147/14 15/32/14
f 15/32/14 19/150/14 23/33/14
f 29/34/15 30/37/15 26/35/15
f 30/37/16 31/45/16 27/38/16
f 31/39/17 32/42/17 28/40/17
f 32/42/18 29/47/18 25/43/18
f 29/34/19 33/49/19 34/44/19
f 34/44/20 35/152/20 31/45/20
f 31/39/21 35/153/21 36/46/21
f 36/46/22 33/56/22 29/47/22
f 37/48/23 38/154/23 34/44/23
f 38/50/24 39/53/24 35/51/24
f 39/53/25 40/155/25 36/54/25
f 40/55/26 37/156/26 33/56/26
f 41/57/27 42/157/27 38/58/27
f 42/60/28 43/71/28 39/61/28
f 43/63/29 44/73/29 40/64/29
f 44/66/30 41/57/30 37/59/30
f 45/68/31 46/77/31 42/60/31
f 42/60/32 46/77/32 47/70/32
f 47/72/33 48/74/33 44/73/33
f 48/74/34 45/84/34 41/75/34
f 49/76/35 50/86/35 46/77/35
f 50/78/36 51/158/36 47/79/36
f 47/79/37 51/158/37 52/81/37
f 52/83/38 49/91/38 45/84/38
f 49/76/16 53/93/16 54/85/16
f 54/85/15 55/95/15 51/87/15
f 51/88/18 55/97/18 56/89/18
f 52/83/17 56/89/17 53/90/17
f 57/92/20 58/103/20 54/85/20
f 54/85/19 58/103/19 59/94/19
f 59/96/22 60/98/22 56/89/22
f 60/98/21 57/159/21 53/90/21
f 57/99/24 61/160/24 62/100/24
f 62/102/23 63/161/23 59/94/23
f 63/104/26 64/162/26 60/98/26
f 64/105/25 61/160/25 57/99/25
f 65/107/28 66/118/28 62/108/28
f 62/110/27 66/163/27 67/111/27
f 67/111/30 68/164/30 64/113/30
f 64/114/29 68/122/29 65/115/29
f 69/117/32 70/128/32 66/118/32
f 66/118/31 70/128/31 71/119/31
f 71/121/34 72/124/34 68/122/34
f 72/124/33 69/165/33 65/115/33
f 25/125/36 26/166/36 70/126/36
f 26/35/35 27/38/35 71/119/35
f 27/41/38 28/40/38 72/124/38
f 28/129/37 25/125/37 69/127/37
