# Blender 5.2.0 LTS
# www.blender.org
o sgabello
v 0.000000 0.430000 -0.170000
v 0.000000 0.480000 -0.170000
v 0.120208 0.430000 -0.120208
v 0.120208 0.480000 -0.120208
v 0.170000 0.430000 0.000000
v 0.170000 0.480000 0.000000
v 0.120208 0.430000 0.120208
v 0.120208 0.480000 0.120208
v 0.000000 0.430000 0.170000
v 0.000000 0.480000 0.170000
v -0.120208 0.430000 0.120208
v -0.120208 0.480000 0.120208
v -0.170000 0.430000 0.000000
v -0.170000 0.480000 0.000000
v -0.120208 0.430000 -0.120208
v -0.120208 0.480000 -0.120208
v 0.110000 0.000000 -0.025000
v 0.110000 0.450000 -0.025000
v 0.131651 0.000000 -0.012500
v 0.131651 0.450000 -0.012500
v 0.131651 0.000000 0.012500
v 0.131651 0.450000 0.012500
v 0.110000 0.000000 0.025000
v 0.110000 0.450000 0.025000
v 0.088349 0.000000 0.012500
v 0.088349 0.450000 0.012500
v 0.088349 0.000000 -0.012500
v 0.088349 0.450000 -0.012500
v -0.055000 0.000000 -0.120263
v -0.055000 0.450000 -0.120263
v -0.033349 0.000000 -0.107763
v -0.033349 0.450000 -0.107763
v -0.033349 0.000000 -0.082763
v -0.033349 0.450000 -0.082763
v -0.055000 0.000000 -0.070263
v -0.055000 0.450000 -0.070263
v -0.076651 0.000000 -0.082763
v -0.076651 0.450000 -0.082763
v -0.076651 0.000000 -0.107763
v -0.076651 0.450000 -0.107763
v -0.055000 0.000000 0.070263
v -0.055000 0.450000 0.070263
v -0.033349 0.000000 0.082763
v -0.033349 0.450000 0.082763
v -0.033349 0.000000 0.107763
v -0.033349 0.450000 0.107763
v -0.055000 0.000000 0.120263
v -0.055000 0.450000 0.120263
v -0.076651 0.000000 0.107763
v -0.076651 0.450000 0.107763
v -0.076651 0.000000 0.082763
v -0.076651 0.450000 0.082763
v 0.117000 0.160000 0.000000
v 0.105000 0.172000 0.000000
v 0.093000 0.160000 0.000000
v 0.105000 0.148000 0.000000
v 0.082731 0.160000 -0.082732
v 0.074246 0.172000 -0.074246
v 0.065761 0.160000 -0.065761
v 0.074246 0.148000 -0.074246
v 0.000000 0.160000 -0.117000
v 0.000000 0.172000 -0.105000
v 0.000000 0.160000 -0.093000
v 0.000000 0.148000 -0.105000
v -0.082732 0.160000 -0.082731
v -0.074246 0.172000 -0.074246
v -0.065761 0.160000 -0.065761
v -0.074246 0.148000 -0.074246
v -0.117000 0.160000 -0.000000
v -0.105000 0.172000 -0.000000
v -0.093000 0.160000 -0.000000
v -0.105000 0.148000 -0.000000
v -0.082732 0.160000 0.082731
v -0.074246 0.172000 0.074246
v -0.065761 0.160000 0.065761
v -0.074246 0.148000 0.074246
v 0.000000 0.160000 0.117000
v 0.000000 0.172000 0.105000
v 0.000000 0.160000 0.093000
v 0.000000 0.148000 0.105000
v 0.082731 0.160000 0.082732
v 0.074246 0.172000 0.074246
v 0.065761 0.160000 0.065761
v 0.074246 0.148000 0.074246
vn 0.3827 -0.0000 -0.9239
vn 0.9239 -0.0000 -0.3827
vn 0.9239 -0.0000 0.3827
vn 0.3827 -0.0000 0.9239
vn -0.3827 -0.0000 0.9239
vn -0.9239 -0.0000 0.3827
vn -0.0000 1.0000 -0.0000
vn -0.9239 -0.0000 -0.3827
vn -0.3827 -0.0000 -0.9239
vn -0.0000 -1.0000 -0.0000
vn 0.5000 -0.0000 -0.8660
vn 1.0000 -0.0000 -0.0000
vn 0.5000 -0.0000 0.8660
vn -0.5000 -0.0000 0.8660
vn -1.0000 -0.0000 -0.0000
vn -0.5000 -0.0000 -0.8660
vn 0.6786 0.6786 -0.2811
vn -0.6786 0.6786 0.2811
vn -0.6786 -0.6786 0.2811
vn 0.6786 -0.6786 -0.2811
vn 0.2811 0.6786 -0.6786
vn -0.2811 0.6786 0.6786
vn -0.2811 -0.6786 0.6786
vn 0.2811 -0.6786 -0.6786
vn -0.2811 0.6786 -0.6786
vn 0.2811 0.6786 0.6786
vn 0.2811 -0.6786 0.6786
vn -0.2811 -0.6786 -0.6786
vn -0.6786 0.6786 -0.2811
vn 0.6786 0.6786 0.2811
vn 0.6786 -0.6786 0.2811
vn -0.6786 -0.6786 -0.2811
vt 0.514956 0.820243
vt 0.573546 0.668513
vt 0.573546 0.820243
vt 0.514956 0.668513
vt 0.573546 0.550654
vt 0.440801 0.916961
vt 0.499390 0.799101
vt 0.499390 0.916961
vt 0.440801 0.799101
vt 0.499390 0.647372
vt 0.440801 0.647372
vt 0.499390 0.550654
vt 0.933627 0.288170
vt 0.992217 0.153640
vt 0.992217 0.288170
vt 0.115591 0.007783
vt 0.375864 0.115591
vt 0.268055 0.375864
vt 0.933627 0.153640
vt 0.992217 0.007783
vt 0.514956 0.916961
vt 0.573546 0.916961
vt 0.268055 0.391430
vt 0.375864 0.651702
vt 0.115591 0.759511
vt 0.874972 0.007783
vt 0.904251 0.535088
vt 0.874972 0.535088
vt 0.904251 0.007783
vt 0.918061 0.535088
vt 0.697347 0.007783
vt 0.726626 0.535088
vt 0.697347 0.535088
vt 0.726626 0.007783
vt 0.742095 0.535088
vt 0.589112 0.850556
vt 0.614482 0.806614
vt 0.639852 0.850556
vt 0.391430 0.007783
vt 0.420586 0.535087
vt 0.391430 0.535087
vt 0.420586 0.007783
vt 0.437627 0.535087
vt 0.051472 0.789724
vt 0.102212 0.789724
vt 0.076842 0.833666
vt 0.757661 0.007783
vt 0.786940 0.535088
vt 0.757661 0.535088
vt 0.786940 0.007783
vt 0.800750 0.535088
vt 0.637033 0.007783
vt 0.666312 0.535088
vt 0.637033 0.535088
vt 0.666312 0.007783
vt 0.681781 0.535088
vt 0.143148 0.833666
vt 0.117778 0.789724
vt 0.168518 0.789724
vt 0.453193 0.007783
vt 0.482350 0.535087
vt 0.453193 0.535087
vt 0.482350 0.007783
vt 0.499390 0.535087
vt 0.184084 0.789724
vt 0.234824 0.789724
vt 0.209454 0.833666
vt 0.816317 0.007783
vt 0.845596 0.535088
vt 0.816317 0.535088
vt 0.845596 0.007783
vt 0.859406 0.535088
vt 0.576720 0.007783
vt 0.605999 0.535088
vt 0.576720 0.535088
vt 0.605999 0.007783
vt 0.621467 0.535088
vt 0.250390 0.819019
vt 0.275760 0.775077
vt 0.301130 0.819019
vt 0.514956 0.007783
vt 0.544113 0.535087
vt 0.514956 0.535087
vt 0.544113 0.007783
vt 0.561154 0.535087
vt 0.316696 0.819019
vt 0.342066 0.775077
vt 0.367436 0.819019
vt 0.670201 0.622966
vt 0.659713 0.722810
vt 0.657350 0.628671
vt 0.644498 0.634376
vt 0.714645 0.717757
vt 0.703886 0.628671
vt 0.716738 0.634376
vt 0.701523 0.722810
vt 0.691034 0.622966
vt 0.411173 0.655079
vt 0.397112 0.554735
vt 0.411173 0.550654
vt 0.594817 0.791048
vt 0.646591 0.717757
vt 0.766418 0.791048
vt 0.425235 0.648450
vt 0.425235 0.554735
vt 0.742796 0.806614
vt 0.755787 0.906164
vt 0.742796 0.911545
vt 0.397112 0.884352
vt 0.411173 0.794718
vt 0.411173 0.877723
vt 0.425235 0.884352
vt 0.771353 0.811995
vt 0.784344 0.911545
vt 0.771353 0.906164
vt 0.021845 0.875461
vt 0.007783 0.784008
vt 0.021845 0.775077
vt 0.964996 0.791048
vt 0.913223 0.717757
vt 0.970702 0.778196
vt 0.845169 0.717757
vt 0.793395 0.791048
vt 0.787690 0.778196
vt 0.035906 0.784008
vt 0.889612 0.622966
vt 0.900101 0.722810
vt 0.886979 0.727864
vt 0.902464 0.628671
vt 0.843076 0.634377
vt 0.858291 0.722810
vt 0.868780 0.622966
vt 0.871413 0.727864
vt 0.965649 0.550654
vt 0.655418 0.806614
vt 0.669479 0.896248
vt 0.655418 0.900329
vt 0.683541 0.806614
vt 0.683541 0.900329
vt 0.855928 0.628671
vt 0.792743 0.550654
vt 0.411173 0.775071
vt 0.397112 0.677274
vt 0.411173 0.670645
vt 0.812901 0.900783
vt 0.799910 0.811995
vt 0.812901 0.806614
vt 0.841459 0.895402
vt 0.828467 0.806614
vt 0.841459 0.811995
vt 0.425235 0.677274
vt 0.589112 0.563775
vt 0.594165 0.550653
vt 0.699107 0.806614
vt 0.713168 0.887771
vt 0.699107 0.896702
vt 0.713168 0.807979
vt 0.727230 0.896702
vt 0.767071 0.550653
vt 0.772124 0.563776
vt 0.514956 0.550654
vt 0.440801 0.550654
vt 0.115591 0.375864
vt 0.007783 0.268055
vt 0.007783 0.115591
vt 0.268055 0.007783
vt 0.375864 0.268055
vt 0.933627 0.007783
vt 0.007783 0.651702
vt 0.007783 0.499238
vt 0.115591 0.391430
vt 0.375864 0.499238
vt 0.268055 0.759511
vt 0.918061 0.007783
vt 0.742095 0.007783
vt 0.614482 0.865203
vt 0.589112 0.821261
vt 0.639852 0.821261
vt 0.437627 0.007783
vt 0.051472 0.819019
vt 0.076842 0.775077
vt 0.102212 0.819019
vt 0.800750 0.007783
vt 0.681781 0.007783
vt 0.168518 0.819019
vt 0.117778 0.819019
vt 0.143148 0.775077
vt 0.499390 0.007783
vt 0.184084 0.819019
vt 0.209454 0.775077
vt 0.234824 0.819019
vt 0.859406 0.007783
vt 0.621467 0.007783
vt 0.275760 0.833666
vt 0.250390 0.789724
vt 0.301130 0.789724
vt 0.561154 0.007783
vt 0.342066 0.833666
vt 0.316696 0.789724
vt 0.367436 0.789724
vt 0.672835 0.727864
vt 0.688401 0.727864
vt 0.397112 0.648450
vt 0.589112 0.778196
vt 0.772124 0.778196
vt 0.755787 0.811995
vt 0.397112 0.790637
vt 0.425235 0.790637
vt 0.784344 0.806614
vt 0.007783 0.874096
vt 0.035906 0.874096
vt 0.915316 0.634377
vt 0.970702 0.563776
vt 0.669479 0.813243
vt 0.787690 0.563776
vt 0.397112 0.770989
vt 0.799910 0.895402
vt 0.828467 0.900783
vt 0.425235 0.770989
vt 0.727230 0.806614
s 0
f 2/1/1 3/2/1 1/3/1
f 4/4/2 5/5/2 3/2/2
f 6/6/3 7/7/3 5/8/3
f 8/9/4 9/10/4 7/7/4
f 10/11/5 11/12/5 9/10/5
f 12/13/6 13/14/6 11/15/6
f 14/16/7 10/17/7 6/18/7
f 14/19/8 15/20/8 13/14/8
f 16/21/9 1/3/9 15/22/9
f 7/23/10 11/24/10 15/25/10
f 18/26/11 19/27/11 17/28/11
f 20/29/12 21/30/12 19/27/12
f 22/31/13 23/32/13 21/33/13
f 24/34/14 25/35/14 23/32/14
f 18/36/7 26/37/7 22/38/7
f 26/39/15 27/40/15 25/41/15
f 28/42/16 17/43/16 27/40/16
f 19/44/10 23/45/10 27/46/10
f 30/47/11 31/48/11 29/49/11
f 32/50/12 33/51/12 31/48/12
f 34/52/13 35/53/13 33/54/13
f 36/55/14 37/56/14 35/53/14
f 30/57/7 38/58/7 34/59/7
f 38/60/15 39/61/15 37/62/15
f 40/63/16 29/64/16 39/61/16
f 31/65/10 35/66/10 39/67/10
f 42/68/11 43/69/11 41/70/11
f 44/71/12 45/72/12 43/69/12
f 46/73/13 47/74/13 45/75/13
f 48/76/14 49/77/14 47/74/14
f 42/78/7 50/79/7 46/80/7
f 50/81/15 51/82/15 49/83/15
f 52/84/16 41/85/16 51/82/16
f 43/86/10 47/87/10 51/88/10
f 53/89/17 58/90/17 54/91/17
f 58/90/18 55/92/18 54/91/18
f 59/93/19 56/94/19 55/95/19
f 60/96/20 53/97/20 56/94/20
f 61/98/21 58/99/21 57/100/21
f 62/101/22 59/102/22 58/90/22
f 59/93/23 64/103/23 60/96/23
f 64/104/24 57/100/24 60/105/24
f 65/106/25 62/107/25 61/108/25
f 62/109/26 67/110/26 63/111/26
f 67/110/27 64/112/27 63/111/27
f 68/113/28 61/114/28 64/115/28
f 69/116/29 66/117/29 65/118/29
f 66/119/30 71/120/30 67/121/30
f 71/122/31 68/123/31 67/124/31
f 68/125/32 69/116/32 65/118/32
f 73/126/18 70/127/18 69/128/18
f 74/129/17 71/120/17 70/127/17
f 75/130/20 72/131/20 71/122/20
f 72/131/19 73/132/19 69/133/19
f 77/134/22 74/129/22 73/126/22
f 78/135/21 75/136/21 74/137/21
f 75/136/24 80/138/24 76/139/24
f 76/140/23 77/141/23 73/132/23
f 81/142/26 78/143/26 77/144/26
f 82/145/25 79/146/25 78/147/25
f 83/148/28 80/149/28 79/150/28
f 80/151/27 81/142/27 77/144/27
f 53/89/30 82/152/30 81/153/30
f 54/154/29 83/155/29 82/156/29
f 55/157/32 84/158/32 83/155/32
f 56/94/31 81/159/31 84/160/31
f 2/1/1 4/4/1 3/2/1
f 4/4/2 6/161/2 5/5/2
f 6/6/3 8/9/3 7/7/3
f 8/9/4 10/11/4 9/10/4
f 10/11/5 12/162/5 11/12/5
f 12/13/6 14/19/6 13/14/6
f 6/18/7 4/163/7 2/164/7
f 2/164/7 16/165/7 14/16/7
f 14/16/7 12/166/7 10/17/7
f 10/17/7 8/167/7 6/18/7
f 6/18/7 2/164/7 14/16/7
f 14/19/8 16/168/8 15/20/8
f 16/21/9 2/1/9 1/3/9
f 15/25/10 1/169/10 3/170/10
f 3/170/10 5/171/10 7/23/10
f 7/23/10 9/172/10 11/24/10
f 11/24/10 13/173/10 15/25/10
f 15/25/10 3/170/10 7/23/10
f 18/26/11 20/29/11 19/27/11
f 20/29/12 22/174/12 21/30/12
f 22/31/13 24/34/13 23/32/13
f 24/34/14 26/175/14 25/35/14
f 22/38/7 20/176/7 18/36/7
f 18/36/7 28/177/7 26/37/7
f 26/37/7 24/178/7 22/38/7
f 26/39/15 28/42/15 27/40/15
f 28/42/16 18/179/16 17/43/16
f 27/46/10 17/180/10 19/44/10
f 19/44/10 21/181/10 23/45/10
f 23/45/10 25/182/10 27/46/10
f 30/47/11 32/50/11 31/48/11
f 32/50/12 34/183/12 33/51/12
f 34/52/13 36/55/13 35/53/13
f 36/55/14 38/184/14 37/56/14
f 34/59/7 32/185/7 30/57/7
f 30/57/7 40/186/7 38/58/7
f 38/58/7 36/187/7 34/59/7
f 38/60/15 40/63/15 39/61/15
f 40/63/16 30/188/16 29/64/16
f 39/67/10 29/189/10 31/65/10
f 31/65/10 33/190/10 35/66/10
f 35/66/10 37/191/10 39/67/10
f 42/68/11 44/71/11 43/69/11
f 44/71/12 46/192/12 45/72/12
f 46/73/13 48/76/13 47/74/13
f 48/76/14 50/193/14 49/77/14
f 46/80/7 44/194/7 42/78/7
f 42/78/7 52/195/7 50/79/7
f 50/79/7 48/196/7 46/80/7
f 50/81/15 52/84/15 51/82/15
f 52/84/16 42/197/16 41/85/16
f 51/88/10 41/198/10 43/86/10
f 43/86/10 45/199/10 47/87/10
f 47/87/10 49/200/10 51/88/10
f 53/89/17 57/201/17 58/90/17
f 58/90/18 59/102/18 55/92/18
f 59/93/19 60/96/19 56/94/19
f 60/96/20 57/202/20 53/97/20
f 61/98/21 62/203/21 58/99/21
f 62/101/22 63/204/22 59/102/22
f 59/93/23 63/205/23 64/103/23
f 64/104/24 61/98/24 57/100/24
f 65/106/25 66/206/25 62/107/25
f 62/109/26 66/207/26 67/110/26
f 67/110/27 68/208/27 64/112/27
f 68/113/28 65/209/28 61/114/28
f 69/116/29 70/210/29 66/117/29
f 66/119/30 70/127/30 71/120/30
f 71/122/31 72/131/31 68/123/31
f 68/125/32 72/211/32 69/116/32
f 73/126/18 74/129/18 70/127/18
f 74/129/17 75/212/17 71/120/17
f 75/130/20 76/140/20 72/131/20
f 72/131/19 76/140/19 73/132/19
f 77/134/22 78/213/22 74/129/22
f 78/135/21 79/214/21 75/136/21
f 75/136/24 79/214/24 80/138/24
f 76/140/23 80/215/23 77/141/23
f 81/142/26 82/216/26 78/143/26
f 82/145/25 83/217/25 79/146/25
f 83/148/28 84/218/28 80/149/28
f 80/151/27 84/219/27 81/142/27
f 53/89/30 54/91/30 82/152/30
f 54/154/29 55/157/29 83/155/29
f 55/157/32 56/220/32 84/158/32
f 56/94/31 53/97/31 81/159/31
