# Blender 5.2.0 LTS
# www.blender.org
o spillatore_leva
v 0.000000 0.000000 0.010000
v 0.000000 0.240000 0.010000
v 0.014142 0.000000 0.015858
v 0.014142 0.240000 0.015858
v 0.020000 0.000000 0.030000
v 0.020000 0.240000 0.030000
v 0.014142 0.000000 0.044142
v 0.014142 0.240000 0.044142
v 0.000000 0.000000 0.050000
v 0.000000 0.240000 0.050000
v -0.014142 0.000000 0.044142
v -0.014142 0.240000 0.044142
v -0.020000 0.000000 0.030000
v -0.020000 0.240000 0.030000
v -0.014142 0.000000 0.015858
v -0.014142 0.240000 0.015858
v 0.000000 0.288000 0.030000
v 0.000000 0.280743 0.007664
v 0.000000 0.261743 -0.006140
v 0.000000 0.238257 -0.006140
v 0.000000 0.219257 0.007664
v 0.000000 0.212000 0.030000
v 0.015794 0.280743 0.014206
v 0.025555 0.261743 0.004445
v 0.025555 0.238257 0.004445
v 0.015794 0.219257 0.014206
v 0.022336 0.280743 0.030000
v 0.036140 0.261743 0.030000
v 0.036140 0.238257 0.030000
v 0.022336 0.219257 0.030000
v 0.015794 0.280743 0.045794
v 0.025555 0.261743 0.055555
v 0.025555 0.238257 0.055555
v 0.015794 0.219257 0.045794
v 0.000000 0.280743 0.052336
v 0.000000 0.261743 0.066140
v 0.000000 0.238257 0.066140
v 0.000000 0.219257 0.052336
v -0.015794 0.280743 0.045794
v -0.025555 0.261743 0.055555
v -0.025555 0.238257 0.055555
v -0.015794 0.219257 0.045794
v -0.022336 0.280743 0.030000
v -0.036140 0.261743 0.030000
v -0.036140 0.238257 0.030000
v -0.022336 0.219257 0.030000
v -0.015794 0.280743 0.014206
v -0.025555 0.261743 0.004445
v -0.025555 0.238257 0.004445
v -0.015794 0.219257 0.014206
vn 0.3827 -0.0000 -0.9239
vn 0.9239 -0.0000 -0.3827
vn 0.9239 -0.0000 0.3827
vn 0.3827 -0.0000 0.9239
vn -0.3827 -0.0000 0.9239
vn -0.9239 -0.0000 0.3827
vn -0.0000 1.0000 -0.0000
vn -0.9239 -0.0000 -0.3827
vn -0.3827 -0.0000 -0.9239
vn -0.0000 -1.0000 -0.0000
vn 0.1270 0.9434 -0.3065
vn 0.3177 -0.5573 -0.7671
vn 0.3177 0.5573 -0.7671
vn 0.1270 -0.9434 -0.3065
vn 0.3065 -0.9434 -0.1270
vn 0.3065 0.9434 -0.1270
vn 0.7671 -0.5573 -0.3177
vn 0.7671 0.5573 -0.3177
vn 0.3065 -0.9434 0.1270
vn 0.3065 0.9434 0.1270
vn 0.7671 -0.5573 0.3177
vn 0.7671 0.5573 0.3177
vn 0.1270 -0.9434 0.3065
vn 0.1270 0.9434 0.3065
vn 0.3177 -0.5573 0.7671
vn 0.3177 0.5573 0.7671
vn -0.1270 -0.9434 0.3065
vn -0.1270 0.9434 0.3065
vn -0.3177 -0.5573 0.7671
vn -0.3177 0.5573 0.7671
vn -0.3065 -0.9434 0.1270
vn -0.3065 0.9434 0.1270
vn -0.7671 -0.5573 0.3177
vn -0.7671 0.5573 0.3177
vn -0.3065 -0.9434 -0.1270
vn -0.3065 0.9434 -0.1270
vn -0.7671 -0.5573 -0.3177
vn -0.7671 0.5573 -0.3177
vn -0.1270 -0.9434 -0.3065
vn -0.1270 0.9434 -0.3065
vn -0.3177 -0.5573 -0.7671
vn -0.3177 0.5573 -0.7671
vt 0.038984 0.004309
vt 0.088021 0.773148
vt 0.038984 0.773148
vt 0.088021 0.004309
vt 0.122695 0.773148
vt 0.779434 0.004309
vt 0.828471 0.642672
vt 0.779434 0.642672
vt 0.131314 0.004309
vt 0.165988 0.773148
vt 0.131314 0.773148
vt 0.165988 0.004309
vt 0.215025 0.773148
vt 0.215025 0.004309
vt 0.249700 0.773148
vt 0.179815 0.781767
vt 0.263526 0.816441
vt 0.228852 0.900153
vt 0.292993 0.004309
vt 0.342030 0.642672
vt 0.292993 0.642672
vt 0.004309 0.004309
vt 0.004309 0.773148
vt 0.292993 0.708651
vt 0.258318 0.661997
vt 0.446189 0.155576
vt 0.521424 0.066966
vt 0.521424 0.155576
vt 0.136522 0.916111
vt 0.070416 0.888729
vt 0.136522 0.861347
vt 0.582291 0.083889
vt 0.582291 0.138653
vt 0.385323 0.138653
vt 0.446189 0.066966
vt 0.577243 0.556357
vt 0.542679 0.490251
vt 0.573200 0.490251
vt 0.629714 0.189682
vt 0.592821 0.124847
vt 0.637065 0.127649
vt 0.521424 0.004309
vt 0.097798 0.822623
vt 0.662497 0.056843
vt 0.385323 0.083889
vt 0.446189 0.004309
vt 0.683120 0.157280
vt 0.696296 0.004309
vt 0.737016 0.104787
vt 0.043033 0.822623
vt 0.026110 0.781767
vt 0.114721 0.781767
vt 0.704009 0.196382
vt 0.446189 0.440776
vt 0.521424 0.378119
vt 0.521424 0.440776
vt 0.004309 0.861347
vt 0.770815 0.168056
vt 0.385323 0.399920
vt 0.446189 0.378119
vt 0.573200 0.622463
vt 0.542679 0.622463
vt 0.521424 0.289509
vt 0.004309 0.916111
vt 0.582291 0.306432
vt 0.582291 0.361196
vt 0.385323 0.361196
vt 0.446189 0.289509
vt 0.521097 0.583739
vt 0.521424 0.226852
vt 0.043033 0.954835
vt 0.447790 0.600662
vt 0.385323 0.306432
vt 0.446189 0.226852
vt 0.521097 0.528975
vt 0.385323 0.600662
vt 0.447790 0.512052
vt 0.097798 0.954835
vt 0.114721 0.995691
vt 0.026110 0.995691
vt 0.446189 0.218233
vt 0.521424 0.218233
vt 0.482710 0.449395
vt 0.385323 0.177377
vt 0.122695 0.004309
vt 0.828471 0.004309
vt 0.249700 0.004309
vt 0.179815 0.900153
vt 0.145140 0.865478
vt 0.145140 0.816441
vt 0.228852 0.781767
vt 0.263526 0.865478
vt 0.342030 0.004309
vt 0.376704 0.661997
vt 0.376704 0.689326
vt 0.342030 0.708651
vt 0.258318 0.689326
vt 0.590909 0.052309
vt 0.385323 0.045165
vt 0.770815 0.052253
vt 0.482710 0.663319
vt 0.385323 0.267708
vt 0.385323 0.512052
s 0
f 2/1/1 3/2/1 1/3/1
f 4/4/2 5/5/2 3/2/2
f 6/6/3 7/7/3 5/8/3
f 8/9/4 9/10/4 7/11/4
f 10/12/5 11/13/5 9/10/5
f 12/14/6 13/15/6 11/13/6
f 14/16/7 10/17/7 6/18/7
f 14/19/8 15/20/8 13/21/8
f 16/22/9 1/3/9 15/23/9
f 7/24/10 11/25/10 15/20/10
f 19/26/1 25/27/1 20/28/1
f 18/29/11 17/30/11 23/31/11
f 20/28/12 26/32/12 21/33/12
f 18/34/13 24/35/13 19/26/13
f 22/36/14 21/37/14 26/38/14
f 22/39/15 26/40/15 30/41/15
f 24/35/2 29/42/2 25/27/2
f 23/31/16 17/30/16 27/43/16
f 26/40/17 29/44/17 30/41/17
f 23/45/18 28/46/18 24/35/18
f 22/39/19 30/41/19 34/47/19
f 28/48/3 33/49/3 29/44/3
f 27/43/20 17/30/20 31/50/20
f 29/44/21 34/47/21 30/41/21
f 27/43/22 32/51/22 28/52/22
f 22/39/23 34/47/23 38/53/23
f 32/54/4 37/55/4 33/56/4
f 31/50/24 17/30/24 35/57/24
f 34/47/25 37/58/25 38/53/25
f 31/59/26 36/60/26 32/54/26
f 22/36/27 38/61/27 42/62/27
f 36/60/5 41/63/5 37/55/5
f 35/57/28 17/30/28 39/64/28
f 37/55/29 42/65/29 38/66/29
f 35/67/30 40/68/30 36/60/30
f 22/36/31 42/62/31 46/69/31
f 40/68/6 45/70/6 41/63/6
f 39/64/32 17/30/32 43/71/32
f 42/62/33 45/72/33 46/69/33
f 39/73/34 44/74/34 40/68/34
f 22/36/35 46/69/35 50/75/35
f 44/76/8 49/77/8 45/72/8
f 43/71/36 17/30/36 47/78/36
f 45/72/37 50/75/37 46/69/37
f 43/71/38 48/79/38 44/80/38
f 22/36/39 50/75/39 21/37/39
f 48/81/9 20/28/9 49/82/9
f 47/78/40 17/30/40 18/29/40
f 50/75/41 20/83/41 21/37/41
f 47/84/42 19/26/42 48/81/42
f 2/1/1 4/4/1 3/2/1
f 4/4/2 6/85/2 5/5/2
f 6/6/3 8/86/3 7/7/3
f 8/9/4 10/12/4 9/10/4
f 10/12/5 12/14/5 11/13/5
f 12/14/6 14/87/6 13/15/6
f 6/18/7 4/88/7 2/89/7
f 2/89/7 16/90/7 14/16/7
f 14/16/7 12/91/7 10/17/7
f 10/17/7 8/92/7 6/18/7
f 6/18/7 2/89/7 14/16/7
f 14/19/8 16/93/8 15/20/8
f 16/22/9 2/1/9 1/3/9
f 15/20/10 1/94/10 3/95/10
f 3/95/10 5/96/10 7/24/10
f 7/24/10 9/97/10 11/25/10
f 11/25/10 13/21/10 15/20/10
f 15/20/10 3/95/10 7/24/10
f 19/26/1 24/35/1 25/27/1
f 20/28/12 25/27/12 26/32/12
f 18/34/13 23/45/13 24/35/13
f 24/35/2 28/46/2 29/42/2
f 26/40/17 25/98/17 29/44/17
f 23/45/18 27/99/18 28/46/18
f 28/48/3 32/100/3 33/49/3
f 29/44/21 33/49/21 34/47/21
f 27/43/22 31/50/22 32/51/22
f 32/54/4 36/60/4 37/55/4
f 34/47/25 33/49/25 37/58/25
f 31/59/26 35/67/26 36/60/26
f 36/60/5 40/68/5 41/63/5
f 37/55/29 41/63/29 42/65/29
f 35/67/30 39/73/30 40/68/30
f 40/68/6 44/74/6 45/70/6
f 42/62/33 41/101/33 45/72/33
f 39/73/34 43/102/34 44/74/34
f 44/76/8 48/103/8 49/77/8
f 45/72/37 49/77/37 50/75/37
f 43/71/38 47/78/38 48/79/38
f 48/81/9 19/26/9 20/28/9
f 50/75/41 49/77/41 20/83/41
f 47/84/42 18/34/42 19/26/42
