# Blender 5.2.0 LTS
# www.blender.org
o spillatore_corpo
v -0.250000 0.000000 0.150000
v -0.250000 0.120000 0.150000
v -0.250000 0.000000 -0.150000
v -0.250000 0.120000 -0.150000
v 0.250000 0.000000 0.150000
v 0.250000 0.120000 0.150000
v 0.250000 0.000000 -0.150000
v 0.250000 0.120000 -0.150000
v 0.000000 0.120000 -0.150000
v 0.000000 0.520000 -0.150000
v 0.088168 0.120000 -0.121353
v 0.088168 0.520000 -0.121353
v 0.142658 0.120000 -0.046353
v 0.142658 0.520000 -0.046353
v 0.142658 0.120000 0.046353
v 0.142658 0.520000 0.046353
v 0.088168 0.120000 0.121353
v 0.088168 0.520000 0.121353
v 0.000000 0.120000 0.150000
v 0.000000 0.520000 0.150000
v -0.088168 0.120000 0.121353
v -0.088168 0.520000 0.121353
v -0.142658 0.120000 0.046353
v -0.142658 0.520000 0.046353
v -0.142658 0.120000 -0.046353
v -0.142658 0.520000 -0.046353
v -0.088168 0.120000 -0.121353
v -0.088168 0.520000 -0.121353
v 0.000000 0.520000 -0.170000
v 0.000000 0.570000 -0.170000
v 0.099923 0.520000 -0.137533
v 0.099923 0.570000 -0.137533
v 0.161680 0.520000 -0.052533
v 0.161680 0.570000 -0.052533
v 0.161680 0.520000 0.052533
v 0.161680 0.570000 0.052533
v 0.099923 0.520000 0.137533
v 0.099923 0.570000 0.137533
v 0.000000 0.520000 0.170000
v 0.000000 0.570000 0.170000
v -0.099923 0.520000 0.137533
v -0.099923 0.570000 0.137533
v -0.161680 0.520000 0.052533
v -0.161680 0.570000 0.052533
v -0.161680 0.520000 -0.052533
v -0.161680 0.570000 -0.052533
v -0.099923 0.520000 -0.137533
v -0.099923 0.570000 -0.137533
v 0.000000 0.570000 -0.050000
v 0.000000 0.630000 -0.050000
v 0.035355 0.570000 -0.035355
v 0.035355 0.630000 -0.035355
v 0.050000 0.570000 0.000000
v 0.050000 0.630000 0.000000
v 0.035355 0.570000 0.035355
v 0.035355 0.630000 0.035355
v 0.000000 0.570000 0.050000
v 0.000000 0.630000 0.050000
v -0.035355 0.570000 0.035355
v -0.035355 0.630000 0.035355
v -0.050000 0.570000 0.000000
v -0.050000 0.630000 0.000000
v -0.035355 0.570000 -0.035355
v -0.035355 0.630000 -0.035355
v 0.000000 0.288000 0.060000
v 0.000000 0.288000 0.200000
v 0.019799 0.279799 0.060000
v 0.019799 0.279799 0.200000
v 0.028000 0.260000 0.060000
v 0.028000 0.260000 0.200000
v 0.019799 0.240201 0.060000
v 0.019799 0.240201 0.200000
v 0.000000 0.232000 0.060000
v 0.000000 0.232000 0.200000
v -0.019799 0.240201 0.060000
v -0.019799 0.240201 0.200000
v -0.028000 0.260000 0.060000
v -0.028000 0.260000 0.200000
v -0.019799 0.279799 0.060000
v -0.019799 0.279799 0.200000
v 0.000000 0.170000 0.162000
v 0.000000 0.260000 0.162000
v 0.019799 0.170000 0.170201
v 0.019799 0.260000 0.170201
v 0.028000 0.170000 0.190000
v 0.028000 0.260000 0.190000
v 0.019799 0.170000 0.209799
v 0.019799 0.260000 0.209799
v 0.000000 0.170000 0.218000
v 0.000000 0.260000 0.218000
v -0.019799 0.170000 0.209799
v -0.019799 0.260000 0.209799
v -0.028000 0.170000 0.190000
v -0.028000 0.260000 0.190000
v -0.019799 0.170000 0.170201
v -0.019799 0.260000 0.170201
v -0.150000 0.120000 0.150000
v -0.150000 0.140000 0.150000
v -0.150000 0.120000 0.130000
v -0.150000 0.140000 0.130000
v 0.150000 0.120000 0.150000
v 0.150000 0.140000 0.150000
v 0.150000 0.120000 0.130000
v 0.150000 0.140000 0.130000
vn -1.0000 -0.0000 -0.0000
vn -0.0000 -0.0000 -1.0000
vn 1.0000 -0.0000 -0.0000
vn -0.0000 -0.0000 1.0000
vn -0.0000 -1.0000 -0.0000
vn -0.0000 1.0000 -0.0000
vn 0.3090 -0.0000 -0.9511
vn 0.8090 -0.0000 -0.5878
vn 0.8090 -0.0000 0.5878
vn 0.3090 -0.0000 0.9511
vn -0.3090 -0.0000 0.9511
vn -0.8090 -0.0000 0.5878
vn -0.8090 -0.0000 -0.5878
vn -0.3090 -0.0000 -0.9511
vn 0.3827 -0.0000 -0.9239
vn 0.9239 -0.0000 -0.3827
vn 0.9239 -0.0000 0.3827
vn 0.3827 -0.0000 0.9239
vn -0.3827 -0.0000 0.9239
vn -0.9239 -0.0000 0.3827
vn -0.9239 -0.0000 -0.3827
vn -0.3827 -0.0000 -0.9239
vn 0.3827 0.9239 -0.0000
vn 0.9239 0.3827 -0.0000
vn 0.9239 -0.3827 -0.0000
vn 0.3827 -0.9239 -0.0000
vn -0.3827 -0.9239 -0.0000
vn -0.9239 -0.3827 -0.0000
vn -0.9239 0.3827 -0.0000
vn -0.3827 0.9239 -0.0000
vt 0.523106 0.932525
vt 0.611904 0.710530
vt 0.611904 0.932525
vt 0.834255 0.378901
vt 0.923053 0.008909
vt 0.923052 0.378901
vt 0.629722 0.932525
vt 0.718520 0.710530
vt 0.718520 0.932525
vt 0.868825 0.766710
vt 0.957623 0.396719
vt 0.957623 0.766710
vt 0.230904 0.378901
vt 0.008909 0.008909
vt 0.230904 0.008909
vt 0.470717 0.378901
vt 0.248722 0.008909
vt 0.470717 0.008909
vt 0.751194 0.008909
vt 0.816436 0.304902
vt 0.751194 0.304902
vt 0.488535 0.008909
vt 0.544034 0.304902
vt 0.488535 0.304902
vt 0.544034 0.008909
vt 0.612634 0.304902
vt 0.612634 0.008909
vt 0.668133 0.304902
vt 0.720522 0.396719
vt 0.785765 0.692712
vt 0.720522 0.692712
vt 0.785765 0.396719
vt 0.851007 0.692712
vt 0.523106 0.396719
vt 0.578605 0.692712
vt 0.523106 0.692712
vt 0.578605 0.396719
vt 0.647205 0.692712
vt 0.049231 0.687330
vt 0.220039 0.811429
vt 0.114474 0.888126
vt 0.647205 0.396719
vt 0.702704 0.692712
vt 0.685951 0.008909
vt 0.685951 0.304902
vt 0.343422 0.666131
vt 0.408664 0.866928
vt 0.278179 0.866928
vt 0.791156 0.784472
vt 0.828155 0.710530
vt 0.828155 0.784472
vt 0.468289 0.869675
vt 0.505288 0.806777
vt 0.505288 0.869675
vt 0.468289 0.806777
vt 0.505288 0.729030
vt 0.468289 0.729030
vt 0.505288 0.666131
vt 0.868825 0.932412
vt 0.905825 0.858470
vt 0.905825 0.932412
vt 0.868825 0.858470
vt 0.905825 0.784528
vt 0.736338 0.914074
vt 0.773337 0.851176
vt 0.773337 0.914074
vt 0.736338 0.851176
vt 0.773337 0.773429
vt 0.054608 0.420744
vt 0.248189 0.561389
vt 0.128549 0.648313
vt 0.736338 0.773429
vt 0.773337 0.710530
vt 0.791156 0.858413
vt 0.828155 0.858413
vt 0.385648 0.396719
vt 0.459589 0.624288
vt 0.311706 0.624288
vt 0.488535 0.348883
vt 0.532934 0.322720
vt 0.532934 0.348883
vt 0.550752 0.375045
vt 0.595151 0.348883
vt 0.595151 0.375045
vt 0.550752 0.348883
vt 0.595151 0.322720
vt 0.612969 0.375045
vt 0.657368 0.348883
vt 0.657368 0.375045
vt 0.612969 0.348883
vt 0.657368 0.322720
vt 0.675186 0.375045
vt 0.719585 0.348883
vt 0.719585 0.375045
vt 0.028933 0.905944
vt 0.077275 0.925968
vt 0.057251 0.974310
vt 0.675186 0.348883
vt 0.719585 0.322720
vt 0.488535 0.375045
vt 0.532934 0.375045
vt 0.143434 0.905944
vt 0.163458 0.954286
vt 0.115116 0.974310
vt 0.805806 0.876232
vt 0.820457 0.979829
vt 0.805806 0.979829
vt 0.940871 0.248722
vt 0.955522 0.352320
vt 0.940871 0.352320
vt 0.955522 0.248722
vt 0.970172 0.352320
vt 0.468289 0.887493
vt 0.482940 0.991091
vt 0.468289 0.991091
vt 0.482940 0.887493
vt 0.497591 0.991091
vt 0.952944 0.888126
vt 0.938294 0.784528
vt 0.952944 0.784528
vt 0.764475 0.361005
vt 0.737403 0.349792
vt 0.748617 0.322720
vt 0.938294 0.888126
vt 0.923643 0.784528
vt 0.791156 0.876232
vt 0.791156 0.979829
vt 0.390430 0.944229
vt 0.379217 0.917158
vt 0.406288 0.905944
vt 0.299628 0.905944
vt 0.314279 0.972543
vt 0.299628 0.972543
vt 0.181276 0.905944
vt 0.195927 0.972543
vt 0.181276 0.972543
vt 0.195927 0.905944
vt 0.210578 0.972543
vt 0.332097 0.905944
vt 0.346748 0.972543
vt 0.332097 0.972543
vt 0.346748 0.905944
vt 0.361399 0.972543
vt 0.237857 0.905944
vt 0.252508 0.972543
vt 0.237857 0.972543
vt 0.934856 0.905944
vt 0.961927 0.917157
vt 0.950714 0.944229
vt 0.252508 0.905944
vt 0.267159 0.972543
vt 0.284977 0.905944
vt 0.284977 0.972543
vt 0.894611 0.950230
vt 0.905824 0.977301
vt 0.878753 0.988515
vt 0.793506 0.361005
vt 0.808306 0.346205
vt 0.808306 0.361005
vt 0.975441 0.618714
vt 0.990241 0.396719
vt 0.990241 0.618714
vt 0.435320 0.920744
vt 0.450119 0.905944
vt 0.450119 0.920744
vt 0.975441 0.858527
vt 0.990241 0.636532
vt 0.990241 0.858527
vt 0.955670 0.230904
vt 0.940871 0.008909
vt 0.955670 0.008909
vt 0.988288 0.230904
vt 0.973489 0.008909
vt 0.988288 0.008909
vt 0.523106 0.710530
vt 0.834255 0.008909
vt 0.629722 0.710530
vt 0.868825 0.396719
vt 0.008909 0.378901
vt 0.248722 0.378901
vt 0.816436 0.008909
vt 0.668133 0.008909
vt 0.851007 0.396719
vt 0.049231 0.866928
vt 0.008909 0.811429
vt 0.008909 0.742829
vt 0.114474 0.666131
vt 0.179717 0.687330
vt 0.220039 0.742829
vt 0.179717 0.866928
vt 0.702704 0.396719
vt 0.237857 0.811429
vt 0.237857 0.742829
vt 0.278179 0.687330
vt 0.408664 0.687330
vt 0.448987 0.742829
vt 0.448987 0.811429
vt 0.343422 0.888126
vt 0.791156 0.710530
vt 0.468289 0.666131
vt 0.868825 0.784528
vt 0.054608 0.624288
vt 0.008909 0.561389
vt 0.008909 0.483642
vt 0.128549 0.396719
vt 0.202491 0.420744
vt 0.248189 0.483642
vt 0.202491 0.624288
vt 0.736338 0.710530
vt 0.266008 0.561389
vt 0.266008 0.483642
vt 0.311706 0.420744
vt 0.459589 0.420744
vt 0.505288 0.483642
vt 0.505288 0.561389
vt 0.385648 0.648313
vt 0.488535 0.322720
vt 0.550752 0.322720
vt 0.612969 0.322720
vt 0.028933 0.974310
vt 0.008909 0.954286
vt 0.008909 0.925968
vt 0.057251 0.905944
vt 0.077275 0.954286
vt 0.675186 0.322720
vt 0.095093 0.954286
vt 0.095093 0.925968
vt 0.115116 0.905944
vt 0.163458 0.925968
vt 0.143434 0.974310
vt 0.820457 0.876232
vt 0.970172 0.248722
vt 0.497591 0.887493
vt 0.764475 0.322720
vt 0.775688 0.333934
vt 0.775688 0.349792
vt 0.748617 0.361005
vt 0.737403 0.333934
vt 0.923643 0.888126
vt 0.417501 0.917158
vt 0.417501 0.933016
vt 0.406288 0.944229
vt 0.379217 0.933016
vt 0.390430 0.905944
vt 0.314279 0.905944
vt 0.210578 0.905944
vt 0.361399 0.905944
vt 0.934856 0.944229
vt 0.923643 0.933016
vt 0.923643 0.917157
vt 0.950714 0.905944
vt 0.961927 0.933016
vt 0.267159 0.905944
vt 0.867540 0.977301
vt 0.867540 0.961443
vt 0.878753 0.950230
vt 0.905824 0.961443
vt 0.894611 0.988515
vt 0.793506 0.346205
vt 0.975441 0.396719
vt 0.435320 0.905944
vt 0.975441 0.636532
vt 0.940871 0.230904
vt 0.973488 0.230904
s 0
f 2/1/1 3/2/1 1/3/1
f 4/4/2 7/5/2 3/6/2
f 8/7/3 5/8/3 7/9/3
f 6/10/4 1/11/4 5/12/4
f 7/13/5 1/14/5 3/15/5
f 4/16/6 6/17/6 8/18/6
f 10/19/7 11/20/7 9/21/7
f 12/22/8 13/23/8 11/24/8
f 14/25/3 15/26/3 13/23/3
f 16/27/9 17/28/9 15/26/9
f 18/29/10 19/30/10 17/31/10
f 20/32/11 21/33/11 19/30/11
f 22/34/12 23/35/12 21/36/12
f 24/37/1 25/38/1 23/35/1
f 26/39/6 18/40/6 14/41/6
f 26/42/13 27/43/13 25/38/13
f 28/44/14 9/21/14 27/45/14
f 15/46/5 23/47/5 27/48/5
f 30/49/7 31/50/7 29/51/7
f 32/52/8 33/53/8 31/54/8
f 34/55/3 35/56/3 33/53/3
f 36/57/9 37/58/9 35/56/9
f 38/59/10 39/60/10 37/61/10
f 40/62/11 41/63/11 39/60/11
f 42/64/12 43/65/12 41/66/12
f 44/67/1 45/68/1 43/65/1
f 46/69/6 38/70/6 34/71/6
f 46/72/13 47/73/13 45/68/13
f 48/74/14 29/51/14 47/75/14
f 35/76/5 43/77/5 47/78/5
f 50/79/15 51/80/15 49/81/15
f 52/82/16 53/83/16 51/84/16
f 54/85/17 55/86/17 53/83/17
f 56/87/18 57/88/18 55/89/18
f 58/90/19 59/91/19 57/88/19
f 60/92/20 61/93/20 59/94/20
f 62/95/6 58/96/6 54/97/6
f 62/98/21 63/99/21 61/93/21
f 64/100/22 49/81/22 63/101/22
f 55/102/5 59/103/5 63/104/5
f 66/105/23 67/106/23 65/107/23
f 68/108/24 69/109/24 67/110/24
f 70/111/25 71/112/25 69/109/25
f 72/113/26 73/114/26 71/115/26
f 74/116/27 75/117/27 73/114/27
f 76/118/28 77/119/28 75/120/28
f 78/121/4 74/122/4 70/123/4
f 78/124/29 79/125/29 77/119/29
f 80/126/30 65/107/30 79/127/30
f 71/128/2 75/129/2 79/130/2
f 82/131/15 83/132/15 81/133/15
f 84/134/16 85/135/16 83/136/16
f 86/137/17 87/138/17 85/135/17
f 88/139/18 89/140/18 87/141/18
f 90/142/19 91/143/19 89/140/19
f 92/144/20 93/145/20 91/146/20
f 94/147/6 90/148/6 86/149/6
f 94/150/21 95/151/21 93/145/21
f 96/152/22 81/133/22 95/153/22
f 87/154/5 91/155/5 95/156/5
f 98/157/1 99/158/1 97/159/1
f 100/160/2 103/161/2 99/162/2
f 104/163/3 101/164/3 103/165/3
f 102/166/4 97/167/4 101/168/4
f 103/169/5 97/170/5 99/171/5
f 100/172/6 102/173/6 104/174/6
f 2/1/1 4/175/1 3/2/1
f 4/4/2 8/176/2 7/5/2
f 8/7/3 6/177/3 5/8/3
f 6/10/4 2/178/4 1/11/4
f 7/13/5 5/179/5 1/14/5
f 4/16/6 2/180/6 6/17/6
f 10/19/7 12/181/7 11/20/7
f 12/22/8 14/25/8 13/23/8
f 14/25/3 16/27/3 15/26/3
f 16/27/9 18/182/9 17/28/9
f 18/29/10 20/32/10 19/30/10
f 20/32/11 22/183/11 21/33/11
f 22/34/12 24/37/12 23/35/12
f 24/37/1 26/42/1 25/38/1
f 14/41/6 12/184/6 10/185/6
f 10/185/6 28/186/6 26/39/6
f 26/39/6 24/187/6 22/188/6
f 22/188/6 20/189/6 18/40/6
f 18/40/6 16/190/6 14/41/6
f 14/41/6 10/185/6 26/39/6
f 26/39/6 22/188/6 18/40/6
f 26/42/13 28/191/13 27/43/13
f 28/44/14 10/19/14 9/21/14
f 27/48/5 9/192/5 11/193/5
f 11/193/5 13/194/5 15/46/5
f 15/46/5 17/195/5 19/196/5
f 19/196/5 21/197/5 23/47/5
f 23/47/5 25/198/5 27/48/5
f 27/48/5 11/193/5 15/46/5
f 15/46/5 19/196/5 23/47/5
f 30/49/7 32/199/7 31/50/7
f 32/52/8 34/55/8 33/53/8
f 34/55/3 36/57/3 35/56/3
f 36/57/9 38/200/9 37/58/9
f 38/59/10 40/62/10 39/60/10
f 40/62/11 42/201/11 41/63/11
f 42/64/12 44/67/12 43/65/12
f 44/67/1 46/72/1 45/68/1
f 34/71/6 32/202/6 30/203/6
f 30/203/6 48/204/6 46/69/6
f 46/69/6 44/205/6 42/206/6
f 42/206/6 40/207/6 38/70/6
f 38/70/6 36/208/6 34/71/6
f 34/71/6 30/203/6 46/69/6
f 46/69/6 42/206/6 38/70/6
f 46/72/13 48/209/13 47/73/13
f 48/74/14 30/49/14 29/51/14
f 47/78/5 29/210/5 31/211/5
f 31/211/5 33/212/5 35/76/5
f 35/76/5 37/213/5 39/214/5
f 39/214/5 41/215/5 43/77/5
f 43/77/5 45/216/5 47/78/5
f 47/78/5 31/211/5 35/76/5
f 35/76/5 39/214/5 43/77/5
f 50/79/15 52/217/15 51/80/15
f 52/82/16 54/85/16 53/83/16
f 54/85/17 56/218/17 55/86/17
f 56/87/18 58/90/18 57/88/18
f 58/90/19 60/219/19 59/91/19
f 60/92/20 62/98/20 61/93/20
f 54/97/6 52/220/6 50/221/6
f 50/221/6 64/222/6 62/95/6
f 62/95/6 60/223/6 58/96/6
f 58/96/6 56/224/6 54/97/6
f 54/97/6 50/221/6 62/95/6
f 62/98/21 64/225/21 63/99/21
f 64/100/22 50/79/22 49/81/22
f 63/104/5 49/226/5 51/227/5
f 51/227/5 53/228/5 55/102/5
f 55/102/5 57/229/5 59/103/5
f 59/103/5 61/230/5 63/104/5
f 63/104/5 51/227/5 55/102/5
f 66/105/23 68/231/23 67/106/23
f 68/108/24 70/111/24 69/109/24
f 70/111/25 72/232/25 71/112/25
f 72/113/26 74/116/26 73/114/26
f 74/116/27 76/233/27 75/117/27
f 76/118/28 78/124/28 77/119/28
f 70/123/4 68/234/4 66/235/4
f 66/235/4 80/236/4 78/121/4
f 78/121/4 76/237/4 74/122/4
f 74/122/4 72/238/4 70/123/4
f 70/123/4 66/235/4 78/121/4
f 78/124/29 80/239/29 79/125/29
f 80/126/30 66/105/30 65/107/30
f 79/130/2 65/240/2 67/241/2
f 67/241/2 69/242/2 71/128/2
f 71/128/2 73/243/2 75/129/2
f 75/129/2 77/244/2 79/130/2
f 79/130/2 67/241/2 71/128/2
f 82/131/15 84/245/15 83/132/15
f 84/134/16 86/137/16 85/135/16
f 86/137/17 88/246/17 87/138/17
f 88/139/18 90/142/18 89/140/18
f 90/142/19 92/247/19 91/143/19
f 92/144/20 94/150/20 93/145/20
f 86/149/6 84/248/6 82/249/6
f 82/249/6 96/250/6 94/147/6
f 94/147/6 92/251/6 90/148/6
f 90/148/6 88/252/6 86/149/6
f 86/149/6 82/249/6 94/147/6
f 94/150/21 96/253/21 95/151/21
f 96/152/22 82/131/22 81/133/22
f 95/156/5 81/254/5 83/255/5
f 83/255/5 85/256/5 87/154/5
f 87/154/5 89/257/5 91/155/5
f 91/155/5 93/258/5 95/156/5
f 95/156/5 83/255/5 87/154/5
f 98/157/1 100/259/1 99/158/1
f 100/160/2 104/260/2 103/161/2
f 104/163/3 102/261/3 101/164/3
f 102/166/4 98/262/4 97/167/4
f 103/169/5 101/263/5 97/170/5
f 100/172/6 98/264/6 102/173/6
